<svg xmlns="http://www.w3.org/2000/svg" version="1.1" viewBox="0 0 115 115" stroke="none">
	<rect width="100%" height="100%" fill="#FFFFFF"/>
	<path d="M3,3h1v1h-1z M4,3h1v1h-1z M5,3h1v1h-1z M6,3h1v1h-1z M7,3h1v1h-1z M8,3h1v1h-1z M9,3h1v1h-1z M11,3h1v1h-1z M14,3h1v1h-1z M15,3h1v1h-1z M16,3h1v1h-1z M17,3h1v1h-1z M18,3h1v1h-1z M19,3h1v1h-1z M21,3h1v1h-1z M22,3h1v1h-1z M24,3h1v1h-1z M29,3h1v1h-1z M30,3h1v1h-1z M31,3h1v1h-1z M35,3h1v1h-1z M37,3h1v1h-1z M38,3h1v1h-1z M39,3h1v1h-1z M40,3h1v1h-1z M44,3h1v1h-1z M45,3h1v1h-1z M46,3h1v1h-1z M47,3h1v1h-1z M50,3h1v1h-1z M51,3h1v1h-1z M54,3h1v1h-1z M55,3h1v1h-1z M58,3h1v1h-1z M60,3h1v1h-1z M62,3h1v1h-1z M63,3h1v1h-1z M64,3h1v1h-1z M65,3h1v1h-1z M67,3h1v1h-1z M69,3h1v1h-1z M70,3h1v1h-1z M73,3h1v1h-1z M74,3h1v1h-1z M75,3h1v1h-1z M76,3h1v1h-1z M78,3h1v1h-1z M80,3h1v1h-1z M81,3h1v1h-1z M82,3h1v1h-1z M83,3h1v1h-1z M84,3h1v1h-1z M85,3h1v1h-1z M89,3h1v1h-1z M90,3h1v1h-1z M93,3h1v1h-1z M97,3h1v1h-1z M99,3h1v1h-1z M103,3h1v1h-1z M105,3h1v1h-1z M106,3h1v1h-1z M107,3h1v1h-1z M108,3h1v1h-1z M109,3h1v1h-1z M110,3h1v1h-1z M111,3h1v1h-1z M3,4h1v1h-1z M9,4h1v1h-1z M14,4h1v1h-1z M15,4h1v1h-1z M16,4h1v1h-1z M18,4h1v1h-1z M19,4h1v1h-1z M23,4h1v1h-1z M24,4h1v1h-1z M25,4h1v1h-1z M28,4h1v1h-1z M33,4h1v1h-1z M35,4h1v1h-1z M36,4h1v1h-1z M39,4h1v1h-1z M40,4h1v1h-1z M41,4h1v1h-1z M44,4h1v1h-1z M47,4h1v1h-1z M48,4h1v1h-1z M49,4h1v1h-1z M51,4h1v1h-1z M56,4h1v1h-1z M57,4h1v1h-1z M58,4h1v1h-1z M60,4h1v1h-1z M62,4h1v1h-1z M64,4h1v1h-1z M68,4h1v1h-1z M70,4h1v1h-1z M71,4h1v1h-1z M73,4h1v1h-1z M75,4h1v1h-1z M77,4h1v1h-1z M78,4h1v1h-1z M79,4h1v1h-1z M81,4h1v1h-1z M82,4h1v1h-1z M83,4h1v1h-1z M86,4h1v1h-1z M87,4h1v1h-1z M89,4h1v1h-1z M90,4h1v1h-1z M94,4h1v1h-1z M95,4h1v1h-1z M97,4h1v1h-1z M100,4h1v1h-1z M101,4h1v1h-1z M103,4h1v1h-1z M105,4h1v1h-1z M111,4h1v1h-1z M3,5h1v1h-1z M5,5h1v1h-1z M6,5h1v1h-1z M7,5h1v1h-1z M9,5h1v1h-1z M12,5h1v1h-1z M19,5h1v1h-1z M20,5h1v1h-1z M23,5h1v1h-1z M24,5h1v1h-1z M25,5h1v1h-1z M28,5h1v1h-1z M30,5h1v1h-1z M31,5h1v1h-1z M38,5h1v1h-1z M39,5h1v1h-1z M42,5h1v1h-1z M45,5h1v1h-1z M46,5h1v1h-1z M50,5h1v1h-1z M51,5h1v1h-1z M54,5h1v1h-1z M55,5h1v1h-1z M56,5h1v1h-1z M58,5h1v1h-1z M64,5h1v1h-1z M65,5h1v1h-1z M66,5h1v1h-1z M68,5h1v1h-1z M69,5h1v1h-1z M70,5h1v1h-1z M72,5h1v1h-1z M75,5h1v1h-1z M76,5h1v1h-1z M77,5h1v1h-1z M81,5h1v1h-1z M82,5h1v1h-1z M84,5h1v1h-1z M88,5h1v1h-1z M90,5h1v1h-1z M91,5h1v1h-1z M94,5h1v1h-1z M97,5h1v1h-1z M98,5h1v1h-1z M99,5h1v1h-1z M100,5h1v1h-1z M101,5h1v1h-1z M102,5h1v1h-1z M103,5h1v1h-1z M105,5h1v1h-1z M107,5h1v1h-1z M108,5h1v1h-1z M109,5h1v1h-1z M111,5h1v1h-1z M3,6h1v1h-1z M5,6h1v1h-1z M6,6h1v1h-1z M7,6h1v1h-1z M9,6h1v1h-1z M12,6h1v1h-1z M15,6h1v1h-1z M17,6h1v1h-1z M19,6h1v1h-1z M21,6h1v1h-1z M23,6h1v1h-1z M25,6h1v1h-1z M29,6h1v1h-1z M30,6h1v1h-1z M35,6h1v1h-1z M37,6h1v1h-1z M38,6h1v1h-1z M40,6h1v1h-1z M44,6h1v1h-1z M45,6h1v1h-1z M48,6h1v1h-1z M49,6h1v1h-1z M50,6h1v1h-1z M51,6h1v1h-1z M52,6h1v1h-1z M53,6h1v1h-1z M55,6h1v1h-1z M58,6h1v1h-1z M59,6h1v1h-1z M61,6h1v1h-1z M62,6h1v1h-1z M63,6h1v1h-1z M65,6h1v1h-1z M66,6h1v1h-1z M67,6h1v1h-1z M69,6h1v1h-1z M70,6h1v1h-1z M77,6h1v1h-1z M81,6h1v1h-1z M84,6h1v1h-1z M86,6h1v1h-1z M87,6h1v1h-1z M88,6h1v1h-1z M89,6h1v1h-1z M91,6h1v1h-1z M93,6h1v1h-1z M94,6h1v1h-1z M97,6h1v1h-1z M98,6h1v1h-1z M99,6h1v1h-1z M100,6h1v1h-1z M101,6h1v1h-1z M102,6h1v1h-1z M105,6h1v1h-1z M107,6h1v1h-1z M108,6h1v1h-1z M109,6h1v1h-1z M111,6h1v1h-1z M3,7h1v1h-1z M5,7h1v1h-1z M6,7h1v1h-1z M7,7h1v1h-1z M9,7h1v1h-1z M13,7h1v1h-1z M14,7h1v1h-1z M16,7h1v1h-1z M18,7h1v1h-1z M20,7h1v1h-1z M24,7h1v1h-1z M26,7h1v1h-1z M29,7h1v1h-1z M30,7h1v1h-1z M31,7h1v1h-1z M32,7h1v1h-1z M33,7h1v1h-1z M34,7h1v1h-1z M35,7h1v1h-1z M39,7h1v1h-1z M41,7h1v1h-1z M43,7h1v1h-1z M44,7h1v1h-1z M48,7h1v1h-1z M51,7h1v1h-1z M52,7h1v1h-1z M53,7h1v1h-1z M54,7h1v1h-1z M55,7h1v1h-1z M56,7h1v1h-1z M57,7h1v1h-1z M58,7h1v1h-1z M59,7h1v1h-1z M62,7h1v1h-1z M64,7h1v1h-1z M65,7h1v1h-1z M69,7h1v1h-1z M70,7h1v1h-1z M72,7h1v1h-1z M74,7h1v1h-1z M75,7h1v1h-1z M76,7h1v1h-1z M77,7h1v1h-1z M79,7h1v1h-1z M80,7h1v1h-1z M81,7h1v1h-1z M82,7h1v1h-1z M83,7h1v1h-1z M84,7h1v1h-1z M86,7h1v1h-1z M89,7h1v1h-1z M91,7h1v1h-1z M93,7h1v1h-1z M94,7h1v1h-1z M95,7h1v1h-1z M96,7h1v1h-1z M97,7h1v1h-1z M99,7h1v1h-1z M100,7h1v1h-1z M101,7h1v1h-1z M102,7h1v1h-1z M103,7h1v1h-1z M105,7h1v1h-1z M107,7h1v1h-1z M108,7h1v1h-1z M109,7h1v1h-1z M111,7h1v1h-1z M3,8h1v1h-1z M9,8h1v1h-1z M13,8h1v1h-1z M14,8h1v1h-1z M18,8h1v1h-1z M20,8h1v1h-1z M22,8h1v1h-1z M23,8h1v1h-1z M24,8h1v1h-1z M26,8h1v1h-1z M27,8h1v1h-1z M28,8h1v1h-1z M29,8h1v1h-1z M30,8h1v1h-1z M31,8h1v1h-1z M35,8h1v1h-1z M36,8h1v1h-1z M39,8h1v1h-1z M40,8h1v1h-1z M41,8h1v1h-1z M42,8h1v1h-1z M43,8h1v1h-1z M45,8h1v1h-1z M46,8h1v1h-1z M48,8h1v1h-1z M49,8h1v1h-1z M51,8h1v1h-1z M54,8h1v1h-1z M55,8h1v1h-1z M59,8h1v1h-1z M61,8h1v1h-1z M62,8h1v1h-1z M63,8h1v1h-1z M66,8h1v1h-1z M68,8h1v1h-1z M69,8h1v1h-1z M73,8h1v1h-1z M75,8h1v1h-1z M76,8h1v1h-1z M78,8h1v1h-1z M79,8h1v1h-1z M83,8h1v1h-1z M85,8h1v1h-1z M87,8h1v1h-1z M88,8h1v1h-1z M90,8h1v1h-1z M91,8h1v1h-1z M92,8h1v1h-1z M93,8h1v1h-1z M95,8h1v1h-1z M96,8h1v1h-1z M99,8h1v1h-1z M100,8h1v1h-1z M102,8h1v1h-1z M105,8h1v1h-1z M111,8h1v1h-1z M3,9h1v1h-1z M4,9h1v1h-1z M5,9h1v1h-1z M6,9h1v1h-1z M7,9h1v1h-1z M8,9h1v1h-1z M9,9h1v1h-1z M11,9h1v1h-1z M13,9h1v1h-1z M15,9h1v1h-1z M17,9h1v1h-1z M19,9h1v1h-1z M21,9h1v1h-1z M23,9h1v1h-1z M25,9h1v1h-1z M27,9h1v1h-1z M29,9h1v1h-1z M31,9h1v1h-1z M33,9h1v1h-1z M35,9h1v1h-1z M37,9h1v1h-1z M39,9h1v1h-1z M41,9h1v1h-1z M43,9h1v1h-1z M45,9h1v1h-1z M47,9h1v1h-1z M49,9h1v1h-1z M51,9h1v1h-1z M53,9h1v1h-1z M55,9h1v1h-1z M57,9h1v1h-1z M59,9h1v1h-1z M61,9h1v1h-1z M63,9h1v1h-1z M65,9h1v1h-1z M67,9h1v1h-1z M69,9h1v1h-1z M71,9h1v1h-1z M73,9h1v1h-1z M75,9h1v1h-1z M77,9h1v1h-1z M79,9h1v1h-1z M81,9h1v1h-1z M83,9h1v1h-1z M85,9h1v1h-1z M87,9h1v1h-1z M89,9h1v1h-1z M91,9h1v1h-1z M93,9h1v1h-1z M95,9h1v1h-1z M97,9h1v1h-1z M99,9h1v1h-1z M101,9h1v1h-1z M103,9h1v1h-1z M105,9h1v1h-1z M106,9h1v1h-1z M107,9h1v1h-1z M108,9h1v1h-1z M109,9h1v1h-1z M110,9h1v1h-1z M111,9h1v1h-1z M11,10h1v1h-1z M13,10h1v1h-1z M16,10h1v1h-1z M18,10h1v1h-1z M19,10h1v1h-1z M21,10h1v1h-1z M25,10h1v1h-1z M26,10h1v1h-1z M27,10h1v1h-1z M28,10h1v1h-1z M29,10h1v1h-1z M31,10h1v1h-1z M35,10h1v1h-1z M37,10h1v1h-1z M39,10h1v1h-1z M40,10h1v1h-1z M41,10h1v1h-1z M44,10h1v1h-1z M45,10h1v1h-1z M46,10h1v1h-1z M47,10h1v1h-1z M51,10h1v1h-1z M54,10h1v1h-1z M55,10h1v1h-1z M59,10h1v1h-1z M60,10h1v1h-1z M63,10h1v1h-1z M65,10h1v1h-1z M67,10h1v1h-1z M68,10h1v1h-1z M69,10h1v1h-1z M75,10h1v1h-1z M77,10h1v1h-1z M79,10h1v1h-1z M83,10h1v1h-1z M84,10h1v1h-1z M86,10h1v1h-1z M87,10h1v1h-1z M88,10h1v1h-1z M91,10h1v1h-1z M93,10h1v1h-1z M94,10h1v1h-1z M95,10h1v1h-1z M97,10h1v1h-1z M98,10h1v1h-1z M100,10h1v1h-1z M3,11h1v1h-1z M4,11h1v1h-1z M6,11h1v1h-1z M7,11h1v1h-1z M9,11h1v1h-1z M12,11h1v1h-1z M13,11h1v1h-1z M14,11h1v1h-1z M17,11h1v1h-1z M18,11h1v1h-1z M19,11h1v1h-1z M21,11h1v1h-1z M24,11h1v1h-1z M26,11h1v1h-1z M27,11h1v1h-1z M28,11h1v1h-1z M31,11h1v1h-1z M32,11h1v1h-1z M33,11h1v1h-1z M34,11h1v1h-1z M35,11h1v1h-1z M36,11h1v1h-1z M37,11h1v1h-1z M38,11h1v1h-1z M39,11h1v1h-1z M43,11h1v1h-1z M49,11h1v1h-1z M50,11h1v1h-1z M51,11h1v1h-1z M54,11h1v1h-1z M55,11h1v1h-1z M56,11h1v1h-1z M57,11h1v1h-1z M58,11h1v1h-1z M59,11h1v1h-1z M60,11h1v1h-1z M61,11h1v1h-1z M62,11h1v1h-1z M66,11h1v1h-1z M67,11h1v1h-1z M69,11h1v1h-1z M72,11h1v1h-1z M73,11h1v1h-1z M78,11h1v1h-1z M79,11h1v1h-1z M80,11h1v1h-1z M81,11h1v1h-1z M82,11h1v1h-1z M83,11h1v1h-1z M86,11h1v1h-1z M89,11h1v1h-1z M91,11h1v1h-1z M92,11h1v1h-1z M93,11h1v1h-1z M94,11h1v1h-1z M99,11h1v1h-1z M102,11h1v1h-1z M103,11h1v1h-1z M105,11h1v1h-1z M111,11h1v1h-1z M3,12h1v1h-1z M5,12h1v1h-1z M6,12h1v1h-1z M8,12h1v1h-1z M10,12h1v1h-1z M11,12h1v1h-1z M13,12h1v1h-1z M16,12h1v1h-1z M18,12h1v1h-1z M23,12h1v1h-1z M24,12h1v1h-1z M27,12h1v1h-1z M28,12h1v1h-1z M31,12h1v1h-1z M33,12h1v1h-1z M35,12h1v1h-1z M36,12h1v1h-1z M39,12h1v1h-1z M41,12h1v1h-1z M43,12h1v1h-1z M47,12h1v1h-1z M51,12h1v1h-1z M53,12h1v1h-1z M55,12h1v1h-1z M56,12h1v1h-1z M57,12h1v1h-1z M58,12h1v1h-1z M59,12h1v1h-1z M60,12h1v1h-1z M61,12h1v1h-1z M67,12h1v1h-1z M68,12h1v1h-1z M74,12h1v1h-1z M77,12h1v1h-1z M81,12h1v1h-1z M83,12h1v1h-1z M84,12h1v1h-1z M85,12h1v1h-1z M86,12h1v1h-1z M87,12h1v1h-1z M88,12h1v1h-1z M89,12h1v1h-1z M93,12h1v1h-1z M94,12h1v1h-1z M95,12h1v1h-1z M97,12h1v1h-1z M98,12h1v1h-1z M100,12h1v1h-1z M101,12h1v1h-1z M109,12h1v1h-1z M111,12h1v1h-1z M4,13h1v1h-1z M8,13h1v1h-1z M9,13h1v1h-1z M11,13h1v1h-1z M12,13h1v1h-1z M16,13h1v1h-1z M20,13h1v1h-1z M21,13h1v1h-1z M23,13h1v1h-1z M25,13h1v1h-1z M26,13h1v1h-1z M27,13h1v1h-1z M28,13h1v1h-1z M29,13h1v1h-1z M30,13h1v1h-1z M33,13h1v1h-1z M36,13h1v1h-1z M42,13h1v1h-1z M47,13h1v1h-1z M51,13h1v1h-1z M56,13h1v1h-1z M59,13h1v1h-1z M60,13h1v1h-1z M61,13h1v1h-1z M62,13h1v1h-1z M63,13h1v1h-1z M65,13h1v1h-1z M66,13h1v1h-1z M68,13h1v1h-1z M70,13h1v1h-1z M72,13h1v1h-1z M75,13h1v1h-1z M78,13h1v1h-1z M79,13h1v1h-1z M80,13h1v1h-1z M81,13h1v1h-1z M82,13h1v1h-1z M83,13h1v1h-1z M84,13h1v1h-1z M88,13h1v1h-1z M89,13h1v1h-1z M90,13h1v1h-1z M92,13h1v1h-1z M95,13h1v1h-1z M97,13h1v1h-1z M98,13h1v1h-1z M99,13h1v1h-1z M104,13h1v1h-1z M105,13h1v1h-1z M106,13h1v1h-1z M107,13h1v1h-1z M108,13h1v1h-1z M109,13h1v1h-1z M110,13h1v1h-1z M111,13h1v1h-1z M3,14h1v1h-1z M5,14h1v1h-1z M6,14h1v1h-1z M10,14h1v1h-1z M12,14h1v1h-1z M14,14h1v1h-1z M16,14h1v1h-1z M17,14h1v1h-1z M22,14h1v1h-1z M23,14h1v1h-1z M27,14h1v1h-1z M28,14h1v1h-1z M32,14h1v1h-1z M34,14h1v1h-1z M38,14h1v1h-1z M40,14h1v1h-1z M41,14h1v1h-1z M42,14h1v1h-1z M44,14h1v1h-1z M45,14h1v1h-1z M46,14h1v1h-1z M49,14h1v1h-1z M50,14h1v1h-1z M55,14h1v1h-1z M57,14h1v1h-1z M58,14h1v1h-1z M59,14h1v1h-1z M60,14h1v1h-1z M61,14h1v1h-1z M62,14h1v1h-1z M63,14h1v1h-1z M66,14h1v1h-1z M67,14h1v1h-1z M68,14h1v1h-1z M69,14h1v1h-1z M73,14h1v1h-1z M74,14h1v1h-1z M75,14h1v1h-1z M76,14h1v1h-1z M77,14h1v1h-1z M80,14h1v1h-1z M82,14h1v1h-1z M83,14h1v1h-1z M84,14h1v1h-1z M86,14h1v1h-1z M88,14h1v1h-1z M89,14h1v1h-1z M90,14h1v1h-1z M91,14h1v1h-1z M92,14h1v1h-1z M93,14h1v1h-1z M94,14h1v1h-1z M95,14h1v1h-1z M96,14h1v1h-1z M97,14h1v1h-1z M99,14h1v1h-1z M101,14h1v1h-1z M104,14h1v1h-1z M105,14h1v1h-1z M106,14h1v1h-1z M107,14h1v1h-1z M3,15h1v1h-1z M7,15h1v1h-1z M8,15h1v1h-1z M9,15h1v1h-1z M11,15h1v1h-1z M15,15h1v1h-1z M17,15h1v1h-1z M18,15h1v1h-1z M22,15h1v1h-1z M24,15h1v1h-1z M25,15h1v1h-1z M26,15h1v1h-1z M28,15h1v1h-1z M30,15h1v1h-1z M32,15h1v1h-1z M33,15h1v1h-1z M34,15h1v1h-1z M35,15h1v1h-1z M37,15h1v1h-1z M38,15h1v1h-1z M42,15h1v1h-1z M48,15h1v1h-1z M53,15h1v1h-1z M54,15h1v1h-1z M55,15h1v1h-1z M58,15h1v1h-1z M60,15h1v1h-1z M62,15h1v1h-1z M63,15h1v1h-1z M66,15h1v1h-1z M68,15h1v1h-1z M69,15h1v1h-1z M70,15h1v1h-1z M72,15h1v1h-1z M73,15h1v1h-1z M75,15h1v1h-1z M76,15h1v1h-1z M77,15h1v1h-1z M78,15h1v1h-1z M80,15h1v1h-1z M81,15h1v1h-1z M83,15h1v1h-1z M84,15h1v1h-1z M85,15h1v1h-1z M87,15h1v1h-1z M88,15h1v1h-1z M89,15h1v1h-1z M90,15h1v1h-1z M92,15h1v1h-1z M93,15h1v1h-1z M94,15h1v1h-1z M96,15h1v1h-1z M98,15h1v1h-1z M107,15h1v1h-1z M108,15h1v1h-1z M109,15h1v1h-1z M6,16h1v1h-1z M10,16h1v1h-1z M14,16h1v1h-1z M16,16h1v1h-1z M17,16h1v1h-1z M18,16h1v1h-1z M22,16h1v1h-1z M23,16h1v1h-1z M28,16h1v1h-1z M31,16h1v1h-1z M32,16h1v1h-1z M33,16h1v1h-1z M34,16h1v1h-1z M36,16h1v1h-1z M38,16h1v1h-1z M39,16h1v1h-1z M40,16h1v1h-1z M43,16h1v1h-1z M45,16h1v1h-1z M48,16h1v1h-1z M49,16h1v1h-1z M50,16h1v1h-1z M51,16h1v1h-1z M53,16h1v1h-1z M54,16h1v1h-1z M57,16h1v1h-1z M63,16h1v1h-1z M64,16h1v1h-1z M65,16h1v1h-1z M68,16h1v1h-1z M69,16h1v1h-1z M71,16h1v1h-1z M72,16h1v1h-1z M73,16h1v1h-1z M75,16h1v1h-1z M77,16h1v1h-1z M80,16h1v1h-1z M86,16h1v1h-1z M87,16h1v1h-1z M90,16h1v1h-1z M93,16h1v1h-1z M94,16h1v1h-1z M97,16h1v1h-1z M102,16h1v1h-1z M105,16h1v1h-1z M106,16h1v1h-1z M107,16h1v1h-1z M109,16h1v1h-1z M110,16h1v1h-1z M7,17h1v1h-1z M8,17h1v1h-1z M9,17h1v1h-1z M10,17h1v1h-1z M13,17h1v1h-1z M14,17h1v1h-1z M17,17h1v1h-1z M18,17h1v1h-1z M21,17h1v1h-1z M22,17h1v1h-1z M25,17h1v1h-1z M26,17h1v1h-1z M34,17h1v1h-1z M37,17h1v1h-1z M40,17h1v1h-1z M42,17h1v1h-1z M46,17h1v1h-1z M47,17h1v1h-1z M49,17h1v1h-1z M51,17h1v1h-1z M52,17h1v1h-1z M54,17h1v1h-1z M55,17h1v1h-1z M58,17h1v1h-1z M59,17h1v1h-1z M63,17h1v1h-1z M65,17h1v1h-1z M66,17h1v1h-1z M68,17h1v1h-1z M70,17h1v1h-1z M71,17h1v1h-1z M72,17h1v1h-1z M73,17h1v1h-1z M75,17h1v1h-1z M76,17h1v1h-1z M78,17h1v1h-1z M79,17h1v1h-1z M81,17h1v1h-1z M82,17h1v1h-1z M83,17h1v1h-1z M86,17h1v1h-1z M87,17h1v1h-1z M91,17h1v1h-1z M95,17h1v1h-1z M100,17h1v1h-1z M104,17h1v1h-1z M107,17h1v1h-1z M108,17h1v1h-1z M111,17h1v1h-1z M4,18h1v1h-1z M5,18h1v1h-1z M6,18h1v1h-1z M7,18h1v1h-1z M13,18h1v1h-1z M16,18h1v1h-1z M19,18h1v1h-1z M21,18h1v1h-1z M23,18h1v1h-1z M27,18h1v1h-1z M30,18h1v1h-1z M31,18h1v1h-1z M32,18h1v1h-1z M35,18h1v1h-1z M37,18h1v1h-1z M38,18h1v1h-1z M40,18h1v1h-1z M42,18h1v1h-1z M44,18h1v1h-1z M45,18h1v1h-1z M48,18h1v1h-1z M51,18h1v1h-1z M52,18h1v1h-1z M53,18h1v1h-1z M56,18h1v1h-1z M57,18h1v1h-1z M60,18h1v1h-1z M62,18h1v1h-1z M64,18h1v1h-1z M66,18h1v1h-1z M67,18h1v1h-1z M68,18h1v1h-1z M69,18h1v1h-1z M70,18h1v1h-1z M73,18h1v1h-1z M75,18h1v1h-1z M77,18h1v1h-1z M79,18h1v1h-1z M80,18h1v1h-1z M84,18h1v1h-1z M86,18h1v1h-1z M87,18h1v1h-1z M88,18h1v1h-1z M89,18h1v1h-1z M91,18h1v1h-1z M92,18h1v1h-1z M95,18h1v1h-1z M96,18h1v1h-1z M97,18h1v1h-1z M99,18h1v1h-1z M101,18h1v1h-1z M111,18h1v1h-1z M5,19h1v1h-1z M8,19h1v1h-1z M9,19h1v1h-1z M10,19h1v1h-1z M11,19h1v1h-1z M13,19h1v1h-1z M14,19h1v1h-1z M15,19h1v1h-1z M16,19h1v1h-1z M19,19h1v1h-1z M22,19h1v1h-1z M23,19h1v1h-1z M25,19h1v1h-1z M27,19h1v1h-1z M28,19h1v1h-1z M31,19h1v1h-1z M32,19h1v1h-1z M34,19h1v1h-1z M35,19h1v1h-1z M36,19h1v1h-1z M38,19h1v1h-1z M40,19h1v1h-1z M43,19h1v1h-1z M45,19h1v1h-1z M47,19h1v1h-1z M48,19h1v1h-1z M49,19h1v1h-1z M50,19h1v1h-1z M53,19h1v1h-1z M55,19h1v1h-1z M56,19h1v1h-1z M57,19h1v1h-1z M60,19h1v1h-1z M61,19h1v1h-1z M62,19h1v1h-1z M64,19h1v1h-1z M65,19h1v1h-1z M69,19h1v1h-1z M72,19h1v1h-1z M74,19h1v1h-1z M75,19h1v1h-1z M77,19h1v1h-1z M78,19h1v1h-1z M80,19h1v1h-1z M81,19h1v1h-1z M84,19h1v1h-1z M86,19h1v1h-1z M90,19h1v1h-1z M92,19h1v1h-1z M93,19h1v1h-1z M94,19h1v1h-1z M100,19h1v1h-1z M101,19h1v1h-1z M103,19h1v1h-1z M106,19h1v1h-1z M108,19h1v1h-1z M109,19h1v1h-1z M110,19h1v1h-1z M111,19h1v1h-1z M3,20h1v1h-1z M4,20h1v1h-1z M5,20h1v1h-1z M6,20h1v1h-1z M8,20h1v1h-1z M11,20h1v1h-1z M12,20h1v1h-1z M13,20h1v1h-1z M15,20h1v1h-1z M16,20h1v1h-1z M20,20h1v1h-1z M21,20h1v1h-1z M29,20h1v1h-1z M32,20h1v1h-1z M33,20h1v1h-1z M34,20h1v1h-1z M36,20h1v1h-1z M40,20h1v1h-1z M44,20h1v1h-1z M45,20h1v1h-1z M47,20h1v1h-1z M49,20h1v1h-1z M54,20h1v1h-1z M55,20h1v1h-1z M61,20h1v1h-1z M63,20h1v1h-1z M64,20h1v1h-1z M67,20h1v1h-1z M68,20h1v1h-1z M70,20h1v1h-1z M71,20h1v1h-1z M72,20h1v1h-1z M73,20h1v1h-1z M78,20h1v1h-1z M80,20h1v1h-1z M85,20h1v1h-1z M87,20h1v1h-1z M89,20h1v1h-1z M90,20h1v1h-1z M92,20h1v1h-1z M94,20h1v1h-1z M96,20h1v1h-1z M97,20h1v1h-1z M98,20h1v1h-1z M99,20h1v1h-1z M100,20h1v1h-1z M101,20h1v1h-1z M103,20h1v1h-1z M107,20h1v1h-1z M108,20h1v1h-1z M109,20h1v1h-1z M110,20h1v1h-1z M111,20h1v1h-1z M7,21h1v1h-1z M8,21h1v1h-1z M9,21h1v1h-1z M11,21h1v1h-1z M14,21h1v1h-1z M16,21h1v1h-1z M18,21h1v1h-1z M19,21h1v1h-1z M20,21h1v1h-1z M23,21h1v1h-1z M27,21h1v1h-1z M31,21h1v1h-1z M32,21h1v1h-1z M33,21h1v1h-1z M35,21h1v1h-1z M36,21h1v1h-1z M37,21h1v1h-1z M39,21h1v1h-1z M40,21h1v1h-1z M42,21h1v1h-1z M43,21h1v1h-1z M45,21h1v1h-1z M46,21h1v1h-1z M47,21h1v1h-1z M48,21h1v1h-1z M50,21h1v1h-1z M53,21h1v1h-1z M54,21h1v1h-1z M59,21h1v1h-1z M63,21h1v1h-1z M65,21h1v1h-1z M66,21h1v1h-1z M68,21h1v1h-1z M71,21h1v1h-1z M72,21h1v1h-1z M74,21h1v1h-1z M75,21h1v1h-1z M76,21h1v1h-1z M77,21h1v1h-1z M78,21h1v1h-1z M83,21h1v1h-1z M84,21h1v1h-1z M85,21h1v1h-1z M86,21h1v1h-1z M87,21h1v1h-1z M91,21h1v1h-1z M93,21h1v1h-1z M96,21h1v1h-1z M98,21h1v1h-1z M100,21h1v1h-1z M101,21h1v1h-1z M102,21h1v1h-1z M103,21h1v1h-1z M104,21h1v1h-1z M106,21h1v1h-1z M107,21h1v1h-1z M109,21h1v1h-1z M111,21h1v1h-1z M4,22h1v1h-1z M7,22h1v1h-1z M10,22h1v1h-1z M13,22h1v1h-1z M15,22h1v1h-1z M17,22h1v1h-1z M19,22h1v1h-1z M20,22h1v1h-1z M21,22h1v1h-1z M27,22h1v1h-1z M28,22h1v1h-1z M29,22h1v1h-1z M30,22h1v1h-1z M31,22h1v1h-1z M36,22h1v1h-1z M38,22h1v1h-1z M41,22h1v1h-1z M44,22h1v1h-1z M46,22h1v1h-1z M47,22h1v1h-1z M50,22h1v1h-1z M54,22h1v1h-1z M55,22h1v1h-1z M58,22h1v1h-1z M61,22h1v1h-1z M62,22h1v1h-1z M63,22h1v1h-1z M65,22h1v1h-1z M69,22h1v1h-1z M71,22h1v1h-1z M72,22h1v1h-1z M73,22h1v1h-1z M74,22h1v1h-1z M75,22h1v1h-1z M76,22h1v1h-1z M79,22h1v1h-1z M80,22h1v1h-1z M82,22h1v1h-1z M85,22h1v1h-1z M87,22h1v1h-1z M88,22h1v1h-1z M91,22h1v1h-1z M94,22h1v1h-1z M97,22h1v1h-1z M98,22h1v1h-1z M99,22h1v1h-1z M101,22h1v1h-1z M102,22h1v1h-1z M103,22h1v1h-1z M107,22h1v1h-1z M3,23h1v1h-1z M4,23h1v1h-1z M5,23h1v1h-1z M8,23h1v1h-1z M9,23h1v1h-1z M11,23h1v1h-1z M12,23h1v1h-1z M13,23h1v1h-1z M14,23h1v1h-1z M15,23h1v1h-1z M16,23h1v1h-1z M17,23h1v1h-1z M19,23h1v1h-1z M21,23h1v1h-1z M22,23h1v1h-1z M23,23h1v1h-1z M25,23h1v1h-1z M26,23h1v1h-1z M27,23h1v1h-1z M28,23h1v1h-1z M31,23h1v1h-1z M33,23h1v1h-1z M36,23h1v1h-1z M37,23h1v1h-1z M38,23h1v1h-1z M44,23h1v1h-1z M45,23h1v1h-1z M46,23h1v1h-1z M48,23h1v1h-1z M49,23h1v1h-1z M50,23h1v1h-1z M52,23h1v1h-1z M54,23h1v1h-1z M55,23h1v1h-1z M57,23h1v1h-1z M58,23h1v1h-1z M59,23h1v1h-1z M63,23h1v1h-1z M65,23h1v1h-1z M66,23h1v1h-1z M67,23h1v1h-1z M68,23h1v1h-1z M70,23h1v1h-1z M75,23h1v1h-1z M76,23h1v1h-1z M78,23h1v1h-1z M79,23h1v1h-1z M80,23h1v1h-1z M82,23h1v1h-1z M83,23h1v1h-1z M86,23h1v1h-1z M87,23h1v1h-1z M91,23h1v1h-1z M99,23h1v1h-1z M101,23h1v1h-1z M104,23h1v1h-1z M105,23h1v1h-1z M107,23h1v1h-1z M108,23h1v1h-1z M111,23h1v1h-1z M15,24h1v1h-1z M16,24h1v1h-1z M17,24h1v1h-1z M18,24h1v1h-1z M22,24h1v1h-1z M24,24h1v1h-1z M25,24h1v1h-1z M27,24h1v1h-1z M29,24h1v1h-1z M31,24h1v1h-1z M32,24h1v1h-1z M33,24h1v1h-1z M35,24h1v1h-1z M36,24h1v1h-1z M38,24h1v1h-1z M39,24h1v1h-1z M41,24h1v1h-1z M45,24h1v1h-1z M47,24h1v1h-1z M49,24h1v1h-1z M51,24h1v1h-1z M52,24h1v1h-1z M55,24h1v1h-1z M56,24h1v1h-1z M57,24h1v1h-1z M64,24h1v1h-1z M65,24h1v1h-1z M72,24h1v1h-1z M77,24h1v1h-1z M78,24h1v1h-1z M79,24h1v1h-1z M81,24h1v1h-1z M82,24h1v1h-1z M83,24h1v1h-1z M84,24h1v1h-1z M87,24h1v1h-1z M88,24h1v1h-1z M89,24h1v1h-1z M93,24h1v1h-1z M94,24h1v1h-1z M97,24h1v1h-1z M103,24h1v1h-1z M104,24h1v1h-1z M106,24h1v1h-1z M108,24h1v1h-1z M109,24h1v1h-1z M4,25h1v1h-1z M5,25h1v1h-1z M7,25h1v1h-1z M9,25h1v1h-1z M10,25h1v1h-1z M11,25h1v1h-1z M12,25h1v1h-1z M13,25h1v1h-1z M15,25h1v1h-1z M16,25h1v1h-1z M19,25h1v1h-1z M25,25h1v1h-1z M28,25h1v1h-1z M32,25h1v1h-1z M33,25h1v1h-1z M35,25h1v1h-1z M38,25h1v1h-1z M39,25h1v1h-1z M40,25h1v1h-1z M43,25h1v1h-1z M44,25h1v1h-1z M49,25h1v1h-1z M50,25h1v1h-1z M51,25h1v1h-1z M52,25h1v1h-1z M53,25h1v1h-1z M54,25h1v1h-1z M56,25h1v1h-1z M58,25h1v1h-1z M59,25h1v1h-1z M62,25h1v1h-1z M63,25h1v1h-1z M66,25h1v1h-1z M67,25h1v1h-1z M69,25h1v1h-1z M73,25h1v1h-1z M74,25h1v1h-1z M75,25h1v1h-1z M76,25h1v1h-1z M77,25h1v1h-1z M81,25h1v1h-1z M83,25h1v1h-1z M84,25h1v1h-1z M85,25h1v1h-1z M86,25h1v1h-1z M88,25h1v1h-1z M89,25h1v1h-1z M90,25h1v1h-1z M91,25h1v1h-1z M93,25h1v1h-1z M96,25h1v1h-1z M97,25h1v1h-1z M98,25h1v1h-1z M107,25h1v1h-1z M110,25h1v1h-1z M111,25h1v1h-1z M10,26h1v1h-1z M12,26h1v1h-1z M13,26h1v1h-1z M14,26h1v1h-1z M18,26h1v1h-1z M19,26h1v1h-1z M20,26h1v1h-1z M22,26h1v1h-1z M25,26h1v1h-1z M27,26h1v1h-1z M28,26h1v1h-1z M31,26h1v1h-1z M33,26h1v1h-1z M34,26h1v1h-1z M35,26h1v1h-1z M37,26h1v1h-1z M40,26h1v1h-1z M41,26h1v1h-1z M42,26h1v1h-1z M43,26h1v1h-1z M44,26h1v1h-1z M45,26h1v1h-1z M51,26h1v1h-1z M57,26h1v1h-1z M58,26h1v1h-1z M59,26h1v1h-1z M60,26h1v1h-1z M61,26h1v1h-1z M65,26h1v1h-1z M66,26h1v1h-1z M69,26h1v1h-1z M70,26h1v1h-1z M72,26h1v1h-1z M73,26h1v1h-1z M75,26h1v1h-1z M77,26h1v1h-1z M78,26h1v1h-1z M80,26h1v1h-1z M81,26h1v1h-1z M82,26h1v1h-1z M83,26h1v1h-1z M85,26h1v1h-1z M87,26h1v1h-1z M88,26h1v1h-1z M90,26h1v1h-1z M94,26h1v1h-1z M95,26h1v1h-1z M96,26h1v1h-1z M98,26h1v1h-1z M99,26h1v1h-1z M100,26h1v1h-1z M102,26h1v1h-1z M103,26h1v1h-1z M104,26h1v1h-1z M105,26h1v1h-1z M106,26h1v1h-1z M107,26h1v1h-1z M108,26h1v1h-1z M109,26h1v1h-1z M4,27h1v1h-1z M5,27h1v1h-1z M6,27h1v1h-1z M8,27h1v1h-1z M9,27h1v1h-1z M12,27h1v1h-1z M14,27h1v1h-1z M23,27h1v1h-1z M28,27h1v1h-1z M31,27h1v1h-1z M33,27h1v1h-1z M34,27h1v1h-1z M37,27h1v1h-1z M40,27h1v1h-1z M41,27h1v1h-1z M44,27h1v1h-1z M46,27h1v1h-1z M47,27h1v1h-1z M49,27h1v1h-1z M50,27h1v1h-1z M52,27h1v1h-1z M54,27h1v1h-1z M55,27h1v1h-1z M57,27h1v1h-1z M58,27h1v1h-1z M59,27h1v1h-1z M61,27h1v1h-1z M62,27h1v1h-1z M66,27h1v1h-1z M67,27h1v1h-1z M68,27h1v1h-1z M71,27h1v1h-1z M73,27h1v1h-1z M74,27h1v1h-1z M76,27h1v1h-1z M77,27h1v1h-1z M79,27h1v1h-1z M80,27h1v1h-1z M81,27h1v1h-1z M85,27h1v1h-1z M86,27h1v1h-1z M90,27h1v1h-1z M93,27h1v1h-1z M97,27h1v1h-1z M100,27h1v1h-1z M102,27h1v1h-1z M103,27h1v1h-1z M104,27h1v1h-1z M105,27h1v1h-1z M107,27h1v1h-1z M109,27h1v1h-1z M111,27h1v1h-1z M3,28h1v1h-1z M4,28h1v1h-1z M5,28h1v1h-1z M7,28h1v1h-1z M10,28h1v1h-1z M11,28h1v1h-1z M13,28h1v1h-1z M14,28h1v1h-1z M15,28h1v1h-1z M16,28h1v1h-1z M17,28h1v1h-1z M18,28h1v1h-1z M19,28h1v1h-1z M23,28h1v1h-1z M24,28h1v1h-1z M25,28h1v1h-1z M27,28h1v1h-1z M28,28h1v1h-1z M36,28h1v1h-1z M39,28h1v1h-1z M41,28h1v1h-1z M42,28h1v1h-1z M43,28h1v1h-1z M44,28h1v1h-1z M45,28h1v1h-1z M46,28h1v1h-1z M48,28h1v1h-1z M49,28h1v1h-1z M50,28h1v1h-1z M51,28h1v1h-1z M52,28h1v1h-1z M57,28h1v1h-1z M58,28h1v1h-1z M61,28h1v1h-1z M63,28h1v1h-1z M64,28h1v1h-1z M65,28h1v1h-1z M69,28h1v1h-1z M70,28h1v1h-1z M71,28h1v1h-1z M72,28h1v1h-1z M73,28h1v1h-1z M74,28h1v1h-1z M75,28h1v1h-1z M77,28h1v1h-1z M81,28h1v1h-1z M83,28h1v1h-1z M85,28h1v1h-1z M93,28h1v1h-1z M96,28h1v1h-1z M97,28h1v1h-1z M99,28h1v1h-1z M100,28h1v1h-1z M105,28h1v1h-1z M106,28h1v1h-1z M107,28h1v1h-1z M108,28h1v1h-1z M109,28h1v1h-1z M4,29h1v1h-1z M5,29h1v1h-1z M6,29h1v1h-1z M7,29h1v1h-1z M8,29h1v1h-1z M9,29h1v1h-1z M13,29h1v1h-1z M14,29h1v1h-1z M15,29h1v1h-1z M16,29h1v1h-1z M17,29h1v1h-1z M19,29h1v1h-1z M22,29h1v1h-1z M23,29h1v1h-1z M24,29h1v1h-1z M26,29h1v1h-1z M27,29h1v1h-1z M28,29h1v1h-1z M29,29h1v1h-1z M30,29h1v1h-1z M31,29h1v1h-1z M33,29h1v1h-1z M34,29h1v1h-1z M36,29h1v1h-1z M43,29h1v1h-1z M44,29h1v1h-1z M45,29h1v1h-1z M48,29h1v1h-1z M49,29h1v1h-1z M50,29h1v1h-1z M52,29h1v1h-1z M55,29h1v1h-1z M57,29h1v1h-1z M63,29h1v1h-1z M70,29h1v1h-1z M72,29h1v1h-1z M73,29h1v1h-1z M74,29h1v1h-1z M76,29h1v1h-1z M77,29h1v1h-1z M81,29h1v1h-1z M84,29h1v1h-1z M85,29h1v1h-1z M87,29h1v1h-1z M88,29h1v1h-1z M89,29h1v1h-1z M90,29h1v1h-1z M91,29h1v1h-1z M92,29h1v1h-1z M95,29h1v1h-1z M96,29h1v1h-1z M97,29h1v1h-1z M98,29h1v1h-1z M99,29h1v1h-1z M101,29h1v1h-1z M102,29h1v1h-1z M103,29h1v1h-1z M105,29h1v1h-1z M109,29h1v1h-1z M110,29h1v1h-1z M111,29h1v1h-1z M10,30h1v1h-1z M14,30h1v1h-1z M15,30h1v1h-1z M17,30h1v1h-1z M18,30h1v1h-1z M22,30h1v1h-1z M23,30h1v1h-1z M25,30h1v1h-1z M28,30h1v1h-1z M30,30h1v1h-1z M33,30h1v1h-1z M34,30h1v1h-1z M35,30h1v1h-1z M37,30h1v1h-1z M38,30h1v1h-1z M45,30h1v1h-1z M47,30h1v1h-1z M48,30h1v1h-1z M50,30h1v1h-1z M52,30h1v1h-1z M55,30h1v1h-1z M56,30h1v1h-1z M57,30h1v1h-1z M61,30h1v1h-1z M64,30h1v1h-1z M65,30h1v1h-1z M66,30h1v1h-1z M67,30h1v1h-1z M68,30h1v1h-1z M70,30h1v1h-1z M71,30h1v1h-1z M72,30h1v1h-1z M74,30h1v1h-1z M76,30h1v1h-1z M77,30h1v1h-1z M83,30h1v1h-1z M84,30h1v1h-1z M86,30h1v1h-1z M89,30h1v1h-1z M95,30h1v1h-1z M101,30h1v1h-1z M102,30h1v1h-1z M104,30h1v1h-1z M106,30h1v1h-1z M108,30h1v1h-1z M110,30h1v1h-1z M3,31h1v1h-1z M4,31h1v1h-1z M7,31h1v1h-1z M8,31h1v1h-1z M9,31h1v1h-1z M10,31h1v1h-1z M11,31h1v1h-1z M12,31h1v1h-1z M16,31h1v1h-1z M17,31h1v1h-1z M20,31h1v1h-1z M24,31h1v1h-1z M25,31h1v1h-1z M27,31h1v1h-1z M31,31h1v1h-1z M32,31h1v1h-1z M33,31h1v1h-1z M34,31h1v1h-1z M35,31h1v1h-1z M37,31h1v1h-1z M38,31h1v1h-1z M40,31h1v1h-1z M46,31h1v1h-1z M49,31h1v1h-1z M50,31h1v1h-1z M52,31h1v1h-1z M54,31h1v1h-1z M55,31h1v1h-1z M56,31h1v1h-1z M57,31h1v1h-1z M58,31h1v1h-1z M59,31h1v1h-1z M62,31h1v1h-1z M63,31h1v1h-1z M64,31h1v1h-1z M66,31h1v1h-1z M67,31h1v1h-1z M73,31h1v1h-1z M76,31h1v1h-1z M77,31h1v1h-1z M79,31h1v1h-1z M80,31h1v1h-1z M81,31h1v1h-1z M82,31h1v1h-1z M83,31h1v1h-1z M84,31h1v1h-1z M85,31h1v1h-1z M88,31h1v1h-1z M89,31h1v1h-1z M90,31h1v1h-1z M92,31h1v1h-1z M93,31h1v1h-1z M95,31h1v1h-1z M97,31h1v1h-1z M98,31h1v1h-1z M99,31h1v1h-1z M103,31h1v1h-1z M104,31h1v1h-1z M105,31h1v1h-1z M106,31h1v1h-1z M107,31h1v1h-1z M110,31h1v1h-1z M4,32h1v1h-1z M6,32h1v1h-1z M7,32h1v1h-1z M11,32h1v1h-1z M14,32h1v1h-1z M15,32h1v1h-1z M16,32h1v1h-1z M18,32h1v1h-1z M21,32h1v1h-1z M29,32h1v1h-1z M30,32h1v1h-1z M31,32h1v1h-1z M35,32h1v1h-1z M39,32h1v1h-1z M41,32h1v1h-1z M42,32h1v1h-1z M44,32h1v1h-1z M46,32h1v1h-1z M53,32h1v1h-1z M55,32h1v1h-1z M59,32h1v1h-1z M61,32h1v1h-1z M64,32h1v1h-1z M67,32h1v1h-1z M68,32h1v1h-1z M73,32h1v1h-1z M74,32h1v1h-1z M75,32h1v1h-1z M78,32h1v1h-1z M79,32h1v1h-1z M83,32h1v1h-1z M85,32h1v1h-1z M86,32h1v1h-1z M88,32h1v1h-1z M90,32h1v1h-1z M93,32h1v1h-1z M94,32h1v1h-1z M97,32h1v1h-1z M98,32h1v1h-1z M100,32h1v1h-1z M102,32h1v1h-1z M103,32h1v1h-1z M107,32h1v1h-1z M3,33h1v1h-1z M5,33h1v1h-1z M7,33h1v1h-1z M9,33h1v1h-1z M11,33h1v1h-1z M14,33h1v1h-1z M16,33h1v1h-1z M17,33h1v1h-1z M20,33h1v1h-1z M21,33h1v1h-1z M23,33h1v1h-1z M27,33h1v1h-1z M29,33h1v1h-1z M30,33h1v1h-1z M31,33h1v1h-1z M33,33h1v1h-1z M35,33h1v1h-1z M38,33h1v1h-1z M39,33h1v1h-1z M42,33h1v1h-1z M43,33h1v1h-1z M46,33h1v1h-1z M47,33h1v1h-1z M50,33h1v1h-1z M51,33h1v1h-1z M55,33h1v1h-1z M57,33h1v1h-1z M59,33h1v1h-1z M60,33h1v1h-1z M61,33h1v1h-1z M62,33h1v1h-1z M63,33h1v1h-1z M65,33h1v1h-1z M66,33h1v1h-1z M67,33h1v1h-1z M70,33h1v1h-1z M71,33h1v1h-1z M72,33h1v1h-1z M73,33h1v1h-1z M74,33h1v1h-1z M76,33h1v1h-1z M79,33h1v1h-1z M81,33h1v1h-1z M83,33h1v1h-1z M84,33h1v1h-1z M87,33h1v1h-1z M90,33h1v1h-1z M91,33h1v1h-1z M92,33h1v1h-1z M93,33h1v1h-1z M94,33h1v1h-1z M98,33h1v1h-1z M99,33h1v1h-1z M101,33h1v1h-1z M102,33h1v1h-1z M103,33h1v1h-1z M105,33h1v1h-1z M107,33h1v1h-1z M109,33h1v1h-1z M110,33h1v1h-1z M111,33h1v1h-1z M3,34h1v1h-1z M7,34h1v1h-1z M11,34h1v1h-1z M16,34h1v1h-1z M18,34h1v1h-1z M24,34h1v1h-1z M29,34h1v1h-1z M31,34h1v1h-1z M35,34h1v1h-1z M39,34h1v1h-1z M40,34h1v1h-1z M41,34h1v1h-1z M45,34h1v1h-1z M46,34h1v1h-1z M47,34h1v1h-1z M52,34h1v1h-1z M53,34h1v1h-1z M55,34h1v1h-1z M59,34h1v1h-1z M62,34h1v1h-1z M64,34h1v1h-1z M66,34h1v1h-1z M67,34h1v1h-1z M68,34h1v1h-1z M69,34h1v1h-1z M73,34h1v1h-1z M76,34h1v1h-1z M79,34h1v1h-1z M83,34h1v1h-1z M84,34h1v1h-1z M86,34h1v1h-1z M89,34h1v1h-1z M91,34h1v1h-1z M92,34h1v1h-1z M93,34h1v1h-1z M95,34h1v1h-1z M96,34h1v1h-1z M99,34h1v1h-1z M100,34h1v1h-1z M102,34h1v1h-1z M103,34h1v1h-1z M107,34h1v1h-1z M108,34h1v1h-1z M111,34h1v1h-1z M3,35h1v1h-1z M6,35h1v1h-1z M7,35h1v1h-1z M8,35h1v1h-1z M9,35h1v1h-1z M10,35h1v1h-1z M11,35h1v1h-1z M13,35h1v1h-1z M16,35h1v1h-1z M17,35h1v1h-1z M28,35h1v1h-1z M31,35h1v1h-1z M32,35h1v1h-1z M33,35h1v1h-1z M34,35h1v1h-1z M35,35h1v1h-1z M36,35h1v1h-1z M37,35h1v1h-1z M38,35h1v1h-1z M42,35h1v1h-1z M44,35h1v1h-1z M47,35h1v1h-1z M48,35h1v1h-1z M49,35h1v1h-1z M50,35h1v1h-1z M53,35h1v1h-1z M55,35h1v1h-1z M56,35h1v1h-1z M57,35h1v1h-1z M58,35h1v1h-1z M59,35h1v1h-1z M60,35h1v1h-1z M64,35h1v1h-1z M65,35h1v1h-1z M66,35h1v1h-1z M68,35h1v1h-1z M70,35h1v1h-1z M71,35h1v1h-1z M72,35h1v1h-1z M73,35h1v1h-1z M74,35h1v1h-1z M79,35h1v1h-1z M80,35h1v1h-1z M81,35h1v1h-1z M82,35h1v1h-1z M83,35h1v1h-1z M86,35h1v1h-1z M87,35h1v1h-1z M88,35h1v1h-1z M90,35h1v1h-1z M91,35h1v1h-1z M92,35h1v1h-1z M96,35h1v1h-1z M97,35h1v1h-1z M100,35h1v1h-1z M101,35h1v1h-1z M102,35h1v1h-1z M103,35h1v1h-1z M104,35h1v1h-1z M105,35h1v1h-1z M106,35h1v1h-1z M107,35h1v1h-1z M108,35h1v1h-1z M109,35h1v1h-1z M111,35h1v1h-1z M3,36h1v1h-1z M4,36h1v1h-1z M5,36h1v1h-1z M11,36h1v1h-1z M12,36h1v1h-1z M14,36h1v1h-1z M15,36h1v1h-1z M18,36h1v1h-1z M19,36h1v1h-1z M20,36h1v1h-1z M22,36h1v1h-1z M23,36h1v1h-1z M25,36h1v1h-1z M28,36h1v1h-1z M29,36h1v1h-1z M30,36h1v1h-1z M31,36h1v1h-1z M35,36h1v1h-1z M37,36h1v1h-1z M40,36h1v1h-1z M41,36h1v1h-1z M45,36h1v1h-1z M47,36h1v1h-1z M48,36h1v1h-1z M51,36h1v1h-1z M56,36h1v1h-1z M57,36h1v1h-1z M58,36h1v1h-1z M62,36h1v1h-1z M66,36h1v1h-1z M68,36h1v1h-1z M69,36h1v1h-1z M70,36h1v1h-1z M72,36h1v1h-1z M74,36h1v1h-1z M75,36h1v1h-1z M76,36h1v1h-1z M78,36h1v1h-1z M79,36h1v1h-1z M83,36h1v1h-1z M84,36h1v1h-1z M86,36h1v1h-1z M87,36h1v1h-1z M89,36h1v1h-1z M92,36h1v1h-1z M104,36h1v1h-1z M105,36h1v1h-1z M107,36h1v1h-1z M108,36h1v1h-1z M109,36h1v1h-1z M3,37h1v1h-1z M4,37h1v1h-1z M6,37h1v1h-1z M8,37h1v1h-1z M9,37h1v1h-1z M18,37h1v1h-1z M21,37h1v1h-1z M25,37h1v1h-1z M26,37h1v1h-1z M27,37h1v1h-1z M30,37h1v1h-1z M34,37h1v1h-1z M35,37h1v1h-1z M36,37h1v1h-1z M38,37h1v1h-1z M39,37h1v1h-1z M41,37h1v1h-1z M43,37h1v1h-1z M45,37h1v1h-1z M46,37h1v1h-1z M50,37h1v1h-1z M51,37h1v1h-1z M53,37h1v1h-1z M55,37h1v1h-1z M57,37h1v1h-1z M59,37h1v1h-1z M60,37h1v1h-1z M62,37h1v1h-1z M65,37h1v1h-1z M67,37h1v1h-1z M69,37h1v1h-1z M70,37h1v1h-1z M71,37h1v1h-1z M75,37h1v1h-1z M76,37h1v1h-1z M77,37h1v1h-1z M78,37h1v1h-1z M79,37h1v1h-1z M81,37h1v1h-1z M83,37h1v1h-1z M86,37h1v1h-1z M88,37h1v1h-1z M89,37h1v1h-1z M93,37h1v1h-1z M94,37h1v1h-1z M95,37h1v1h-1z M97,37h1v1h-1z M99,37h1v1h-1z M101,37h1v1h-1z M103,37h1v1h-1z M109,37h1v1h-1z M110,37h1v1h-1z M111,37h1v1h-1z M4,38h1v1h-1z M5,38h1v1h-1z M7,38h1v1h-1z M8,38h1v1h-1z M10,38h1v1h-1z M11,38h1v1h-1z M12,38h1v1h-1z M13,38h1v1h-1z M17,38h1v1h-1z M19,38h1v1h-1z M21,38h1v1h-1z M23,38h1v1h-1z M29,38h1v1h-1z M34,38h1v1h-1z M35,38h1v1h-1z M36,38h1v1h-1z M37,38h1v1h-1z M38,38h1v1h-1z M39,38h1v1h-1z M42,38h1v1h-1z M45,38h1v1h-1z M48,38h1v1h-1z M49,38h1v1h-1z M51,38h1v1h-1z M52,38h1v1h-1z M53,38h1v1h-1z M54,38h1v1h-1z M56,38h1v1h-1z M60,38h1v1h-1z M63,38h1v1h-1z M65,38h1v1h-1z M68,38h1v1h-1z M71,38h1v1h-1z M73,38h1v1h-1z M74,38h1v1h-1z M80,38h1v1h-1z M81,38h1v1h-1z M82,38h1v1h-1z M84,38h1v1h-1z M86,38h1v1h-1z M87,38h1v1h-1z M88,38h1v1h-1z M91,38h1v1h-1z M93,38h1v1h-1z M94,38h1v1h-1z M97,38h1v1h-1z M100,38h1v1h-1z M101,38h1v1h-1z M102,38h1v1h-1z M104,38h1v1h-1z M105,38h1v1h-1z M107,38h1v1h-1z M108,38h1v1h-1z M109,38h1v1h-1z M5,39h1v1h-1z M9,39h1v1h-1z M10,39h1v1h-1z M11,39h1v1h-1z M15,39h1v1h-1z M17,39h1v1h-1z M18,39h1v1h-1z M24,39h1v1h-1z M25,39h1v1h-1z M27,39h1v1h-1z M29,39h1v1h-1z M30,39h1v1h-1z M31,39h1v1h-1z M32,39h1v1h-1z M34,39h1v1h-1z M36,39h1v1h-1z M42,39h1v1h-1z M43,39h1v1h-1z M45,39h1v1h-1z M46,39h1v1h-1z M47,39h1v1h-1z M52,39h1v1h-1z M55,39h1v1h-1z M56,39h1v1h-1z M59,39h1v1h-1z M61,39h1v1h-1z M63,39h1v1h-1z M64,39h1v1h-1z M66,39h1v1h-1z M67,39h1v1h-1z M70,39h1v1h-1z M72,39h1v1h-1z M74,39h1v1h-1z M75,39h1v1h-1z M76,39h1v1h-1z M78,39h1v1h-1z M79,39h1v1h-1z M80,39h1v1h-1z M81,39h1v1h-1z M86,39h1v1h-1z M89,39h1v1h-1z M90,39h1v1h-1z M91,39h1v1h-1z M93,39h1v1h-1z M95,39h1v1h-1z M97,39h1v1h-1z M98,39h1v1h-1z M99,39h1v1h-1z M100,39h1v1h-1z M102,39h1v1h-1z M103,39h1v1h-1z M105,39h1v1h-1z M106,39h1v1h-1z M107,39h1v1h-1z M110,39h1v1h-1z M111,39h1v1h-1z M5,40h1v1h-1z M7,40h1v1h-1z M11,40h1v1h-1z M15,40h1v1h-1z M17,40h1v1h-1z M18,40h1v1h-1z M20,40h1v1h-1z M25,40h1v1h-1z M28,40h1v1h-1z M30,40h1v1h-1z M31,40h1v1h-1z M32,40h1v1h-1z M33,40h1v1h-1z M34,40h1v1h-1z M36,40h1v1h-1z M37,40h1v1h-1z M40,40h1v1h-1z M41,40h1v1h-1z M42,40h1v1h-1z M43,40h1v1h-1z M44,40h1v1h-1z M45,40h1v1h-1z M49,40h1v1h-1z M50,40h1v1h-1z M51,40h1v1h-1z M54,40h1v1h-1z M55,40h1v1h-1z M57,40h1v1h-1z M60,40h1v1h-1z M61,40h1v1h-1z M62,40h1v1h-1z M64,40h1v1h-1z M65,40h1v1h-1z M66,40h1v1h-1z M67,40h1v1h-1z M69,40h1v1h-1z M71,40h1v1h-1z M73,40h1v1h-1z M76,40h1v1h-1z M77,40h1v1h-1z M80,40h1v1h-1z M84,40h1v1h-1z M85,40h1v1h-1z M87,40h1v1h-1z M90,40h1v1h-1z M91,40h1v1h-1z M92,40h1v1h-1z M93,40h1v1h-1z M94,40h1v1h-1z M99,40h1v1h-1z M100,40h1v1h-1z M102,40h1v1h-1z M103,40h1v1h-1z M107,40h1v1h-1z M6,41h1v1h-1z M7,41h1v1h-1z M8,41h1v1h-1z M9,41h1v1h-1z M10,41h1v1h-1z M16,41h1v1h-1z M19,41h1v1h-1z M20,41h1v1h-1z M22,41h1v1h-1z M25,41h1v1h-1z M26,41h1v1h-1z M28,41h1v1h-1z M29,41h1v1h-1z M30,41h1v1h-1z M32,41h1v1h-1z M33,41h1v1h-1z M36,41h1v1h-1z M43,41h1v1h-1z M47,41h1v1h-1z M49,41h1v1h-1z M51,41h1v1h-1z M52,41h1v1h-1z M53,41h1v1h-1z M54,41h1v1h-1z M55,41h1v1h-1z M56,41h1v1h-1z M57,41h1v1h-1z M58,41h1v1h-1z M59,41h1v1h-1z M60,41h1v1h-1z M63,41h1v1h-1z M64,41h1v1h-1z M66,41h1v1h-1z M68,41h1v1h-1z M71,41h1v1h-1z M75,41h1v1h-1z M77,41h1v1h-1z M79,41h1v1h-1z M81,41h1v1h-1z M85,41h1v1h-1z M86,41h1v1h-1z M90,41h1v1h-1z M92,41h1v1h-1z M94,41h1v1h-1z M97,41h1v1h-1z M99,41h1v1h-1z M101,41h1v1h-1z M103,41h1v1h-1z M105,41h1v1h-1z M106,41h1v1h-1z M107,41h1v1h-1z M108,41h1v1h-1z M3,42h1v1h-1z M4,42h1v1h-1z M6,42h1v1h-1z M7,42h1v1h-1z M8,42h1v1h-1z M11,42h1v1h-1z M13,42h1v1h-1z M15,42h1v1h-1z M16,42h1v1h-1z M17,42h1v1h-1z M18,42h1v1h-1z M19,42h1v1h-1z M20,42h1v1h-1z M22,42h1v1h-1z M24,42h1v1h-1z M27,42h1v1h-1z M28,42h1v1h-1z M31,42h1v1h-1z M32,42h1v1h-1z M39,42h1v1h-1z M40,42h1v1h-1z M42,42h1v1h-1z M43,42h1v1h-1z M49,42h1v1h-1z M50,42h1v1h-1z M51,42h1v1h-1z M54,42h1v1h-1z M57,42h1v1h-1z M58,42h1v1h-1z M59,42h1v1h-1z M62,42h1v1h-1z M63,42h1v1h-1z M64,42h1v1h-1z M65,42h1v1h-1z M66,42h1v1h-1z M67,42h1v1h-1z M69,42h1v1h-1z M71,42h1v1h-1z M76,42h1v1h-1z M80,42h1v1h-1z M81,42h1v1h-1z M82,42h1v1h-1z M84,42h1v1h-1z M85,42h1v1h-1z M86,42h1v1h-1z M87,42h1v1h-1z M88,42h1v1h-1z M89,42h1v1h-1z M93,42h1v1h-1z M95,42h1v1h-1z M100,42h1v1h-1z M101,42h1v1h-1z M105,42h1v1h-1z M106,42h1v1h-1z M108,42h1v1h-1z M110,42h1v1h-1z M111,42h1v1h-1z M4,43h1v1h-1z M5,43h1v1h-1z M7,43h1v1h-1z M8,43h1v1h-1z M9,43h1v1h-1z M11,43h1v1h-1z M12,43h1v1h-1z M15,43h1v1h-1z M16,43h1v1h-1z M18,43h1v1h-1z M19,43h1v1h-1z M21,43h1v1h-1z M22,43h1v1h-1z M24,43h1v1h-1z M27,43h1v1h-1z M30,43h1v1h-1z M33,43h1v1h-1z M34,43h1v1h-1z M36,43h1v1h-1z M38,43h1v1h-1z M42,43h1v1h-1z M43,43h1v1h-1z M44,43h1v1h-1z M47,43h1v1h-1z M49,43h1v1h-1z M50,43h1v1h-1z M51,43h1v1h-1z M52,43h1v1h-1z M53,43h1v1h-1z M54,43h1v1h-1z M57,43h1v1h-1z M58,43h1v1h-1z M61,43h1v1h-1z M62,43h1v1h-1z M64,43h1v1h-1z M66,43h1v1h-1z M70,43h1v1h-1z M72,43h1v1h-1z M75,43h1v1h-1z M79,43h1v1h-1z M83,43h1v1h-1z M84,43h1v1h-1z M85,43h1v1h-1z M87,43h1v1h-1z M89,43h1v1h-1z M93,43h1v1h-1z M94,43h1v1h-1z M96,43h1v1h-1z M103,43h1v1h-1z M106,43h1v1h-1z M107,43h1v1h-1z M108,43h1v1h-1z M110,43h1v1h-1z M111,43h1v1h-1z M8,44h1v1h-1z M10,44h1v1h-1z M13,44h1v1h-1z M14,44h1v1h-1z M18,44h1v1h-1z M19,44h1v1h-1z M21,44h1v1h-1z M22,44h1v1h-1z M23,44h1v1h-1z M30,44h1v1h-1z M33,44h1v1h-1z M34,44h1v1h-1z M35,44h1v1h-1z M37,44h1v1h-1z M39,44h1v1h-1z M43,44h1v1h-1z M48,44h1v1h-1z M50,44h1v1h-1z M51,44h1v1h-1z M52,44h1v1h-1z M58,44h1v1h-1z M65,44h1v1h-1z M68,44h1v1h-1z M70,44h1v1h-1z M71,44h1v1h-1z M73,44h1v1h-1z M75,44h1v1h-1z M77,44h1v1h-1z M80,44h1v1h-1z M81,44h1v1h-1z M82,44h1v1h-1z M83,44h1v1h-1z M85,44h1v1h-1z M86,44h1v1h-1z M87,44h1v1h-1z M89,44h1v1h-1z M91,44h1v1h-1z M93,44h1v1h-1z M94,44h1v1h-1z M95,44h1v1h-1z M97,44h1v1h-1z M98,44h1v1h-1z M101,44h1v1h-1z M103,44h1v1h-1z M104,44h1v1h-1z M105,44h1v1h-1z M106,44h1v1h-1z M107,44h1v1h-1z M108,44h1v1h-1z M109,44h1v1h-1z M110,44h1v1h-1z M111,44h1v1h-1z M3,45h1v1h-1z M6,45h1v1h-1z M8,45h1v1h-1z M9,45h1v1h-1z M10,45h1v1h-1z M14,45h1v1h-1z M15,45h1v1h-1z M16,45h1v1h-1z M17,45h1v1h-1z M18,45h1v1h-1z M20,45h1v1h-1z M21,45h1v1h-1z M22,45h1v1h-1z M23,45h1v1h-1z M31,45h1v1h-1z M35,45h1v1h-1z M37,45h1v1h-1z M38,45h1v1h-1z M39,45h1v1h-1z M40,45h1v1h-1z M41,45h1v1h-1z M42,45h1v1h-1z M43,45h1v1h-1z M46,45h1v1h-1z M47,45h1v1h-1z M48,45h1v1h-1z M49,45h1v1h-1z M50,45h1v1h-1z M51,45h1v1h-1z M52,45h1v1h-1z M53,45h1v1h-1z M56,45h1v1h-1z M57,45h1v1h-1z M58,45h1v1h-1z M62,45h1v1h-1z M66,45h1v1h-1z M67,45h1v1h-1z M71,45h1v1h-1z M72,45h1v1h-1z M73,45h1v1h-1z M74,45h1v1h-1z M76,45h1v1h-1z M77,45h1v1h-1z M78,45h1v1h-1z M79,45h1v1h-1z M80,45h1v1h-1z M82,45h1v1h-1z M85,45h1v1h-1z M88,45h1v1h-1z M89,45h1v1h-1z M90,45h1v1h-1z M92,45h1v1h-1z M95,45h1v1h-1z M97,45h1v1h-1z M99,45h1v1h-1z M100,45h1v1h-1z M101,45h1v1h-1z M102,45h1v1h-1z M103,45h1v1h-1z M104,45h1v1h-1z M105,45h1v1h-1z M106,45h1v1h-1z M109,45h1v1h-1z M4,46h1v1h-1z M5,46h1v1h-1z M10,46h1v1h-1z M12,46h1v1h-1z M13,46h1v1h-1z M16,46h1v1h-1z M17,46h1v1h-1z M18,46h1v1h-1z M20,46h1v1h-1z M21,46h1v1h-1z M23,46h1v1h-1z M25,46h1v1h-1z M26,46h1v1h-1z M27,46h1v1h-1z M30,46h1v1h-1z M31,46h1v1h-1z M36,46h1v1h-1z M37,46h1v1h-1z M38,46h1v1h-1z M40,46h1v1h-1z M42,46h1v1h-1z M43,46h1v1h-1z M44,46h1v1h-1z M45,46h1v1h-1z M49,46h1v1h-1z M50,46h1v1h-1z M52,46h1v1h-1z M53,46h1v1h-1z M55,46h1v1h-1z M57,46h1v1h-1z M62,46h1v1h-1z M63,46h1v1h-1z M64,46h1v1h-1z M65,46h1v1h-1z M67,46h1v1h-1z M69,46h1v1h-1z M75,46h1v1h-1z M76,46h1v1h-1z M81,46h1v1h-1z M83,46h1v1h-1z M84,46h1v1h-1z M85,46h1v1h-1z M86,46h1v1h-1z M87,46h1v1h-1z M92,46h1v1h-1z M95,46h1v1h-1z M96,46h1v1h-1z M97,46h1v1h-1z M99,46h1v1h-1z M101,46h1v1h-1z M106,46h1v1h-1z M108,46h1v1h-1z M109,46h1v1h-1z M3,47h1v1h-1z M5,47h1v1h-1z M6,47h1v1h-1z M7,47h1v1h-1z M8,47h1v1h-1z M9,47h1v1h-1z M11,47h1v1h-1z M12,47h1v1h-1z M14,47h1v1h-1z M15,47h1v1h-1z M16,47h1v1h-1z M18,47h1v1h-1z M19,47h1v1h-1z M21,47h1v1h-1z M27,47h1v1h-1z M30,47h1v1h-1z M31,47h1v1h-1z M33,47h1v1h-1z M40,47h1v1h-1z M42,47h1v1h-1z M45,47h1v1h-1z M46,47h1v1h-1z M47,47h1v1h-1z M48,47h1v1h-1z M49,47h1v1h-1z M54,47h1v1h-1z M56,47h1v1h-1z M58,47h1v1h-1z M60,47h1v1h-1z M63,47h1v1h-1z M64,47h1v1h-1z M67,47h1v1h-1z M69,47h1v1h-1z M73,47h1v1h-1z M77,47h1v1h-1z M78,47h1v1h-1z M79,47h1v1h-1z M80,47h1v1h-1z M84,47h1v1h-1z M86,47h1v1h-1z M87,47h1v1h-1z M90,47h1v1h-1z M93,47h1v1h-1z M99,47h1v1h-1z M101,47h1v1h-1z M104,47h1v1h-1z M111,47h1v1h-1z M3,48h1v1h-1z M4,48h1v1h-1z M5,48h1v1h-1z M6,48h1v1h-1z M7,48h1v1h-1z M11,48h1v1h-1z M14,48h1v1h-1z M15,48h1v1h-1z M21,48h1v1h-1z M22,48h1v1h-1z M23,48h1v1h-1z M25,48h1v1h-1z M27,48h1v1h-1z M30,48h1v1h-1z M31,48h1v1h-1z M32,48h1v1h-1z M33,48h1v1h-1z M34,48h1v1h-1z M35,48h1v1h-1z M37,48h1v1h-1z M38,48h1v1h-1z M42,48h1v1h-1z M44,48h1v1h-1z M45,48h1v1h-1z M46,48h1v1h-1z M48,48h1v1h-1z M49,48h1v1h-1z M50,48h1v1h-1z M52,48h1v1h-1z M54,48h1v1h-1z M55,48h1v1h-1z M57,48h1v1h-1z M58,48h1v1h-1z M59,48h1v1h-1z M61,48h1v1h-1z M65,48h1v1h-1z M66,48h1v1h-1z M67,48h1v1h-1z M68,48h1v1h-1z M69,48h1v1h-1z M72,48h1v1h-1z M73,48h1v1h-1z M74,48h1v1h-1z M75,48h1v1h-1z M76,48h1v1h-1z M78,48h1v1h-1z M82,48h1v1h-1z M85,48h1v1h-1z M86,48h1v1h-1z M88,48h1v1h-1z M89,48h1v1h-1z M90,48h1v1h-1z M93,48h1v1h-1z M95,48h1v1h-1z M101,48h1v1h-1z M102,48h1v1h-1z M104,48h1v1h-1z M105,48h1v1h-1z M107,48h1v1h-1z M109,48h1v1h-1z M3,49h1v1h-1z M4,49h1v1h-1z M5,49h1v1h-1z M7,49h1v1h-1z M9,49h1v1h-1z M11,49h1v1h-1z M12,49h1v1h-1z M14,49h1v1h-1z M15,49h1v1h-1z M17,49h1v1h-1z M26,49h1v1h-1z M31,49h1v1h-1z M33,49h1v1h-1z M34,49h1v1h-1z M35,49h1v1h-1z M39,49h1v1h-1z M41,49h1v1h-1z M43,49h1v1h-1z M44,49h1v1h-1z M47,49h1v1h-1z M48,49h1v1h-1z M49,49h1v1h-1z M52,49h1v1h-1z M53,49h1v1h-1z M56,49h1v1h-1z M57,49h1v1h-1z M59,49h1v1h-1z M60,49h1v1h-1z M62,49h1v1h-1z M63,49h1v1h-1z M68,49h1v1h-1z M69,49h1v1h-1z M70,49h1v1h-1z M71,49h1v1h-1z M73,49h1v1h-1z M74,49h1v1h-1z M75,49h1v1h-1z M76,49h1v1h-1z M78,49h1v1h-1z M84,49h1v1h-1z M86,49h1v1h-1z M87,49h1v1h-1z M89,49h1v1h-1z M90,49h1v1h-1z M91,49h1v1h-1z M92,49h1v1h-1z M93,49h1v1h-1z M94,49h1v1h-1z M95,49h1v1h-1z M96,49h1v1h-1z M97,49h1v1h-1z M99,49h1v1h-1z M100,49h1v1h-1z M102,49h1v1h-1z M103,49h1v1h-1z M104,49h1v1h-1z M106,49h1v1h-1z M107,49h1v1h-1z M108,49h1v1h-1z M110,49h1v1h-1z M111,49h1v1h-1z M3,50h1v1h-1z M7,50h1v1h-1z M14,50h1v1h-1z M19,50h1v1h-1z M21,50h1v1h-1z M23,50h1v1h-1z M26,50h1v1h-1z M28,50h1v1h-1z M31,50h1v1h-1z M33,50h1v1h-1z M34,50h1v1h-1z M35,50h1v1h-1z M38,50h1v1h-1z M39,50h1v1h-1z M40,50h1v1h-1z M41,50h1v1h-1z M43,50h1v1h-1z M45,50h1v1h-1z M46,50h1v1h-1z M50,50h1v1h-1z M52,50h1v1h-1z M53,50h1v1h-1z M56,50h1v1h-1z M57,50h1v1h-1z M59,50h1v1h-1z M62,50h1v1h-1z M63,50h1v1h-1z M66,50h1v1h-1z M67,50h1v1h-1z M68,50h1v1h-1z M69,50h1v1h-1z M70,50h1v1h-1z M71,50h1v1h-1z M72,50h1v1h-1z M74,50h1v1h-1z M75,50h1v1h-1z M77,50h1v1h-1z M78,50h1v1h-1z M79,50h1v1h-1z M82,50h1v1h-1z M83,50h1v1h-1z M84,50h1v1h-1z M85,50h1v1h-1z M88,50h1v1h-1z M90,50h1v1h-1z M92,50h1v1h-1z M93,50h1v1h-1z M96,50h1v1h-1z M98,50h1v1h-1z M99,50h1v1h-1z M100,50h1v1h-1z M102,50h1v1h-1z M103,50h1v1h-1z M105,50h1v1h-1z M106,50h1v1h-1z M107,50h1v1h-1z M108,50h1v1h-1z M110,50h1v1h-1z M5,51h1v1h-1z M6,51h1v1h-1z M9,51h1v1h-1z M11,51h1v1h-1z M13,51h1v1h-1z M17,51h1v1h-1z M18,51h1v1h-1z M19,51h1v1h-1z M20,51h1v1h-1z M22,51h1v1h-1z M23,51h1v1h-1z M24,51h1v1h-1z M26,51h1v1h-1z M28,51h1v1h-1z M30,51h1v1h-1z M34,51h1v1h-1z M36,51h1v1h-1z M38,51h1v1h-1z M39,51h1v1h-1z M41,51h1v1h-1z M42,51h1v1h-1z M44,51h1v1h-1z M45,51h1v1h-1z M47,51h1v1h-1z M48,51h1v1h-1z M50,51h1v1h-1z M51,51h1v1h-1z M52,51h1v1h-1z M53,51h1v1h-1z M55,51h1v1h-1z M56,51h1v1h-1z M57,51h1v1h-1z M58,51h1v1h-1z M59,51h1v1h-1z M60,51h1v1h-1z M61,51h1v1h-1z M63,51h1v1h-1z M67,51h1v1h-1z M69,51h1v1h-1z M73,51h1v1h-1z M74,51h1v1h-1z M75,51h1v1h-1z M76,51h1v1h-1z M79,51h1v1h-1z M80,51h1v1h-1z M82,51h1v1h-1z M83,51h1v1h-1z M84,51h1v1h-1z M85,51h1v1h-1z M86,51h1v1h-1z M88,51h1v1h-1z M90,51h1v1h-1z M92,51h1v1h-1z M94,51h1v1h-1z M96,51h1v1h-1z M100,51h1v1h-1z M101,51h1v1h-1z M104,51h1v1h-1z M107,51h1v1h-1z M108,51h1v1h-1z M109,51h1v1h-1z M5,52h1v1h-1z M6,52h1v1h-1z M8,52h1v1h-1z M11,52h1v1h-1z M12,52h1v1h-1z M14,52h1v1h-1z M15,52h1v1h-1z M17,52h1v1h-1z M20,52h1v1h-1z M24,52h1v1h-1z M25,52h1v1h-1z M27,52h1v1h-1z M28,52h1v1h-1z M31,52h1v1h-1z M34,52h1v1h-1z M36,52h1v1h-1z M39,52h1v1h-1z M41,52h1v1h-1z M43,52h1v1h-1z M44,52h1v1h-1z M45,52h1v1h-1z M46,52h1v1h-1z M47,52h1v1h-1z M50,52h1v1h-1z M51,52h1v1h-1z M52,52h1v1h-1z M54,52h1v1h-1z M55,52h1v1h-1z M58,52h1v1h-1z M60,52h1v1h-1z M63,52h1v1h-1z M64,52h1v1h-1z M65,52h1v1h-1z M68,52h1v1h-1z M69,52h1v1h-1z M72,52h1v1h-1z M75,52h1v1h-1z M78,52h1v1h-1z M81,52h1v1h-1z M82,52h1v1h-1z M85,52h1v1h-1z M86,52h1v1h-1z M90,52h1v1h-1z M92,52h1v1h-1z M94,52h1v1h-1z M104,52h1v1h-1z M105,52h1v1h-1z M106,52h1v1h-1z M107,52h1v1h-1z M4,53h1v1h-1z M7,53h1v1h-1z M8,53h1v1h-1z M9,53h1v1h-1z M10,53h1v1h-1z M11,53h1v1h-1z M12,53h1v1h-1z M13,53h1v1h-1z M14,53h1v1h-1z M17,53h1v1h-1z M21,53h1v1h-1z M22,53h1v1h-1z M29,53h1v1h-1z M31,53h1v1h-1z M32,53h1v1h-1z M35,53h1v1h-1z M36,53h1v1h-1z M37,53h1v1h-1z M38,53h1v1h-1z M40,53h1v1h-1z M42,53h1v1h-1z M43,53h1v1h-1z M45,53h1v1h-1z M51,53h1v1h-1z M55,53h1v1h-1z M57,53h1v1h-1z M59,53h1v1h-1z M61,53h1v1h-1z M64,53h1v1h-1z M70,53h1v1h-1z M72,53h1v1h-1z M73,53h1v1h-1z M79,53h1v1h-1z M81,53h1v1h-1z M82,53h1v1h-1z M87,53h1v1h-1z M89,53h1v1h-1z M90,53h1v1h-1z M93,53h1v1h-1z M94,53h1v1h-1z M95,53h1v1h-1z M96,53h1v1h-1z M97,53h1v1h-1z M98,53h1v1h-1z M99,53h1v1h-1z M100,53h1v1h-1z M102,53h1v1h-1z M103,53h1v1h-1z M106,53h1v1h-1z M107,53h1v1h-1z M108,53h1v1h-1z M109,53h1v1h-1z M3,54h1v1h-1z M4,54h1v1h-1z M11,54h1v1h-1z M13,54h1v1h-1z M19,54h1v1h-1z M22,54h1v1h-1z M24,54h1v1h-1z M25,54h1v1h-1z M27,54h1v1h-1z M28,54h1v1h-1z M31,54h1v1h-1z M34,54h1v1h-1z M35,54h1v1h-1z M36,54h1v1h-1z M37,54h1v1h-1z M41,54h1v1h-1z M43,54h1v1h-1z M46,54h1v1h-1z M47,54h1v1h-1z M48,54h1v1h-1z M49,54h1v1h-1z M50,54h1v1h-1z M54,54h1v1h-1z M55,54h1v1h-1z M56,54h1v1h-1z M58,54h1v1h-1z M59,54h1v1h-1z M62,54h1v1h-1z M65,54h1v1h-1z M69,54h1v1h-1z M71,54h1v1h-1z M73,54h1v1h-1z M79,54h1v1h-1z M80,54h1v1h-1z M82,54h1v1h-1z M83,54h1v1h-1z M84,54h1v1h-1z M85,54h1v1h-1z M86,54h1v1h-1z M87,54h1v1h-1z M88,54h1v1h-1z M89,54h1v1h-1z M93,54h1v1h-1z M94,54h1v1h-1z M98,54h1v1h-1z M101,54h1v1h-1z M103,54h1v1h-1z M104,54h1v1h-1z M105,54h1v1h-1z M106,54h1v1h-1z M107,54h1v1h-1z M109,54h1v1h-1z M110,54h1v1h-1z M3,55h1v1h-1z M4,55h1v1h-1z M7,55h1v1h-1z M8,55h1v1h-1z M9,55h1v1h-1z M10,55h1v1h-1z M11,55h1v1h-1z M15,55h1v1h-1z M16,55h1v1h-1z M17,55h1v1h-1z M18,55h1v1h-1z M19,55h1v1h-1z M22,55h1v1h-1z M24,55h1v1h-1z M27,55h1v1h-1z M29,55h1v1h-1z M30,55h1v1h-1z M31,55h1v1h-1z M32,55h1v1h-1z M33,55h1v1h-1z M34,55h1v1h-1z M35,55h1v1h-1z M37,55h1v1h-1z M38,55h1v1h-1z M39,55h1v1h-1z M41,55h1v1h-1z M45,55h1v1h-1z M51,55h1v1h-1z M52,55h1v1h-1z M53,55h1v1h-1z M54,55h1v1h-1z M55,55h1v1h-1z M56,55h1v1h-1z M57,55h1v1h-1z M58,55h1v1h-1z M59,55h1v1h-1z M61,55h1v1h-1z M62,55h1v1h-1z M63,55h1v1h-1z M65,55h1v1h-1z M66,55h1v1h-1z M67,55h1v1h-1z M69,55h1v1h-1z M70,55h1v1h-1z M73,55h1v1h-1z M76,55h1v1h-1z M78,55h1v1h-1z M79,55h1v1h-1z M80,55h1v1h-1z M81,55h1v1h-1z M82,55h1v1h-1z M83,55h1v1h-1z M86,55h1v1h-1z M88,55h1v1h-1z M96,55h1v1h-1z M97,55h1v1h-1z M98,55h1v1h-1z M99,55h1v1h-1z M100,55h1v1h-1z M102,55h1v1h-1z M103,55h1v1h-1z M104,55h1v1h-1z M105,55h1v1h-1z M106,55h1v1h-1z M107,55h1v1h-1z M109,55h1v1h-1z M111,55h1v1h-1z M4,56h1v1h-1z M6,56h1v1h-1z M7,56h1v1h-1z M11,56h1v1h-1z M12,56h1v1h-1z M13,56h1v1h-1z M15,56h1v1h-1z M18,56h1v1h-1z M20,56h1v1h-1z M24,56h1v1h-1z M25,56h1v1h-1z M26,56h1v1h-1z M28,56h1v1h-1z M30,56h1v1h-1z M31,56h1v1h-1z M35,56h1v1h-1z M37,56h1v1h-1z M38,56h1v1h-1z M39,56h1v1h-1z M41,56h1v1h-1z M42,56h1v1h-1z M44,56h1v1h-1z M46,56h1v1h-1z M48,56h1v1h-1z M50,56h1v1h-1z M54,56h1v1h-1z M55,56h1v1h-1z M59,56h1v1h-1z M60,56h1v1h-1z M61,56h1v1h-1z M63,56h1v1h-1z M65,56h1v1h-1z M66,56h1v1h-1z M67,56h1v1h-1z M68,56h1v1h-1z M70,56h1v1h-1z M72,56h1v1h-1z M73,56h1v1h-1z M74,56h1v1h-1z M75,56h1v1h-1z M76,56h1v1h-1z M77,56h1v1h-1z M79,56h1v1h-1z M83,56h1v1h-1z M85,56h1v1h-1z M86,56h1v1h-1z M87,56h1v1h-1z M89,56h1v1h-1z M90,56h1v1h-1z M92,56h1v1h-1z M98,56h1v1h-1z M99,56h1v1h-1z M100,56h1v1h-1z M103,56h1v1h-1z M107,56h1v1h-1z M110,56h1v1h-1z M3,57h1v1h-1z M4,57h1v1h-1z M5,57h1v1h-1z M7,57h1v1h-1z M9,57h1v1h-1z M11,57h1v1h-1z M12,57h1v1h-1z M13,57h1v1h-1z M14,57h1v1h-1z M17,57h1v1h-1z M20,57h1v1h-1z M22,57h1v1h-1z M23,57h1v1h-1z M26,57h1v1h-1z M27,57h1v1h-1z M28,57h1v1h-1z M29,57h1v1h-1z M30,57h1v1h-1z M31,57h1v1h-1z M33,57h1v1h-1z M35,57h1v1h-1z M36,57h1v1h-1z M37,57h1v1h-1z M43,57h1v1h-1z M45,57h1v1h-1z M46,57h1v1h-1z M47,57h1v1h-1z M48,57h1v1h-1z M49,57h1v1h-1z M50,57h1v1h-1z M51,57h1v1h-1z M52,57h1v1h-1z M54,57h1v1h-1z M55,57h1v1h-1z M57,57h1v1h-1z M59,57h1v1h-1z M61,57h1v1h-1z M64,57h1v1h-1z M65,57h1v1h-1z M66,57h1v1h-1z M67,57h1v1h-1z M69,57h1v1h-1z M72,57h1v1h-1z M73,57h1v1h-1z M75,57h1v1h-1z M77,57h1v1h-1z M79,57h1v1h-1z M81,57h1v1h-1z M83,57h1v1h-1z M85,57h1v1h-1z M86,57h1v1h-1z M87,57h1v1h-1z M89,57h1v1h-1z M90,57h1v1h-1z M91,57h1v1h-1z M93,57h1v1h-1z M94,57h1v1h-1z M95,57h1v1h-1z M97,57h1v1h-1z M98,57h1v1h-1z M101,57h1v1h-1z M102,57h1v1h-1z M103,57h1v1h-1z M105,57h1v1h-1z M107,57h1v1h-1z M3,58h1v1h-1z M4,58h1v1h-1z M5,58h1v1h-1z M6,58h1v1h-1z M7,58h1v1h-1z M11,58h1v1h-1z M12,58h1v1h-1z M14,58h1v1h-1z M18,58h1v1h-1z M21,58h1v1h-1z M22,58h1v1h-1z M26,58h1v1h-1z M29,58h1v1h-1z M30,58h1v1h-1z M31,58h1v1h-1z M35,58h1v1h-1z M36,58h1v1h-1z M39,58h1v1h-1z M40,58h1v1h-1z M43,58h1v1h-1z M44,58h1v1h-1z M45,58h1v1h-1z M52,58h1v1h-1z M53,58h1v1h-1z M55,58h1v1h-1z M59,58h1v1h-1z M61,58h1v1h-1z M62,58h1v1h-1z M63,58h1v1h-1z M64,58h1v1h-1z M65,58h1v1h-1z M67,58h1v1h-1z M68,58h1v1h-1z M69,58h1v1h-1z M70,58h1v1h-1z M72,58h1v1h-1z M73,58h1v1h-1z M75,58h1v1h-1z M76,58h1v1h-1z M77,58h1v1h-1z M78,58h1v1h-1z M79,58h1v1h-1z M83,58h1v1h-1z M87,58h1v1h-1z M89,58h1v1h-1z M90,58h1v1h-1z M91,58h1v1h-1z M93,58h1v1h-1z M94,58h1v1h-1z M99,58h1v1h-1z M100,58h1v1h-1z M102,58h1v1h-1z M103,58h1v1h-1z M107,58h1v1h-1z M110,58h1v1h-1z M3,59h1v1h-1z M6,59h1v1h-1z M7,59h1v1h-1z M8,59h1v1h-1z M9,59h1v1h-1z M10,59h1v1h-1z M11,59h1v1h-1z M12,59h1v1h-1z M14,59h1v1h-1z M15,59h1v1h-1z M16,59h1v1h-1z M17,59h1v1h-1z M23,59h1v1h-1z M24,59h1v1h-1z M28,59h1v1h-1z M30,59h1v1h-1z M31,59h1v1h-1z M32,59h1v1h-1z M33,59h1v1h-1z M34,59h1v1h-1z M35,59h1v1h-1z M36,59h1v1h-1z M40,59h1v1h-1z M42,59h1v1h-1z M43,59h1v1h-1z M48,59h1v1h-1z M50,59h1v1h-1z M54,59h1v1h-1z M55,59h1v1h-1z M56,59h1v1h-1z M57,59h1v1h-1z M58,59h1v1h-1z M59,59h1v1h-1z M60,59h1v1h-1z M61,59h1v1h-1z M63,59h1v1h-1z M65,59h1v1h-1z M67,59h1v1h-1z M69,59h1v1h-1z M71,59h1v1h-1z M72,59h1v1h-1z M73,59h1v1h-1z M74,59h1v1h-1z M76,59h1v1h-1z M78,59h1v1h-1z M79,59h1v1h-1z M80,59h1v1h-1z M81,59h1v1h-1z M82,59h1v1h-1z M83,59h1v1h-1z M87,59h1v1h-1z M90,59h1v1h-1z M91,59h1v1h-1z M93,59h1v1h-1z M95,59h1v1h-1z M97,59h1v1h-1z M98,59h1v1h-1z M99,59h1v1h-1z M100,59h1v1h-1z M101,59h1v1h-1z M103,59h1v1h-1z M104,59h1v1h-1z M105,59h1v1h-1z M106,59h1v1h-1z M107,59h1v1h-1z M109,59h1v1h-1z M110,59h1v1h-1z M111,59h1v1h-1z M4,60h1v1h-1z M5,60h1v1h-1z M7,60h1v1h-1z M12,60h1v1h-1z M14,60h1v1h-1z M15,60h1v1h-1z M16,60h1v1h-1z M19,60h1v1h-1z M23,60h1v1h-1z M24,60h1v1h-1z M25,60h1v1h-1z M26,60h1v1h-1z M28,60h1v1h-1z M29,60h1v1h-1z M30,60h1v1h-1z M31,60h1v1h-1z M33,60h1v1h-1z M35,60h1v1h-1z M37,60h1v1h-1z M38,60h1v1h-1z M39,60h1v1h-1z M40,60h1v1h-1z M44,60h1v1h-1z M45,60h1v1h-1z M47,60h1v1h-1z M49,60h1v1h-1z M50,60h1v1h-1z M51,60h1v1h-1z M55,60h1v1h-1z M56,60h1v1h-1z M57,60h1v1h-1z M59,60h1v1h-1z M61,60h1v1h-1z M63,60h1v1h-1z M64,60h1v1h-1z M66,60h1v1h-1z M67,60h1v1h-1z M68,60h1v1h-1z M69,60h1v1h-1z M73,60h1v1h-1z M76,60h1v1h-1z M77,60h1v1h-1z M78,60h1v1h-1z M79,60h1v1h-1z M82,60h1v1h-1z M85,60h1v1h-1z M86,60h1v1h-1z M87,60h1v1h-1z M91,60h1v1h-1z M92,60h1v1h-1z M93,60h1v1h-1z M96,60h1v1h-1z M97,60h1v1h-1z M99,60h1v1h-1z M100,60h1v1h-1z M101,60h1v1h-1z M104,60h1v1h-1z M105,60h1v1h-1z M106,60h1v1h-1z M107,60h1v1h-1z M108,60h1v1h-1z M109,60h1v1h-1z M110,60h1v1h-1z M5,61h1v1h-1z M6,61h1v1h-1z M8,61h1v1h-1z M9,61h1v1h-1z M11,61h1v1h-1z M12,61h1v1h-1z M14,61h1v1h-1z M15,61h1v1h-1z M16,61h1v1h-1z M24,61h1v1h-1z M26,61h1v1h-1z M28,61h1v1h-1z M30,61h1v1h-1z M31,61h1v1h-1z M35,61h1v1h-1z M36,61h1v1h-1z M38,61h1v1h-1z M41,61h1v1h-1z M42,61h1v1h-1z M43,61h1v1h-1z M44,61h1v1h-1z M45,61h1v1h-1z M46,61h1v1h-1z M47,61h1v1h-1z M48,61h1v1h-1z M49,61h1v1h-1z M50,61h1v1h-1z M52,61h1v1h-1z M54,61h1v1h-1z M58,61h1v1h-1z M59,61h1v1h-1z M60,61h1v1h-1z M61,61h1v1h-1z M63,61h1v1h-1z M66,61h1v1h-1z M68,61h1v1h-1z M69,61h1v1h-1z M71,61h1v1h-1z M72,61h1v1h-1z M73,61h1v1h-1z M75,61h1v1h-1z M76,61h1v1h-1z M77,61h1v1h-1z M78,61h1v1h-1z M79,61h1v1h-1z M83,61h1v1h-1z M84,61h1v1h-1z M87,61h1v1h-1z M90,61h1v1h-1z M94,61h1v1h-1z M96,61h1v1h-1z M97,61h1v1h-1z M98,61h1v1h-1z M99,61h1v1h-1z M101,61h1v1h-1z M104,61h1v1h-1z M107,61h1v1h-1z M108,61h1v1h-1z M109,61h1v1h-1z M111,61h1v1h-1z M4,62h1v1h-1z M7,62h1v1h-1z M8,62h1v1h-1z M10,62h1v1h-1z M14,62h1v1h-1z M15,62h1v1h-1z M17,62h1v1h-1z M19,62h1v1h-1z M20,62h1v1h-1z M21,62h1v1h-1z M22,62h1v1h-1z M27,62h1v1h-1z M28,62h1v1h-1z M31,62h1v1h-1z M32,62h1v1h-1z M33,62h1v1h-1z M34,62h1v1h-1z M35,62h1v1h-1z M36,62h1v1h-1z M39,62h1v1h-1z M43,62h1v1h-1z M45,62h1v1h-1z M46,62h1v1h-1z M49,62h1v1h-1z M53,62h1v1h-1z M55,62h1v1h-1z M57,62h1v1h-1z M60,62h1v1h-1z M62,62h1v1h-1z M63,62h1v1h-1z M66,62h1v1h-1z M68,62h1v1h-1z M71,62h1v1h-1z M73,62h1v1h-1z M75,62h1v1h-1z M77,62h1v1h-1z M78,62h1v1h-1z M79,62h1v1h-1z M81,62h1v1h-1z M84,62h1v1h-1z M88,62h1v1h-1z M89,62h1v1h-1z M93,62h1v1h-1z M94,62h1v1h-1z M97,62h1v1h-1z M98,62h1v1h-1z M100,62h1v1h-1z M103,62h1v1h-1z M107,62h1v1h-1z M4,63h1v1h-1z M5,63h1v1h-1z M7,63h1v1h-1z M9,63h1v1h-1z M10,63h1v1h-1z M11,63h1v1h-1z M13,63h1v1h-1z M14,63h1v1h-1z M15,63h1v1h-1z M16,63h1v1h-1z M21,63h1v1h-1z M22,63h1v1h-1z M25,63h1v1h-1z M26,63h1v1h-1z M27,63h1v1h-1z M30,63h1v1h-1z M32,63h1v1h-1z M33,63h1v1h-1z M35,63h1v1h-1z M36,63h1v1h-1z M37,63h1v1h-1z M38,63h1v1h-1z M39,63h1v1h-1z M40,63h1v1h-1z M41,63h1v1h-1z M48,63h1v1h-1z M52,63h1v1h-1z M53,63h1v1h-1z M57,63h1v1h-1z M58,63h1v1h-1z M61,63h1v1h-1z M62,63h1v1h-1z M64,63h1v1h-1z M65,63h1v1h-1z M67,63h1v1h-1z M69,63h1v1h-1z M71,63h1v1h-1z M72,63h1v1h-1z M73,63h1v1h-1z M74,63h1v1h-1z M75,63h1v1h-1z M78,63h1v1h-1z M80,63h1v1h-1z M81,63h1v1h-1z M82,63h1v1h-1z M83,63h1v1h-1z M88,63h1v1h-1z M89,63h1v1h-1z M90,63h1v1h-1z M95,63h1v1h-1z M97,63h1v1h-1z M99,63h1v1h-1z M100,63h1v1h-1z M101,63h1v1h-1z M102,63h1v1h-1z M103,63h1v1h-1z M104,63h1v1h-1z M105,63h1v1h-1z M107,63h1v1h-1z M4,64h1v1h-1z M7,64h1v1h-1z M8,64h1v1h-1z M12,64h1v1h-1z M13,64h1v1h-1z M14,64h1v1h-1z M15,64h1v1h-1z M16,64h1v1h-1z M19,64h1v1h-1z M20,64h1v1h-1z M21,64h1v1h-1z M23,64h1v1h-1z M24,64h1v1h-1z M28,64h1v1h-1z M29,64h1v1h-1z M33,64h1v1h-1z M34,64h1v1h-1z M35,64h1v1h-1z M37,64h1v1h-1z M38,64h1v1h-1z M41,64h1v1h-1z M45,64h1v1h-1z M46,64h1v1h-1z M48,64h1v1h-1z M50,64h1v1h-1z M51,64h1v1h-1z M53,64h1v1h-1z M54,64h1v1h-1z M56,64h1v1h-1z M57,64h1v1h-1z M58,64h1v1h-1z M60,64h1v1h-1z M61,64h1v1h-1z M65,64h1v1h-1z M70,64h1v1h-1z M71,64h1v1h-1z M72,64h1v1h-1z M76,64h1v1h-1z M79,64h1v1h-1z M83,64h1v1h-1z M86,64h1v1h-1z M88,64h1v1h-1z M89,64h1v1h-1z M91,64h1v1h-1z M93,64h1v1h-1z M95,64h1v1h-1z M97,64h1v1h-1z M100,64h1v1h-1z M101,64h1v1h-1z M104,64h1v1h-1z M105,64h1v1h-1z M106,64h1v1h-1z M107,64h1v1h-1z M3,65h1v1h-1z M5,65h1v1h-1z M6,65h1v1h-1z M8,65h1v1h-1z M9,65h1v1h-1z M10,65h1v1h-1z M12,65h1v1h-1z M14,65h1v1h-1z M17,65h1v1h-1z M19,65h1v1h-1z M20,65h1v1h-1z M23,65h1v1h-1z M24,65h1v1h-1z M27,65h1v1h-1z M29,65h1v1h-1z M32,65h1v1h-1z M34,65h1v1h-1z M35,65h1v1h-1z M36,65h1v1h-1z M39,65h1v1h-1z M40,65h1v1h-1z M42,65h1v1h-1z M43,65h1v1h-1z M45,65h1v1h-1z M48,65h1v1h-1z M51,65h1v1h-1z M53,65h1v1h-1z M55,65h1v1h-1z M56,65h1v1h-1z M57,65h1v1h-1z M58,65h1v1h-1z M59,65h1v1h-1z M60,65h1v1h-1z M61,65h1v1h-1z M67,65h1v1h-1z M68,65h1v1h-1z M69,65h1v1h-1z M70,65h1v1h-1z M71,65h1v1h-1z M74,65h1v1h-1z M75,65h1v1h-1z M77,65h1v1h-1z M82,65h1v1h-1z M84,65h1v1h-1z M86,65h1v1h-1z M89,65h1v1h-1z M91,65h1v1h-1z M92,65h1v1h-1z M93,65h1v1h-1z M97,65h1v1h-1z M98,65h1v1h-1z M104,65h1v1h-1z M107,65h1v1h-1z M108,65h1v1h-1z M109,65h1v1h-1z M110,65h1v1h-1z M111,65h1v1h-1z M6,66h1v1h-1z M8,66h1v1h-1z M11,66h1v1h-1z M17,66h1v1h-1z M18,66h1v1h-1z M26,66h1v1h-1z M27,66h1v1h-1z M28,66h1v1h-1z M32,66h1v1h-1z M33,66h1v1h-1z M35,66h1v1h-1z M36,66h1v1h-1z M38,66h1v1h-1z M40,66h1v1h-1z M42,66h1v1h-1z M43,66h1v1h-1z M46,66h1v1h-1z M48,66h1v1h-1z M53,66h1v1h-1z M54,66h1v1h-1z M56,66h1v1h-1z M57,66h1v1h-1z M60,66h1v1h-1z M61,66h1v1h-1z M62,66h1v1h-1z M63,66h1v1h-1z M66,66h1v1h-1z M69,66h1v1h-1z M72,66h1v1h-1z M73,66h1v1h-1z M77,66h1v1h-1z M81,66h1v1h-1z M83,66h1v1h-1z M84,66h1v1h-1z M86,66h1v1h-1z M87,66h1v1h-1z M89,66h1v1h-1z M90,66h1v1h-1z M91,66h1v1h-1z M93,66h1v1h-1z M99,66h1v1h-1z M103,66h1v1h-1z M104,66h1v1h-1z M105,66h1v1h-1z M107,66h1v1h-1z M109,66h1v1h-1z M3,67h1v1h-1z M4,67h1v1h-1z M5,67h1v1h-1z M8,67h1v1h-1z M9,67h1v1h-1z M10,67h1v1h-1z M11,67h1v1h-1z M12,67h1v1h-1z M14,67h1v1h-1z M15,67h1v1h-1z M16,67h1v1h-1z M18,67h1v1h-1z M21,67h1v1h-1z M22,67h1v1h-1z M23,67h1v1h-1z M25,67h1v1h-1z M28,67h1v1h-1z M31,67h1v1h-1z M32,67h1v1h-1z M33,67h1v1h-1z M34,67h1v1h-1z M36,67h1v1h-1z M41,67h1v1h-1z M43,67h1v1h-1z M44,67h1v1h-1z M45,67h1v1h-1z M47,67h1v1h-1z M48,67h1v1h-1z M51,67h1v1h-1z M53,67h1v1h-1z M54,67h1v1h-1z M57,67h1v1h-1z M59,67h1v1h-1z M60,67h1v1h-1z M61,67h1v1h-1z M63,67h1v1h-1z M69,67h1v1h-1z M71,67h1v1h-1z M73,67h1v1h-1z M74,67h1v1h-1z M75,67h1v1h-1z M77,67h1v1h-1z M78,67h1v1h-1z M81,67h1v1h-1z M82,67h1v1h-1z M83,67h1v1h-1z M85,67h1v1h-1z M86,67h1v1h-1z M87,67h1v1h-1z M89,67h1v1h-1z M93,67h1v1h-1z M94,67h1v1h-1z M99,67h1v1h-1z M101,67h1v1h-1z M102,67h1v1h-1z M104,67h1v1h-1z M107,67h1v1h-1z M108,67h1v1h-1z M110,67h1v1h-1z M4,68h1v1h-1z M6,68h1v1h-1z M10,68h1v1h-1z M12,68h1v1h-1z M15,68h1v1h-1z M16,68h1v1h-1z M19,68h1v1h-1z M23,68h1v1h-1z M24,68h1v1h-1z M25,68h1v1h-1z M27,68h1v1h-1z M30,68h1v1h-1z M34,68h1v1h-1z M36,68h1v1h-1z M37,68h1v1h-1z M38,68h1v1h-1z M39,68h1v1h-1z M40,68h1v1h-1z M43,68h1v1h-1z M45,68h1v1h-1z M46,68h1v1h-1z M47,68h1v1h-1z M48,68h1v1h-1z M49,68h1v1h-1z M50,68h1v1h-1z M51,68h1v1h-1z M52,68h1v1h-1z M55,68h1v1h-1z M57,68h1v1h-1z M58,68h1v1h-1z M59,68h1v1h-1z M63,68h1v1h-1z M64,68h1v1h-1z M65,68h1v1h-1z M73,68h1v1h-1z M75,68h1v1h-1z M76,68h1v1h-1z M77,68h1v1h-1z M85,68h1v1h-1z M88,68h1v1h-1z M89,68h1v1h-1z M90,68h1v1h-1z M93,68h1v1h-1z M96,68h1v1h-1z M97,68h1v1h-1z M98,68h1v1h-1z M99,68h1v1h-1z M101,68h1v1h-1z M103,68h1v1h-1z M104,68h1v1h-1z M106,68h1v1h-1z M107,68h1v1h-1z M110,68h1v1h-1z M111,68h1v1h-1z M3,69h1v1h-1z M4,69h1v1h-1z M6,69h1v1h-1z M8,69h1v1h-1z M9,69h1v1h-1z M15,69h1v1h-1z M16,69h1v1h-1z M18,69h1v1h-1z M21,69h1v1h-1z M22,69h1v1h-1z M24,69h1v1h-1z M26,69h1v1h-1z M27,69h1v1h-1z M28,69h1v1h-1z M30,69h1v1h-1z M35,69h1v1h-1z M36,69h1v1h-1z M37,69h1v1h-1z M38,69h1v1h-1z M40,69h1v1h-1z M41,69h1v1h-1z M44,69h1v1h-1z M45,69h1v1h-1z M47,69h1v1h-1z M48,69h1v1h-1z M49,69h1v1h-1z M50,69h1v1h-1z M52,69h1v1h-1z M53,69h1v1h-1z M56,69h1v1h-1z M63,69h1v1h-1z M65,69h1v1h-1z M67,69h1v1h-1z M68,69h1v1h-1z M71,69h1v1h-1z M73,69h1v1h-1z M75,69h1v1h-1z M76,69h1v1h-1z M78,69h1v1h-1z M79,69h1v1h-1z M80,69h1v1h-1z M81,69h1v1h-1z M82,69h1v1h-1z M84,69h1v1h-1z M85,69h1v1h-1z M86,69h1v1h-1z M88,69h1v1h-1z M92,69h1v1h-1z M94,69h1v1h-1z M97,69h1v1h-1z M98,69h1v1h-1z M100,69h1v1h-1z M104,69h1v1h-1z M105,69h1v1h-1z M107,69h1v1h-1z M109,69h1v1h-1z M110,69h1v1h-1z M5,70h1v1h-1z M7,70h1v1h-1z M8,70h1v1h-1z M11,70h1v1h-1z M12,70h1v1h-1z M14,70h1v1h-1z M15,70h1v1h-1z M18,70h1v1h-1z M21,70h1v1h-1z M22,70h1v1h-1z M23,70h1v1h-1z M26,70h1v1h-1z M27,70h1v1h-1z M28,70h1v1h-1z M29,70h1v1h-1z M34,70h1v1h-1z M36,70h1v1h-1z M38,70h1v1h-1z M41,70h1v1h-1z M42,70h1v1h-1z M43,70h1v1h-1z M44,70h1v1h-1z M45,70h1v1h-1z M46,70h1v1h-1z M47,70h1v1h-1z M48,70h1v1h-1z M53,70h1v1h-1z M55,70h1v1h-1z M56,70h1v1h-1z M58,70h1v1h-1z M59,70h1v1h-1z M60,70h1v1h-1z M63,70h1v1h-1z M68,70h1v1h-1z M70,70h1v1h-1z M71,70h1v1h-1z M74,70h1v1h-1z M79,70h1v1h-1z M80,70h1v1h-1z M82,70h1v1h-1z M83,70h1v1h-1z M84,70h1v1h-1z M85,70h1v1h-1z M88,70h1v1h-1z M94,70h1v1h-1z M99,70h1v1h-1z M101,70h1v1h-1z M102,70h1v1h-1z M103,70h1v1h-1z M104,70h1v1h-1z M105,70h1v1h-1z M108,70h1v1h-1z M110,70h1v1h-1z M3,71h1v1h-1z M4,71h1v1h-1z M7,71h1v1h-1z M9,71h1v1h-1z M11,71h1v1h-1z M13,71h1v1h-1z M15,71h1v1h-1z M19,71h1v1h-1z M20,71h1v1h-1z M21,71h1v1h-1z M22,71h1v1h-1z M23,71h1v1h-1z M25,71h1v1h-1z M27,71h1v1h-1z M28,71h1v1h-1z M29,71h1v1h-1z M30,71h1v1h-1z M32,71h1v1h-1z M37,71h1v1h-1z M43,71h1v1h-1z M46,71h1v1h-1z M49,71h1v1h-1z M52,71h1v1h-1z M53,71h1v1h-1z M54,71h1v1h-1z M56,71h1v1h-1z M57,71h1v1h-1z M58,71h1v1h-1z M59,71h1v1h-1z M60,71h1v1h-1z M61,71h1v1h-1z M62,71h1v1h-1z M63,71h1v1h-1z M67,71h1v1h-1z M69,71h1v1h-1z M72,71h1v1h-1z M73,71h1v1h-1z M76,71h1v1h-1z M78,71h1v1h-1z M79,71h1v1h-1z M81,71h1v1h-1z M85,71h1v1h-1z M86,71h1v1h-1z M87,71h1v1h-1z M88,71h1v1h-1z M89,71h1v1h-1z M90,71h1v1h-1z M91,71h1v1h-1z M94,71h1v1h-1z M95,71h1v1h-1z M97,71h1v1h-1z M98,71h1v1h-1z M99,71h1v1h-1z M100,71h1v1h-1z M101,71h1v1h-1z M102,71h1v1h-1z M103,71h1v1h-1z M105,71h1v1h-1z M107,71h1v1h-1z M109,71h1v1h-1z M110,71h1v1h-1z M3,72h1v1h-1z M5,72h1v1h-1z M8,72h1v1h-1z M14,72h1v1h-1z M18,72h1v1h-1z M20,72h1v1h-1z M22,72h1v1h-1z M24,72h1v1h-1z M25,72h1v1h-1z M29,72h1v1h-1z M33,72h1v1h-1z M35,72h1v1h-1z M36,72h1v1h-1z M42,72h1v1h-1z M43,72h1v1h-1z M45,72h1v1h-1z M48,72h1v1h-1z M51,72h1v1h-1z M52,72h1v1h-1z M55,72h1v1h-1z M57,72h1v1h-1z M59,72h1v1h-1z M60,72h1v1h-1z M63,72h1v1h-1z M67,72h1v1h-1z M69,72h1v1h-1z M71,72h1v1h-1z M75,72h1v1h-1z M78,72h1v1h-1z M79,72h1v1h-1z M80,72h1v1h-1z M83,72h1v1h-1z M87,72h1v1h-1z M91,72h1v1h-1z M93,72h1v1h-1z M95,72h1v1h-1z M96,72h1v1h-1z M97,72h1v1h-1z M98,72h1v1h-1z M99,72h1v1h-1z M101,72h1v1h-1z M104,72h1v1h-1z M105,72h1v1h-1z M106,72h1v1h-1z M107,72h1v1h-1z M108,72h1v1h-1z M109,72h1v1h-1z M110,72h1v1h-1z M3,73h1v1h-1z M4,73h1v1h-1z M5,73h1v1h-1z M8,73h1v1h-1z M9,73h1v1h-1z M12,73h1v1h-1z M13,73h1v1h-1z M15,73h1v1h-1z M16,73h1v1h-1z M17,73h1v1h-1z M18,73h1v1h-1z M20,73h1v1h-1z M21,73h1v1h-1z M22,73h1v1h-1z M24,73h1v1h-1z M25,73h1v1h-1z M26,73h1v1h-1z M27,73h1v1h-1z M28,73h1v1h-1z M29,73h1v1h-1z M30,73h1v1h-1z M31,73h1v1h-1z M32,73h1v1h-1z M34,73h1v1h-1z M35,73h1v1h-1z M38,73h1v1h-1z M41,73h1v1h-1z M42,73h1v1h-1z M43,73h1v1h-1z M44,73h1v1h-1z M46,73h1v1h-1z M47,73h1v1h-1z M49,73h1v1h-1z M52,73h1v1h-1z M53,73h1v1h-1z M54,73h1v1h-1z M56,73h1v1h-1z M58,73h1v1h-1z M59,73h1v1h-1z M60,73h1v1h-1z M61,73h1v1h-1z M62,73h1v1h-1z M63,73h1v1h-1z M65,73h1v1h-1z M67,73h1v1h-1z M68,73h1v1h-1z M69,73h1v1h-1z M71,73h1v1h-1z M72,73h1v1h-1z M73,73h1v1h-1z M75,73h1v1h-1z M76,73h1v1h-1z M85,73h1v1h-1z M87,73h1v1h-1z M90,73h1v1h-1z M92,73h1v1h-1z M94,73h1v1h-1z M96,73h1v1h-1z M97,73h1v1h-1z M101,73h1v1h-1z M102,73h1v1h-1z M103,73h1v1h-1z M107,73h1v1h-1z M110,73h1v1h-1z M111,73h1v1h-1z M3,74h1v1h-1z M4,74h1v1h-1z M6,74h1v1h-1z M8,74h1v1h-1z M17,74h1v1h-1z M21,74h1v1h-1z M22,74h1v1h-1z M23,74h1v1h-1z M24,74h1v1h-1z M26,74h1v1h-1z M30,74h1v1h-1z M31,74h1v1h-1z M32,74h1v1h-1z M33,74h1v1h-1z M36,74h1v1h-1z M43,74h1v1h-1z M44,74h1v1h-1z M45,74h1v1h-1z M46,74h1v1h-1z M47,74h1v1h-1z M48,74h1v1h-1z M50,74h1v1h-1z M51,74h1v1h-1z M53,74h1v1h-1z M55,74h1v1h-1z M56,74h1v1h-1z M63,74h1v1h-1z M66,74h1v1h-1z M67,74h1v1h-1z M68,74h1v1h-1z M76,74h1v1h-1z M77,74h1v1h-1z M78,74h1v1h-1z M79,74h1v1h-1z M81,74h1v1h-1z M83,74h1v1h-1z M90,74h1v1h-1z M91,74h1v1h-1z M93,74h1v1h-1z M96,74h1v1h-1z M99,74h1v1h-1z M101,74h1v1h-1z M104,74h1v1h-1z M105,74h1v1h-1z M106,74h1v1h-1z M110,74h1v1h-1z M3,75h1v1h-1z M5,75h1v1h-1z M7,75h1v1h-1z M8,75h1v1h-1z M9,75h1v1h-1z M10,75h1v1h-1z M11,75h1v1h-1z M12,75h1v1h-1z M15,75h1v1h-1z M17,75h1v1h-1z M18,75h1v1h-1z M19,75h1v1h-1z M22,75h1v1h-1z M24,75h1v1h-1z M27,75h1v1h-1z M28,75h1v1h-1z M31,75h1v1h-1z M32,75h1v1h-1z M33,75h1v1h-1z M38,75h1v1h-1z M41,75h1v1h-1z M42,75h1v1h-1z M43,75h1v1h-1z M44,75h1v1h-1z M47,75h1v1h-1z M49,75h1v1h-1z M53,75h1v1h-1z M54,75h1v1h-1z M58,75h1v1h-1z M59,75h1v1h-1z M60,75h1v1h-1z M63,75h1v1h-1z M65,75h1v1h-1z M66,75h1v1h-1z M72,75h1v1h-1z M73,75h1v1h-1z M80,75h1v1h-1z M82,75h1v1h-1z M83,75h1v1h-1z M84,75h1v1h-1z M86,75h1v1h-1z M87,75h1v1h-1z M88,75h1v1h-1z M89,75h1v1h-1z M90,75h1v1h-1z M91,75h1v1h-1z M95,75h1v1h-1z M96,75h1v1h-1z M99,75h1v1h-1z M100,75h1v1h-1z M101,75h1v1h-1z M102,75h1v1h-1z M103,75h1v1h-1z M104,75h1v1h-1z M105,75h1v1h-1z M106,75h1v1h-1z M107,75h1v1h-1z M108,75h1v1h-1z M110,75h1v1h-1z M3,76h1v1h-1z M6,76h1v1h-1z M8,76h1v1h-1z M11,76h1v1h-1z M12,76h1v1h-1z M13,76h1v1h-1z M14,76h1v1h-1z M15,76h1v1h-1z M18,76h1v1h-1z M21,76h1v1h-1z M22,76h1v1h-1z M26,76h1v1h-1z M27,76h1v1h-1z M28,76h1v1h-1z M30,76h1v1h-1z M31,76h1v1h-1z M32,76h1v1h-1z M35,76h1v1h-1z M39,76h1v1h-1z M42,76h1v1h-1z M43,76h1v1h-1z M44,76h1v1h-1z M48,76h1v1h-1z M50,76h1v1h-1z M51,76h1v1h-1z M52,76h1v1h-1z M53,76h1v1h-1z M54,76h1v1h-1z M55,76h1v1h-1z M57,76h1v1h-1z M61,76h1v1h-1z M62,76h1v1h-1z M68,76h1v1h-1z M73,76h1v1h-1z M76,76h1v1h-1z M78,76h1v1h-1z M79,76h1v1h-1z M80,76h1v1h-1z M83,76h1v1h-1z M85,76h1v1h-1z M86,76h1v1h-1z M88,76h1v1h-1z M89,76h1v1h-1z M92,76h1v1h-1z M94,76h1v1h-1z M95,76h1v1h-1z M96,76h1v1h-1z M97,76h1v1h-1z M98,76h1v1h-1z M99,76h1v1h-1z M100,76h1v1h-1z M102,76h1v1h-1z M103,76h1v1h-1z M105,76h1v1h-1z M108,76h1v1h-1z M109,76h1v1h-1z M111,76h1v1h-1z M3,77h1v1h-1z M6,77h1v1h-1z M9,77h1v1h-1z M12,77h1v1h-1z M15,77h1v1h-1z M18,77h1v1h-1z M19,77h1v1h-1z M20,77h1v1h-1z M21,77h1v1h-1z M26,77h1v1h-1z M27,77h1v1h-1z M28,77h1v1h-1z M29,77h1v1h-1z M30,77h1v1h-1z M32,77h1v1h-1z M34,77h1v1h-1z M35,77h1v1h-1z M36,77h1v1h-1z M37,77h1v1h-1z M38,77h1v1h-1z M39,77h1v1h-1z M40,77h1v1h-1z M43,77h1v1h-1z M44,77h1v1h-1z M45,77h1v1h-1z M47,77h1v1h-1z M51,77h1v1h-1z M53,77h1v1h-1z M54,77h1v1h-1z M55,77h1v1h-1z M56,77h1v1h-1z M57,77h1v1h-1z M61,77h1v1h-1z M67,77h1v1h-1z M71,77h1v1h-1z M72,77h1v1h-1z M74,77h1v1h-1z M77,77h1v1h-1z M78,77h1v1h-1z M79,77h1v1h-1z M80,77h1v1h-1z M81,77h1v1h-1z M83,77h1v1h-1z M88,77h1v1h-1z M93,77h1v1h-1z M94,77h1v1h-1z M95,77h1v1h-1z M97,77h1v1h-1z M100,77h1v1h-1z M103,77h1v1h-1z M104,77h1v1h-1z M105,77h1v1h-1z M106,77h1v1h-1z M107,77h1v1h-1z M109,77h1v1h-1z M10,78h1v1h-1z M13,78h1v1h-1z M18,78h1v1h-1z M19,78h1v1h-1z M20,78h1v1h-1z M22,78h1v1h-1z M24,78h1v1h-1z M25,78h1v1h-1z M27,78h1v1h-1z M32,78h1v1h-1z M35,78h1v1h-1z M37,78h1v1h-1z M38,78h1v1h-1z M40,78h1v1h-1z M41,78h1v1h-1z M43,78h1v1h-1z M44,78h1v1h-1z M45,78h1v1h-1z M46,78h1v1h-1z M47,78h1v1h-1z M51,78h1v1h-1z M53,78h1v1h-1z M54,78h1v1h-1z M56,78h1v1h-1z M58,78h1v1h-1z M59,78h1v1h-1z M62,78h1v1h-1z M64,78h1v1h-1z M65,78h1v1h-1z M69,78h1v1h-1z M70,78h1v1h-1z M71,78h1v1h-1z M72,78h1v1h-1z M74,78h1v1h-1z M76,78h1v1h-1z M78,78h1v1h-1z M79,78h1v1h-1z M80,78h1v1h-1z M81,78h1v1h-1z M83,78h1v1h-1z M84,78h1v1h-1z M88,78h1v1h-1z M89,78h1v1h-1z M90,78h1v1h-1z M91,78h1v1h-1z M95,78h1v1h-1z M97,78h1v1h-1z M99,78h1v1h-1z M103,78h1v1h-1z M104,78h1v1h-1z M105,78h1v1h-1z M107,78h1v1h-1z M110,78h1v1h-1z M3,79h1v1h-1z M5,79h1v1h-1z M7,79h1v1h-1z M8,79h1v1h-1z M9,79h1v1h-1z M10,79h1v1h-1z M11,79h1v1h-1z M12,79h1v1h-1z M14,79h1v1h-1z M15,79h1v1h-1z M17,79h1v1h-1z M19,79h1v1h-1z M20,79h1v1h-1z M21,79h1v1h-1z M22,79h1v1h-1z M23,79h1v1h-1z M26,79h1v1h-1z M30,79h1v1h-1z M31,79h1v1h-1z M32,79h1v1h-1z M33,79h1v1h-1z M34,79h1v1h-1z M35,79h1v1h-1z M37,79h1v1h-1z M41,79h1v1h-1z M43,79h1v1h-1z M44,79h1v1h-1z M45,79h1v1h-1z M49,79h1v1h-1z M50,79h1v1h-1z M51,79h1v1h-1z M53,79h1v1h-1z M55,79h1v1h-1z M56,79h1v1h-1z M57,79h1v1h-1z M58,79h1v1h-1z M59,79h1v1h-1z M60,79h1v1h-1z M62,79h1v1h-1z M65,79h1v1h-1z M66,79h1v1h-1z M67,79h1v1h-1z M68,79h1v1h-1z M69,79h1v1h-1z M72,79h1v1h-1z M76,79h1v1h-1z M77,79h1v1h-1z M78,79h1v1h-1z M79,79h1v1h-1z M80,79h1v1h-1z M81,79h1v1h-1z M82,79h1v1h-1z M83,79h1v1h-1z M85,79h1v1h-1z M87,79h1v1h-1z M88,79h1v1h-1z M89,79h1v1h-1z M90,79h1v1h-1z M93,79h1v1h-1z M95,79h1v1h-1z M98,79h1v1h-1z M99,79h1v1h-1z M101,79h1v1h-1z M102,79h1v1h-1z M103,79h1v1h-1z M104,79h1v1h-1z M105,79h1v1h-1z M106,79h1v1h-1z M107,79h1v1h-1z M108,79h1v1h-1z M109,79h1v1h-1z M111,79h1v1h-1z M3,80h1v1h-1z M4,80h1v1h-1z M5,80h1v1h-1z M7,80h1v1h-1z M11,80h1v1h-1z M13,80h1v1h-1z M14,80h1v1h-1z M15,80h1v1h-1z M16,80h1v1h-1z M17,80h1v1h-1z M18,80h1v1h-1z M23,80h1v1h-1z M25,80h1v1h-1z M27,80h1v1h-1z M30,80h1v1h-1z M31,80h1v1h-1z M35,80h1v1h-1z M39,80h1v1h-1z M40,80h1v1h-1z M42,80h1v1h-1z M44,80h1v1h-1z M48,80h1v1h-1z M55,80h1v1h-1z M59,80h1v1h-1z M60,80h1v1h-1z M61,80h1v1h-1z M63,80h1v1h-1z M64,80h1v1h-1z M67,80h1v1h-1z M69,80h1v1h-1z M71,80h1v1h-1z M73,80h1v1h-1z M75,80h1v1h-1z M79,80h1v1h-1z M83,80h1v1h-1z M84,80h1v1h-1z M85,80h1v1h-1z M87,80h1v1h-1z M88,80h1v1h-1z M90,80h1v1h-1z M91,80h1v1h-1z M93,80h1v1h-1z M96,80h1v1h-1z M97,80h1v1h-1z M99,80h1v1h-1z M101,80h1v1h-1z M102,80h1v1h-1z M103,80h1v1h-1z M107,80h1v1h-1z M108,80h1v1h-1z M109,80h1v1h-1z M3,81h1v1h-1z M4,81h1v1h-1z M5,81h1v1h-1z M7,81h1v1h-1z M9,81h1v1h-1z M11,81h1v1h-1z M12,81h1v1h-1z M13,81h1v1h-1z M14,81h1v1h-1z M16,81h1v1h-1z M18,81h1v1h-1z M21,81h1v1h-1z M23,81h1v1h-1z M25,81h1v1h-1z M26,81h1v1h-1z M27,81h1v1h-1z M31,81h1v1h-1z M33,81h1v1h-1z M35,81h1v1h-1z M39,81h1v1h-1z M43,81h1v1h-1z M47,81h1v1h-1z M48,81h1v1h-1z M49,81h1v1h-1z M51,81h1v1h-1z M52,81h1v1h-1z M54,81h1v1h-1z M55,81h1v1h-1z M57,81h1v1h-1z M59,81h1v1h-1z M60,81h1v1h-1z M61,81h1v1h-1z M62,81h1v1h-1z M64,81h1v1h-1z M65,81h1v1h-1z M68,81h1v1h-1z M69,81h1v1h-1z M70,81h1v1h-1z M71,81h1v1h-1z M72,81h1v1h-1z M73,81h1v1h-1z M77,81h1v1h-1z M79,81h1v1h-1z M81,81h1v1h-1z M83,81h1v1h-1z M85,81h1v1h-1z M86,81h1v1h-1z M87,81h1v1h-1z M88,81h1v1h-1z M89,81h1v1h-1z M90,81h1v1h-1z M91,81h1v1h-1z M94,81h1v1h-1z M96,81h1v1h-1z M97,81h1v1h-1z M99,81h1v1h-1z M102,81h1v1h-1z M103,81h1v1h-1z M105,81h1v1h-1z M107,81h1v1h-1z M109,81h1v1h-1z M111,81h1v1h-1z M4,82h1v1h-1z M5,82h1v1h-1z M6,82h1v1h-1z M7,82h1v1h-1z M11,82h1v1h-1z M13,82h1v1h-1z M14,82h1v1h-1z M15,82h1v1h-1z M18,82h1v1h-1z M19,82h1v1h-1z M22,82h1v1h-1z M23,82h1v1h-1z M27,82h1v1h-1z M28,82h1v1h-1z M30,82h1v1h-1z M31,82h1v1h-1z M35,82h1v1h-1z M36,82h1v1h-1z M39,82h1v1h-1z M46,82h1v1h-1z M47,82h1v1h-1z M49,82h1v1h-1z M51,82h1v1h-1z M55,82h1v1h-1z M59,82h1v1h-1z M60,82h1v1h-1z M65,82h1v1h-1z M66,82h1v1h-1z M68,82h1v1h-1z M69,82h1v1h-1z M70,82h1v1h-1z M74,82h1v1h-1z M75,82h1v1h-1z M79,82h1v1h-1z M83,82h1v1h-1z M85,82h1v1h-1z M86,82h1v1h-1z M88,82h1v1h-1z M95,82h1v1h-1z M96,82h1v1h-1z M98,82h1v1h-1z M103,82h1v1h-1z M107,82h1v1h-1z M109,82h1v1h-1z M110,82h1v1h-1z M111,82h1v1h-1z M3,83h1v1h-1z M5,83h1v1h-1z M6,83h1v1h-1z M7,83h1v1h-1z M8,83h1v1h-1z M9,83h1v1h-1z M10,83h1v1h-1z M11,83h1v1h-1z M12,83h1v1h-1z M13,83h1v1h-1z M14,83h1v1h-1z M16,83h1v1h-1z M19,83h1v1h-1z M20,83h1v1h-1z M21,83h1v1h-1z M23,83h1v1h-1z M24,83h1v1h-1z M25,83h1v1h-1z M26,83h1v1h-1z M28,83h1v1h-1z M29,83h1v1h-1z M30,83h1v1h-1z M31,83h1v1h-1z M32,83h1v1h-1z M33,83h1v1h-1z M34,83h1v1h-1z M35,83h1v1h-1z M36,83h1v1h-1z M37,83h1v1h-1z M38,83h1v1h-1z M39,83h1v1h-1z M43,83h1v1h-1z M45,83h1v1h-1z M50,83h1v1h-1z M51,83h1v1h-1z M52,83h1v1h-1z M55,83h1v1h-1z M56,83h1v1h-1z M57,83h1v1h-1z M58,83h1v1h-1z M59,83h1v1h-1z M61,83h1v1h-1z M62,83h1v1h-1z M65,83h1v1h-1z M70,83h1v1h-1z M71,83h1v1h-1z M72,83h1v1h-1z M74,83h1v1h-1z M75,83h1v1h-1z M76,83h1v1h-1z M77,83h1v1h-1z M79,83h1v1h-1z M80,83h1v1h-1z M81,83h1v1h-1z M82,83h1v1h-1z M83,83h1v1h-1z M86,83h1v1h-1z M87,83h1v1h-1z M90,83h1v1h-1z M91,83h1v1h-1z M92,83h1v1h-1z M94,83h1v1h-1z M95,83h1v1h-1z M96,83h1v1h-1z M97,83h1v1h-1z M102,83h1v1h-1z M103,83h1v1h-1z M104,83h1v1h-1z M105,83h1v1h-1z M106,83h1v1h-1z M107,83h1v1h-1z M108,83h1v1h-1z M110,83h1v1h-1z M3,84h1v1h-1z M10,84h1v1h-1z M11,84h1v1h-1z M12,84h1v1h-1z M15,84h1v1h-1z M16,84h1v1h-1z M21,84h1v1h-1z M23,84h1v1h-1z M25,84h1v1h-1z M26,84h1v1h-1z M27,84h1v1h-1z M28,84h1v1h-1z M29,84h1v1h-1z M37,84h1v1h-1z M39,84h1v1h-1z M40,84h1v1h-1z M41,84h1v1h-1z M43,84h1v1h-1z M44,84h1v1h-1z M45,84h1v1h-1z M47,84h1v1h-1z M51,84h1v1h-1z M53,84h1v1h-1z M54,84h1v1h-1z M60,84h1v1h-1z M62,84h1v1h-1z M63,84h1v1h-1z M64,84h1v1h-1z M66,84h1v1h-1z M68,84h1v1h-1z M69,84h1v1h-1z M70,84h1v1h-1z M71,84h1v1h-1z M74,84h1v1h-1z M75,84h1v1h-1z M76,84h1v1h-1z M83,84h1v1h-1z M84,84h1v1h-1z M85,84h1v1h-1z M86,84h1v1h-1z M89,84h1v1h-1z M90,84h1v1h-1z M91,84h1v1h-1z M97,84h1v1h-1z M98,84h1v1h-1z M100,84h1v1h-1z M102,84h1v1h-1z M106,84h1v1h-1z M107,84h1v1h-1z M111,84h1v1h-1z M4,85h1v1h-1z M6,85h1v1h-1z M7,85h1v1h-1z M9,85h1v1h-1z M11,85h1v1h-1z M12,85h1v1h-1z M13,85h1v1h-1z M15,85h1v1h-1z M18,85h1v1h-1z M19,85h1v1h-1z M20,85h1v1h-1z M21,85h1v1h-1z M23,85h1v1h-1z M25,85h1v1h-1z M30,85h1v1h-1z M31,85h1v1h-1z M32,85h1v1h-1z M35,85h1v1h-1z M38,85h1v1h-1z M42,85h1v1h-1z M45,85h1v1h-1z M46,85h1v1h-1z M51,85h1v1h-1z M52,85h1v1h-1z M56,85h1v1h-1z M59,85h1v1h-1z M60,85h1v1h-1z M61,85h1v1h-1z M67,85h1v1h-1z M68,85h1v1h-1z M69,85h1v1h-1z M71,85h1v1h-1z M74,85h1v1h-1z M77,85h1v1h-1z M78,85h1v1h-1z M79,85h1v1h-1z M83,85h1v1h-1z M86,85h1v1h-1z M87,85h1v1h-1z M88,85h1v1h-1z M89,85h1v1h-1z M90,85h1v1h-1z M91,85h1v1h-1z M92,85h1v1h-1z M95,85h1v1h-1z M96,85h1v1h-1z M99,85h1v1h-1z M100,85h1v1h-1z M102,85h1v1h-1z M104,85h1v1h-1z M105,85h1v1h-1z M107,85h1v1h-1z M108,85h1v1h-1z M7,86h1v1h-1z M8,86h1v1h-1z M10,86h1v1h-1z M12,86h1v1h-1z M15,86h1v1h-1z M16,86h1v1h-1z M19,86h1v1h-1z M20,86h1v1h-1z M21,86h1v1h-1z M23,86h1v1h-1z M25,86h1v1h-1z M27,86h1v1h-1z M29,86h1v1h-1z M31,86h1v1h-1z M32,86h1v1h-1z M34,86h1v1h-1z M35,86h1v1h-1z M37,86h1v1h-1z M38,86h1v1h-1z M44,86h1v1h-1z M45,86h1v1h-1z M46,86h1v1h-1z M48,86h1v1h-1z M51,86h1v1h-1z M53,86h1v1h-1z M54,86h1v1h-1z M55,86h1v1h-1z M58,86h1v1h-1z M62,86h1v1h-1z M63,86h1v1h-1z M64,86h1v1h-1z M65,86h1v1h-1z M66,86h1v1h-1z M68,86h1v1h-1z M69,86h1v1h-1z M70,86h1v1h-1z M71,86h1v1h-1z M72,86h1v1h-1z M75,86h1v1h-1z M78,86h1v1h-1z M80,86h1v1h-1z M84,86h1v1h-1z M86,86h1v1h-1z M87,86h1v1h-1z M88,86h1v1h-1z M93,86h1v1h-1z M94,86h1v1h-1z M96,86h1v1h-1z M97,86h1v1h-1z M98,86h1v1h-1z M99,86h1v1h-1z M100,86h1v1h-1z M102,86h1v1h-1z M106,86h1v1h-1z M108,86h1v1h-1z M109,86h1v1h-1z M3,87h1v1h-1z M6,87h1v1h-1z M8,87h1v1h-1z M9,87h1v1h-1z M10,87h1v1h-1z M11,87h1v1h-1z M12,87h1v1h-1z M15,87h1v1h-1z M18,87h1v1h-1z M19,87h1v1h-1z M20,87h1v1h-1z M22,87h1v1h-1z M24,87h1v1h-1z M27,87h1v1h-1z M28,87h1v1h-1z M30,87h1v1h-1z M31,87h1v1h-1z M32,87h1v1h-1z M33,87h1v1h-1z M36,87h1v1h-1z M37,87h1v1h-1z M38,87h1v1h-1z M40,87h1v1h-1z M44,87h1v1h-1z M45,87h1v1h-1z M47,87h1v1h-1z M49,87h1v1h-1z M50,87h1v1h-1z M51,87h1v1h-1z M52,87h1v1h-1z M54,87h1v1h-1z M55,87h1v1h-1z M56,87h1v1h-1z M59,87h1v1h-1z M62,87h1v1h-1z M64,87h1v1h-1z M65,87h1v1h-1z M66,87h1v1h-1z M68,87h1v1h-1z M70,87h1v1h-1z M72,87h1v1h-1z M75,87h1v1h-1z M80,87h1v1h-1z M81,87h1v1h-1z M82,87h1v1h-1z M83,87h1v1h-1z M86,87h1v1h-1z M89,87h1v1h-1z M90,87h1v1h-1z M92,87h1v1h-1z M93,87h1v1h-1z M94,87h1v1h-1z M95,87h1v1h-1z M96,87h1v1h-1z M98,87h1v1h-1z M99,87h1v1h-1z M101,87h1v1h-1z M102,87h1v1h-1z M103,87h1v1h-1z M107,87h1v1h-1z M3,88h1v1h-1z M4,88h1v1h-1z M7,88h1v1h-1z M16,88h1v1h-1z M17,88h1v1h-1z M18,88h1v1h-1z M21,88h1v1h-1z M23,88h1v1h-1z M24,88h1v1h-1z M25,88h1v1h-1z M26,88h1v1h-1z M27,88h1v1h-1z M28,88h1v1h-1z M33,88h1v1h-1z M34,88h1v1h-1z M36,88h1v1h-1z M38,88h1v1h-1z M39,88h1v1h-1z M43,88h1v1h-1z M49,88h1v1h-1z M51,88h1v1h-1z M52,88h1v1h-1z M55,88h1v1h-1z M56,88h1v1h-1z M58,88h1v1h-1z M59,88h1v1h-1z M60,88h1v1h-1z M61,88h1v1h-1z M63,88h1v1h-1z M67,88h1v1h-1z M69,88h1v1h-1z M73,88h1v1h-1z M74,88h1v1h-1z M77,88h1v1h-1z M79,88h1v1h-1z M82,88h1v1h-1z M83,88h1v1h-1z M84,88h1v1h-1z M86,88h1v1h-1z M88,88h1v1h-1z M89,88h1v1h-1z M91,88h1v1h-1z M93,88h1v1h-1z M95,88h1v1h-1z M97,88h1v1h-1z M102,88h1v1h-1z M103,88h1v1h-1z M104,88h1v1h-1z M105,88h1v1h-1z M109,88h1v1h-1z M111,88h1v1h-1z M4,89h1v1h-1z M8,89h1v1h-1z M9,89h1v1h-1z M10,89h1v1h-1z M11,89h1v1h-1z M14,89h1v1h-1z M18,89h1v1h-1z M19,89h1v1h-1z M20,89h1v1h-1z M22,89h1v1h-1z M26,89h1v1h-1z M28,89h1v1h-1z M29,89h1v1h-1z M30,89h1v1h-1z M31,89h1v1h-1z M32,89h1v1h-1z M33,89h1v1h-1z M36,89h1v1h-1z M38,89h1v1h-1z M39,89h1v1h-1z M40,89h1v1h-1z M42,89h1v1h-1z M46,89h1v1h-1z M48,89h1v1h-1z M49,89h1v1h-1z M51,89h1v1h-1z M57,89h1v1h-1z M58,89h1v1h-1z M59,89h1v1h-1z M63,89h1v1h-1z M65,89h1v1h-1z M67,89h1v1h-1z M68,89h1v1h-1z M70,89h1v1h-1z M72,89h1v1h-1z M73,89h1v1h-1z M74,89h1v1h-1z M75,89h1v1h-1z M77,89h1v1h-1z M79,89h1v1h-1z M80,89h1v1h-1z M82,89h1v1h-1z M84,89h1v1h-1z M87,89h1v1h-1z M88,89h1v1h-1z M91,89h1v1h-1z M93,89h1v1h-1z M94,89h1v1h-1z M97,89h1v1h-1z M99,89h1v1h-1z M100,89h1v1h-1z M102,89h1v1h-1z M104,89h1v1h-1z M105,89h1v1h-1z M107,89h1v1h-1z M110,89h1v1h-1z M111,89h1v1h-1z M3,90h1v1h-1z M5,90h1v1h-1z M10,90h1v1h-1z M13,90h1v1h-1z M16,90h1v1h-1z M17,90h1v1h-1z M18,90h1v1h-1z M21,90h1v1h-1z M24,90h1v1h-1z M25,90h1v1h-1z M27,90h1v1h-1z M31,90h1v1h-1z M32,90h1v1h-1z M33,90h1v1h-1z M35,90h1v1h-1z M36,90h1v1h-1z M37,90h1v1h-1z M38,90h1v1h-1z M40,90h1v1h-1z M44,90h1v1h-1z M49,90h1v1h-1z M54,90h1v1h-1z M56,90h1v1h-1z M57,90h1v1h-1z M58,90h1v1h-1z M59,90h1v1h-1z M60,90h1v1h-1z M61,90h1v1h-1z M62,90h1v1h-1z M65,90h1v1h-1z M67,90h1v1h-1z M72,90h1v1h-1z M73,90h1v1h-1z M75,90h1v1h-1z M78,90h1v1h-1z M79,90h1v1h-1z M83,90h1v1h-1z M85,90h1v1h-1z M87,90h1v1h-1z M88,90h1v1h-1z M91,90h1v1h-1z M94,90h1v1h-1z M100,90h1v1h-1z M101,90h1v1h-1z M107,90h1v1h-1z M110,90h1v1h-1z M111,90h1v1h-1z M4,91h1v1h-1z M5,91h1v1h-1z M8,91h1v1h-1z M9,91h1v1h-1z M11,91h1v1h-1z M14,91h1v1h-1z M15,91h1v1h-1z M16,91h1v1h-1z M18,91h1v1h-1z M19,91h1v1h-1z M21,91h1v1h-1z M25,91h1v1h-1z M27,91h1v1h-1z M28,91h1v1h-1z M33,91h1v1h-1z M34,91h1v1h-1z M35,91h1v1h-1z M36,91h1v1h-1z M37,91h1v1h-1z M40,91h1v1h-1z M41,91h1v1h-1z M42,91h1v1h-1z M44,91h1v1h-1z M48,91h1v1h-1z M49,91h1v1h-1z M51,91h1v1h-1z M52,91h1v1h-1z M53,91h1v1h-1z M54,91h1v1h-1z M56,91h1v1h-1z M58,91h1v1h-1z M60,91h1v1h-1z M62,91h1v1h-1z M64,91h1v1h-1z M65,91h1v1h-1z M66,91h1v1h-1z M68,91h1v1h-1z M69,91h1v1h-1z M71,91h1v1h-1z M72,91h1v1h-1z M73,91h1v1h-1z M75,91h1v1h-1z M76,91h1v1h-1z M77,91h1v1h-1z M78,91h1v1h-1z M82,91h1v1h-1z M84,91h1v1h-1z M85,91h1v1h-1z M87,91h1v1h-1z M88,91h1v1h-1z M89,91h1v1h-1z M90,91h1v1h-1z M91,91h1v1h-1z M92,91h1v1h-1z M94,91h1v1h-1z M95,91h1v1h-1z M96,91h1v1h-1z M97,91h1v1h-1z M101,91h1v1h-1z M104,91h1v1h-1z M105,91h1v1h-1z M106,91h1v1h-1z M110,91h1v1h-1z M111,91h1v1h-1z M3,92h1v1h-1z M5,92h1v1h-1z M7,92h1v1h-1z M12,92h1v1h-1z M14,92h1v1h-1z M15,92h1v1h-1z M19,92h1v1h-1z M22,92h1v1h-1z M23,92h1v1h-1z M24,92h1v1h-1z M25,92h1v1h-1z M29,92h1v1h-1z M30,92h1v1h-1z M31,92h1v1h-1z M32,92h1v1h-1z M33,92h1v1h-1z M34,92h1v1h-1z M35,92h1v1h-1z M39,92h1v1h-1z M43,92h1v1h-1z M44,92h1v1h-1z M46,92h1v1h-1z M48,92h1v1h-1z M49,92h1v1h-1z M51,92h1v1h-1z M56,92h1v1h-1z M59,92h1v1h-1z M61,92h1v1h-1z M62,92h1v1h-1z M64,92h1v1h-1z M66,92h1v1h-1z M67,92h1v1h-1z M69,92h1v1h-1z M72,92h1v1h-1z M74,92h1v1h-1z M75,92h1v1h-1z M78,92h1v1h-1z M81,92h1v1h-1z M91,92h1v1h-1z M92,92h1v1h-1z M94,92h1v1h-1z M95,92h1v1h-1z M96,92h1v1h-1z M98,92h1v1h-1z M101,92h1v1h-1z M105,92h1v1h-1z M106,92h1v1h-1z M107,92h1v1h-1z M108,92h1v1h-1z M110,92h1v1h-1z M3,93h1v1h-1z M4,93h1v1h-1z M5,93h1v1h-1z M6,93h1v1h-1z M9,93h1v1h-1z M14,93h1v1h-1z M15,93h1v1h-1z M16,93h1v1h-1z M17,93h1v1h-1z M18,93h1v1h-1z M19,93h1v1h-1z M20,93h1v1h-1z M22,93h1v1h-1z M25,93h1v1h-1z M27,93h1v1h-1z M30,93h1v1h-1z M31,93h1v1h-1z M33,93h1v1h-1z M35,93h1v1h-1z M37,93h1v1h-1z M40,93h1v1h-1z M41,93h1v1h-1z M42,93h1v1h-1z M43,93h1v1h-1z M45,93h1v1h-1z M47,93h1v1h-1z M48,93h1v1h-1z M50,93h1v1h-1z M51,93h1v1h-1z M52,93h1v1h-1z M53,93h1v1h-1z M54,93h1v1h-1z M55,93h1v1h-1z M56,93h1v1h-1z M57,93h1v1h-1z M58,93h1v1h-1z M59,93h1v1h-1z M61,93h1v1h-1z M62,93h1v1h-1z M63,93h1v1h-1z M67,93h1v1h-1z M68,93h1v1h-1z M69,93h1v1h-1z M70,93h1v1h-1z M71,93h1v1h-1z M72,93h1v1h-1z M73,93h1v1h-1z M75,93h1v1h-1z M78,93h1v1h-1z M82,93h1v1h-1z M83,93h1v1h-1z M88,93h1v1h-1z M90,93h1v1h-1z M92,93h1v1h-1z M93,93h1v1h-1z M94,93h1v1h-1z M95,93h1v1h-1z M96,93h1v1h-1z M99,93h1v1h-1z M101,93h1v1h-1z M102,93h1v1h-1z M103,93h1v1h-1z M104,93h1v1h-1z M105,93h1v1h-1z M109,93h1v1h-1z M110,93h1v1h-1z M5,94h1v1h-1z M6,94h1v1h-1z M7,94h1v1h-1z M10,94h1v1h-1z M12,94h1v1h-1z M13,94h1v1h-1z M16,94h1v1h-1z M17,94h1v1h-1z M19,94h1v1h-1z M27,94h1v1h-1z M28,94h1v1h-1z M29,94h1v1h-1z M31,94h1v1h-1z M34,94h1v1h-1z M35,94h1v1h-1z M37,94h1v1h-1z M38,94h1v1h-1z M44,94h1v1h-1z M45,94h1v1h-1z M48,94h1v1h-1z M50,94h1v1h-1z M53,94h1v1h-1z M57,94h1v1h-1z M60,94h1v1h-1z M61,94h1v1h-1z M62,94h1v1h-1z M67,94h1v1h-1z M71,94h1v1h-1z M74,94h1v1h-1z M76,94h1v1h-1z M77,94h1v1h-1z M79,94h1v1h-1z M81,94h1v1h-1z M82,94h1v1h-1z M83,94h1v1h-1z M84,94h1v1h-1z M87,94h1v1h-1z M88,94h1v1h-1z M89,94h1v1h-1z M91,94h1v1h-1z M93,94h1v1h-1z M95,94h1v1h-1z M96,94h1v1h-1z M97,94h1v1h-1z M99,94h1v1h-1z M102,94h1v1h-1z M104,94h1v1h-1z M105,94h1v1h-1z M108,94h1v1h-1z M109,94h1v1h-1z M111,94h1v1h-1z M4,95h1v1h-1z M5,95h1v1h-1z M6,95h1v1h-1z M9,95h1v1h-1z M10,95h1v1h-1z M11,95h1v1h-1z M12,95h1v1h-1z M13,95h1v1h-1z M15,95h1v1h-1z M16,95h1v1h-1z M17,95h1v1h-1z M18,95h1v1h-1z M22,95h1v1h-1z M23,95h1v1h-1z M24,95h1v1h-1z M25,95h1v1h-1z M26,95h1v1h-1z M27,95h1v1h-1z M31,95h1v1h-1z M33,95h1v1h-1z M35,95h1v1h-1z M36,95h1v1h-1z M40,95h1v1h-1z M41,95h1v1h-1z M42,95h1v1h-1z M46,95h1v1h-1z M47,95h1v1h-1z M48,95h1v1h-1z M50,95h1v1h-1z M53,95h1v1h-1z M54,95h1v1h-1z M55,95h1v1h-1z M58,95h1v1h-1z M64,95h1v1h-1z M65,95h1v1h-1z M66,95h1v1h-1z M69,95h1v1h-1z M70,95h1v1h-1z M72,95h1v1h-1z M77,95h1v1h-1z M78,95h1v1h-1z M81,95h1v1h-1z M82,95h1v1h-1z M86,95h1v1h-1z M87,95h1v1h-1z M88,95h1v1h-1z M91,95h1v1h-1z M94,95h1v1h-1z M95,95h1v1h-1z M96,95h1v1h-1z M98,95h1v1h-1z M103,95h1v1h-1z M104,95h1v1h-1z M105,95h1v1h-1z M107,95h1v1h-1z M111,95h1v1h-1z M4,96h1v1h-1z M5,96h1v1h-1z M10,96h1v1h-1z M12,96h1v1h-1z M13,96h1v1h-1z M14,96h1v1h-1z M15,96h1v1h-1z M17,96h1v1h-1z M18,96h1v1h-1z M20,96h1v1h-1z M22,96h1v1h-1z M23,96h1v1h-1z M25,96h1v1h-1z M27,96h1v1h-1z M28,96h1v1h-1z M29,96h1v1h-1z M31,96h1v1h-1z M34,96h1v1h-1z M35,96h1v1h-1z M37,96h1v1h-1z M40,96h1v1h-1z M42,96h1v1h-1z M43,96h1v1h-1z M48,96h1v1h-1z M50,96h1v1h-1z M51,96h1v1h-1z M55,96h1v1h-1z M59,96h1v1h-1z M61,96h1v1h-1z M69,96h1v1h-1z M71,96h1v1h-1z M73,96h1v1h-1z M75,96h1v1h-1z M76,96h1v1h-1z M77,96h1v1h-1z M78,96h1v1h-1z M79,96h1v1h-1z M80,96h1v1h-1z M81,96h1v1h-1z M83,96h1v1h-1z M84,96h1v1h-1z M85,96h1v1h-1z M86,96h1v1h-1z M88,96h1v1h-1z M89,96h1v1h-1z M90,96h1v1h-1z M91,96h1v1h-1z M93,96h1v1h-1z M94,96h1v1h-1z M95,96h1v1h-1z M96,96h1v1h-1z M97,96h1v1h-1z M99,96h1v1h-1z M100,96h1v1h-1z M101,96h1v1h-1z M102,96h1v1h-1z M103,96h1v1h-1z M108,96h1v1h-1z M109,96h1v1h-1z M110,96h1v1h-1z M111,96h1v1h-1z M3,97h1v1h-1z M4,97h1v1h-1z M5,97h1v1h-1z M6,97h1v1h-1z M7,97h1v1h-1z M8,97h1v1h-1z M9,97h1v1h-1z M10,97h1v1h-1z M12,97h1v1h-1z M14,97h1v1h-1z M16,97h1v1h-1z M17,97h1v1h-1z M21,97h1v1h-1z M22,97h1v1h-1z M25,97h1v1h-1z M26,97h1v1h-1z M27,97h1v1h-1z M29,97h1v1h-1z M32,97h1v1h-1z M39,97h1v1h-1z M41,97h1v1h-1z M42,97h1v1h-1z M45,97h1v1h-1z M47,97h1v1h-1z M48,97h1v1h-1z M50,97h1v1h-1z M51,97h1v1h-1z M52,97h1v1h-1z M54,97h1v1h-1z M55,97h1v1h-1z M56,97h1v1h-1z M58,97h1v1h-1z M59,97h1v1h-1z M60,97h1v1h-1z M63,97h1v1h-1z M65,97h1v1h-1z M66,97h1v1h-1z M67,97h1v1h-1z M68,97h1v1h-1z M71,97h1v1h-1z M72,97h1v1h-1z M75,97h1v1h-1z M76,97h1v1h-1z M78,97h1v1h-1z M79,97h1v1h-1z M81,97h1v1h-1z M86,97h1v1h-1z M87,97h1v1h-1z M89,97h1v1h-1z M90,97h1v1h-1z M92,97h1v1h-1z M94,97h1v1h-1z M97,97h1v1h-1z M98,97h1v1h-1z M99,97h1v1h-1z M100,97h1v1h-1z M102,97h1v1h-1z M103,97h1v1h-1z M106,97h1v1h-1z M107,97h1v1h-1z M108,97h1v1h-1z M109,97h1v1h-1z M110,97h1v1h-1z M3,98h1v1h-1z M5,98h1v1h-1z M6,98h1v1h-1z M7,98h1v1h-1z M11,98h1v1h-1z M12,98h1v1h-1z M13,98h1v1h-1z M14,98h1v1h-1z M15,98h1v1h-1z M16,98h1v1h-1z M19,98h1v1h-1z M20,98h1v1h-1z M21,98h1v1h-1z M23,98h1v1h-1z M24,98h1v1h-1z M25,98h1v1h-1z M26,98h1v1h-1z M30,98h1v1h-1z M34,98h1v1h-1z M36,98h1v1h-1z M37,98h1v1h-1z M38,98h1v1h-1z M40,98h1v1h-1z M41,98h1v1h-1z M44,98h1v1h-1z M51,98h1v1h-1z M52,98h1v1h-1z M53,98h1v1h-1z M55,98h1v1h-1z M57,98h1v1h-1z M60,98h1v1h-1z M62,98h1v1h-1z M64,98h1v1h-1z M67,98h1v1h-1z M71,98h1v1h-1z M72,98h1v1h-1z M73,98h1v1h-1z M74,98h1v1h-1z M76,98h1v1h-1z M78,98h1v1h-1z M79,98h1v1h-1z M80,98h1v1h-1z M82,98h1v1h-1z M88,98h1v1h-1z M89,98h1v1h-1z M90,98h1v1h-1z M91,98h1v1h-1z M93,98h1v1h-1z M94,98h1v1h-1z M96,98h1v1h-1z M97,98h1v1h-1z M98,98h1v1h-1z M99,98h1v1h-1z M102,98h1v1h-1z M105,98h1v1h-1z M106,98h1v1h-1z M108,98h1v1h-1z M110,98h1v1h-1z M111,98h1v1h-1z M3,99h1v1h-1z M4,99h1v1h-1z M7,99h1v1h-1z M8,99h1v1h-1z M9,99h1v1h-1z M11,99h1v1h-1z M13,99h1v1h-1z M15,99h1v1h-1z M16,99h1v1h-1z M18,99h1v1h-1z M19,99h1v1h-1z M20,99h1v1h-1z M28,99h1v1h-1z M30,99h1v1h-1z M33,99h1v1h-1z M36,99h1v1h-1z M37,99h1v1h-1z M38,99h1v1h-1z M40,99h1v1h-1z M43,99h1v1h-1z M44,99h1v1h-1z M45,99h1v1h-1z M46,99h1v1h-1z M47,99h1v1h-1z M50,99h1v1h-1z M51,99h1v1h-1z M52,99h1v1h-1z M53,99h1v1h-1z M56,99h1v1h-1z M61,99h1v1h-1z M62,99h1v1h-1z M63,99h1v1h-1z M67,99h1v1h-1z M68,99h1v1h-1z M72,99h1v1h-1z M73,99h1v1h-1z M75,99h1v1h-1z M76,99h1v1h-1z M77,99h1v1h-1z M78,99h1v1h-1z M80,99h1v1h-1z M83,99h1v1h-1z M85,99h1v1h-1z M87,99h1v1h-1z M88,99h1v1h-1z M92,99h1v1h-1z M93,99h1v1h-1z M94,99h1v1h-1z M95,99h1v1h-1z M97,99h1v1h-1z M98,99h1v1h-1z M99,99h1v1h-1z M101,99h1v1h-1z M103,99h1v1h-1z M105,99h1v1h-1z M106,99h1v1h-1z M110,99h1v1h-1z M111,99h1v1h-1z M3,100h1v1h-1z M4,100h1v1h-1z M6,100h1v1h-1z M7,100h1v1h-1z M8,100h1v1h-1z M10,100h1v1h-1z M12,100h1v1h-1z M13,100h1v1h-1z M18,100h1v1h-1z M19,100h1v1h-1z M20,100h1v1h-1z M21,100h1v1h-1z M23,100h1v1h-1z M27,100h1v1h-1z M28,100h1v1h-1z M29,100h1v1h-1z M31,100h1v1h-1z M32,100h1v1h-1z M35,100h1v1h-1z M38,100h1v1h-1z M39,100h1v1h-1z M40,100h1v1h-1z M42,100h1v1h-1z M43,100h1v1h-1z M44,100h1v1h-1z M45,100h1v1h-1z M46,100h1v1h-1z M47,100h1v1h-1z M51,100h1v1h-1z M54,100h1v1h-1z M57,100h1v1h-1z M58,100h1v1h-1z M59,100h1v1h-1z M60,100h1v1h-1z M65,100h1v1h-1z M70,100h1v1h-1z M71,100h1v1h-1z M72,100h1v1h-1z M75,100h1v1h-1z M76,100h1v1h-1z M77,100h1v1h-1z M80,100h1v1h-1z M81,100h1v1h-1z M82,100h1v1h-1z M83,100h1v1h-1z M84,100h1v1h-1z M85,100h1v1h-1z M89,100h1v1h-1z M92,100h1v1h-1z M93,100h1v1h-1z M94,100h1v1h-1z M95,100h1v1h-1z M96,100h1v1h-1z M99,100h1v1h-1z M104,100h1v1h-1z M105,100h1v1h-1z M106,100h1v1h-1z M108,100h1v1h-1z M109,100h1v1h-1z M4,101h1v1h-1z M5,101h1v1h-1z M6,101h1v1h-1z M7,101h1v1h-1z M9,101h1v1h-1z M13,101h1v1h-1z M14,101h1v1h-1z M15,101h1v1h-1z M16,101h1v1h-1z M20,101h1v1h-1z M21,101h1v1h-1z M22,101h1v1h-1z M24,101h1v1h-1z M26,101h1v1h-1z M28,101h1v1h-1z M29,101h1v1h-1z M31,101h1v1h-1z M33,101h1v1h-1z M34,101h1v1h-1z M35,101h1v1h-1z M36,101h1v1h-1z M40,101h1v1h-1z M42,101h1v1h-1z M43,101h1v1h-1z M45,101h1v1h-1z M46,101h1v1h-1z M47,101h1v1h-1z M49,101h1v1h-1z M52,101h1v1h-1z M54,101h1v1h-1z M59,101h1v1h-1z M60,101h1v1h-1z M61,101h1v1h-1z M62,101h1v1h-1z M64,101h1v1h-1z M66,101h1v1h-1z M67,101h1v1h-1z M68,101h1v1h-1z M69,101h1v1h-1z M71,101h1v1h-1z M74,101h1v1h-1z M77,101h1v1h-1z M78,101h1v1h-1z M80,101h1v1h-1z M81,101h1v1h-1z M82,101h1v1h-1z M87,101h1v1h-1z M89,101h1v1h-1z M90,101h1v1h-1z M91,101h1v1h-1z M92,101h1v1h-1z M95,101h1v1h-1z M96,101h1v1h-1z M101,101h1v1h-1z M104,101h1v1h-1z M105,101h1v1h-1z M106,101h1v1h-1z M108,101h1v1h-1z M109,101h1v1h-1z M5,102h1v1h-1z M6,102h1v1h-1z M7,102h1v1h-1z M8,102h1v1h-1z M14,102h1v1h-1z M22,102h1v1h-1z M24,102h1v1h-1z M27,102h1v1h-1z M29,102h1v1h-1z M30,102h1v1h-1z M32,102h1v1h-1z M34,102h1v1h-1z M40,102h1v1h-1z M46,102h1v1h-1z M49,102h1v1h-1z M51,102h1v1h-1z M52,102h1v1h-1z M53,102h1v1h-1z M55,102h1v1h-1z M57,102h1v1h-1z M62,102h1v1h-1z M65,102h1v1h-1z M67,102h1v1h-1z M69,102h1v1h-1z M71,102h1v1h-1z M74,102h1v1h-1z M83,102h1v1h-1z M87,102h1v1h-1z M88,102h1v1h-1z M89,102h1v1h-1z M90,102h1v1h-1z M91,102h1v1h-1z M95,102h1v1h-1z M96,102h1v1h-1z M97,102h1v1h-1z M98,102h1v1h-1z M99,102h1v1h-1z M100,102h1v1h-1z M101,102h1v1h-1z M103,102h1v1h-1z M105,102h1v1h-1z M108,102h1v1h-1z M109,102h1v1h-1z M110,102h1v1h-1z M111,102h1v1h-1z M3,103h1v1h-1z M4,103h1v1h-1z M5,103h1v1h-1z M7,103h1v1h-1z M9,103h1v1h-1z M11,103h1v1h-1z M17,103h1v1h-1z M18,103h1v1h-1z M24,103h1v1h-1z M28,103h1v1h-1z M30,103h1v1h-1z M31,103h1v1h-1z M32,103h1v1h-1z M33,103h1v1h-1z M34,103h1v1h-1z M35,103h1v1h-1z M37,103h1v1h-1z M38,103h1v1h-1z M40,103h1v1h-1z M42,103h1v1h-1z M49,103h1v1h-1z M51,103h1v1h-1z M52,103h1v1h-1z M54,103h1v1h-1z M55,103h1v1h-1z M56,103h1v1h-1z M57,103h1v1h-1z M58,103h1v1h-1z M59,103h1v1h-1z M60,103h1v1h-1z M63,103h1v1h-1z M65,103h1v1h-1z M66,103h1v1h-1z M69,103h1v1h-1z M71,103h1v1h-1z M73,103h1v1h-1z M75,103h1v1h-1z M77,103h1v1h-1z M78,103h1v1h-1z M79,103h1v1h-1z M80,103h1v1h-1z M81,103h1v1h-1z M82,103h1v1h-1z M83,103h1v1h-1z M84,103h1v1h-1z M89,103h1v1h-1z M95,103h1v1h-1z M96,103h1v1h-1z M97,103h1v1h-1z M98,103h1v1h-1z M99,103h1v1h-1z M100,103h1v1h-1z M101,103h1v1h-1z M102,103h1v1h-1z M103,103h1v1h-1z M104,103h1v1h-1z M105,103h1v1h-1z M106,103h1v1h-1z M107,103h1v1h-1z M108,103h1v1h-1z M111,103h1v1h-1z M11,104h1v1h-1z M12,104h1v1h-1z M15,104h1v1h-1z M16,104h1v1h-1z M18,104h1v1h-1z M19,104h1v1h-1z M20,104h1v1h-1z M21,104h1v1h-1z M23,104h1v1h-1z M24,104h1v1h-1z M26,104h1v1h-1z M27,104h1v1h-1z M28,104h1v1h-1z M31,104h1v1h-1z M35,104h1v1h-1z M41,104h1v1h-1z M42,104h1v1h-1z M43,104h1v1h-1z M44,104h1v1h-1z M46,104h1v1h-1z M53,104h1v1h-1z M54,104h1v1h-1z M55,104h1v1h-1z M59,104h1v1h-1z M63,104h1v1h-1z M66,104h1v1h-1z M67,104h1v1h-1z M69,104h1v1h-1z M72,104h1v1h-1z M74,104h1v1h-1z M75,104h1v1h-1z M77,104h1v1h-1z M79,104h1v1h-1z M83,104h1v1h-1z M84,104h1v1h-1z M85,104h1v1h-1z M86,104h1v1h-1z M87,104h1v1h-1z M88,104h1v1h-1z M89,104h1v1h-1z M91,104h1v1h-1z M92,104h1v1h-1z M93,104h1v1h-1z M95,104h1v1h-1z M97,104h1v1h-1z M98,104h1v1h-1z M99,104h1v1h-1z M100,104h1v1h-1z M101,104h1v1h-1z M102,104h1v1h-1z M103,104h1v1h-1z M107,104h1v1h-1z M3,105h1v1h-1z M4,105h1v1h-1z M5,105h1v1h-1z M6,105h1v1h-1z M7,105h1v1h-1z M8,105h1v1h-1z M9,105h1v1h-1z M13,105h1v1h-1z M14,105h1v1h-1z M15,105h1v1h-1z M16,105h1v1h-1z M21,105h1v1h-1z M22,105h1v1h-1z M24,105h1v1h-1z M25,105h1v1h-1z M26,105h1v1h-1z M28,105h1v1h-1z M30,105h1v1h-1z M31,105h1v1h-1z M33,105h1v1h-1z M35,105h1v1h-1z M43,105h1v1h-1z M47,105h1v1h-1z M50,105h1v1h-1z M55,105h1v1h-1z M57,105h1v1h-1z M59,105h1v1h-1z M60,105h1v1h-1z M62,105h1v1h-1z M63,105h1v1h-1z M65,105h1v1h-1z M66,105h1v1h-1z M67,105h1v1h-1z M68,105h1v1h-1z M69,105h1v1h-1z M70,105h1v1h-1z M71,105h1v1h-1z M72,105h1v1h-1z M73,105h1v1h-1z M75,105h1v1h-1z M76,105h1v1h-1z M78,105h1v1h-1z M79,105h1v1h-1z M81,105h1v1h-1z M83,105h1v1h-1z M85,105h1v1h-1z M86,105h1v1h-1z M88,105h1v1h-1z M89,105h1v1h-1z M90,105h1v1h-1z M93,105h1v1h-1z M95,105h1v1h-1z M100,105h1v1h-1z M102,105h1v1h-1z M103,105h1v1h-1z M105,105h1v1h-1z M107,105h1v1h-1z M109,105h1v1h-1z M111,105h1v1h-1z M3,106h1v1h-1z M9,106h1v1h-1z M15,106h1v1h-1z M16,106h1v1h-1z M18,106h1v1h-1z M19,106h1v1h-1z M20,106h1v1h-1z M21,106h1v1h-1z M25,106h1v1h-1z M26,106h1v1h-1z M27,106h1v1h-1z M29,106h1v1h-1z M30,106h1v1h-1z M31,106h1v1h-1z M35,106h1v1h-1z M38,106h1v1h-1z M40,106h1v1h-1z M41,106h1v1h-1z M43,106h1v1h-1z M45,106h1v1h-1z M46,106h1v1h-1z M50,106h1v1h-1z M51,106h1v1h-1z M52,106h1v1h-1z M53,106h1v1h-1z M54,106h1v1h-1z M55,106h1v1h-1z M59,106h1v1h-1z M60,106h1v1h-1z M62,106h1v1h-1z M64,106h1v1h-1z M66,106h1v1h-1z M67,106h1v1h-1z M69,106h1v1h-1z M75,106h1v1h-1z M77,106h1v1h-1z M79,106h1v1h-1z M83,106h1v1h-1z M84,106h1v1h-1z M86,106h1v1h-1z M88,106h1v1h-1z M89,106h1v1h-1z M90,106h1v1h-1z M92,106h1v1h-1z M93,106h1v1h-1z M94,106h1v1h-1z M95,106h1v1h-1z M97,106h1v1h-1z M99,106h1v1h-1z M103,106h1v1h-1z M107,106h1v1h-1z M110,106h1v1h-1z M3,107h1v1h-1z M5,107h1v1h-1z M6,107h1v1h-1z M7,107h1v1h-1z M9,107h1v1h-1z M11,107h1v1h-1z M12,107h1v1h-1z M13,107h1v1h-1z M18,107h1v1h-1z M19,107h1v1h-1z M23,107h1v1h-1z M30,107h1v1h-1z M31,107h1v1h-1z M32,107h1v1h-1z M33,107h1v1h-1z M34,107h1v1h-1z M35,107h1v1h-1z M39,107h1v1h-1z M41,107h1v1h-1z M42,107h1v1h-1z M43,107h1v1h-1z M44,107h1v1h-1z M46,107h1v1h-1z M48,107h1v1h-1z M49,107h1v1h-1z M50,107h1v1h-1z M52,107h1v1h-1z M53,107h1v1h-1z M54,107h1v1h-1z M55,107h1v1h-1z M56,107h1v1h-1z M57,107h1v1h-1z M58,107h1v1h-1z M59,107h1v1h-1z M61,107h1v1h-1z M66,107h1v1h-1z M68,107h1v1h-1z M70,107h1v1h-1z M71,107h1v1h-1z M72,107h1v1h-1z M73,107h1v1h-1z M74,107h1v1h-1z M78,107h1v1h-1z M79,107h1v1h-1z M80,107h1v1h-1z M81,107h1v1h-1z M82,107h1v1h-1z M83,107h1v1h-1z M84,107h1v1h-1z M87,107h1v1h-1z M88,107h1v1h-1z M89,107h1v1h-1z M91,107h1v1h-1z M92,107h1v1h-1z M99,107h1v1h-1z M100,107h1v1h-1z M102,107h1v1h-1z M103,107h1v1h-1z M104,107h1v1h-1z M105,107h1v1h-1z M106,107h1v1h-1z M107,107h1v1h-1z M109,107h1v1h-1z M110,107h1v1h-1z M3,108h1v1h-1z M5,108h1v1h-1z M6,108h1v1h-1z M7,108h1v1h-1z M9,108h1v1h-1z M11,108h1v1h-1z M12,108h1v1h-1z M14,108h1v1h-1z M16,108h1v1h-1z M20,108h1v1h-1z M21,108h1v1h-1z M22,108h1v1h-1z M24,108h1v1h-1z M26,108h1v1h-1z M27,108h1v1h-1z M31,108h1v1h-1z M37,108h1v1h-1z M39,108h1v1h-1z M41,108h1v1h-1z M50,108h1v1h-1z M52,108h1v1h-1z M53,108h1v1h-1z M55,108h1v1h-1z M58,108h1v1h-1z M62,108h1v1h-1z M64,108h1v1h-1z M65,108h1v1h-1z M66,108h1v1h-1z M68,108h1v1h-1z M70,108h1v1h-1z M72,108h1v1h-1z M73,108h1v1h-1z M77,108h1v1h-1z M78,108h1v1h-1z M83,108h1v1h-1z M84,108h1v1h-1z M87,108h1v1h-1z M88,108h1v1h-1z M90,108h1v1h-1z M93,108h1v1h-1z M94,108h1v1h-1z M95,108h1v1h-1z M97,108h1v1h-1z M98,108h1v1h-1z M99,108h1v1h-1z M100,108h1v1h-1z M101,108h1v1h-1z M103,108h1v1h-1z M105,108h1v1h-1z M106,108h1v1h-1z M107,108h1v1h-1z M108,108h1v1h-1z M109,108h1v1h-1z M110,108h1v1h-1z M3,109h1v1h-1z M5,109h1v1h-1z M6,109h1v1h-1z M7,109h1v1h-1z M9,109h1v1h-1z M13,109h1v1h-1z M15,109h1v1h-1z M16,109h1v1h-1z M18,109h1v1h-1z M20,109h1v1h-1z M21,109h1v1h-1z M22,109h1v1h-1z M23,109h1v1h-1z M25,109h1v1h-1z M28,109h1v1h-1z M29,109h1v1h-1z M31,109h1v1h-1z M32,109h1v1h-1z M34,109h1v1h-1z M35,109h1v1h-1z M41,109h1v1h-1z M42,109h1v1h-1z M43,109h1v1h-1z M44,109h1v1h-1z M50,109h1v1h-1z M51,109h1v1h-1z M55,109h1v1h-1z M57,109h1v1h-1z M58,109h1v1h-1z M60,109h1v1h-1z M61,109h1v1h-1z M63,109h1v1h-1z M65,109h1v1h-1z M66,109h1v1h-1z M67,109h1v1h-1z M68,109h1v1h-1z M74,109h1v1h-1z M76,109h1v1h-1z M77,109h1v1h-1z M78,109h1v1h-1z M81,109h1v1h-1z M84,109h1v1h-1z M86,109h1v1h-1z M89,109h1v1h-1z M91,109h1v1h-1z M94,109h1v1h-1z M96,109h1v1h-1z M97,109h1v1h-1z M102,109h1v1h-1z M103,109h1v1h-1z M105,109h1v1h-1z M107,109h1v1h-1z M109,109h1v1h-1z M110,109h1v1h-1z M3,110h1v1h-1z M9,110h1v1h-1z M11,110h1v1h-1z M14,110h1v1h-1z M18,110h1v1h-1z M20,110h1v1h-1z M21,110h1v1h-1z M22,110h1v1h-1z M23,110h1v1h-1z M25,110h1v1h-1z M31,110h1v1h-1z M32,110h1v1h-1z M33,110h1v1h-1z M37,110h1v1h-1z M38,110h1v1h-1z M39,110h1v1h-1z M40,110h1v1h-1z M43,110h1v1h-1z M44,110h1v1h-1z M45,110h1v1h-1z M46,110h1v1h-1z M47,110h1v1h-1z M50,110h1v1h-1z M51,110h1v1h-1z M53,110h1v1h-1z M54,110h1v1h-1z M57,110h1v1h-1z M60,110h1v1h-1z M61,110h1v1h-1z M62,110h1v1h-1z M68,110h1v1h-1z M69,110h1v1h-1z M72,110h1v1h-1z M74,110h1v1h-1z M80,110h1v1h-1z M81,110h1v1h-1z M82,110h1v1h-1z M84,110h1v1h-1z M88,110h1v1h-1z M93,110h1v1h-1z M95,110h1v1h-1z M98,110h1v1h-1z M100,110h1v1h-1z M101,110h1v1h-1z M102,110h1v1h-1z M104,110h1v1h-1z M105,110h1v1h-1z M108,110h1v1h-1z M110,110h1v1h-1z M3,111h1v1h-1z M4,111h1v1h-1z M5,111h1v1h-1z M6,111h1v1h-1z M7,111h1v1h-1z M8,111h1v1h-1z M9,111h1v1h-1z M11,111h1v1h-1z M15,111h1v1h-1z M16,111h1v1h-1z M18,111h1v1h-1z M20,111h1v1h-1z M22,111h1v1h-1z M24,111h1v1h-1z M28,111h1v1h-1z M29,111h1v1h-1z M30,111h1v1h-1z M31,111h1v1h-1z M33,111h1v1h-1z M37,111h1v1h-1z M38,111h1v1h-1z M39,111h1v1h-1z M40,111h1v1h-1z M42,111h1v1h-1z M44,111h1v1h-1z M46,111h1v1h-1z M47,111h1v1h-1z M48,111h1v1h-1z M50,111h1v1h-1z M51,111h1v1h-1z M54,111h1v1h-1z M58,111h1v1h-1z M60,111h1v1h-1z M61,111h1v1h-1z M62,111h1v1h-1z M63,111h1v1h-1z M64,111h1v1h-1z M66,111h1v1h-1z M67,111h1v1h-1z M68,111h1v1h-1z M69,111h1v1h-1z M70,111h1v1h-1z M71,111h1v1h-1z M73,111h1v1h-1z M77,111h1v1h-1z M78,111h1v1h-1z M79,111h1v1h-1z M81,111h1v1h-1z M83,111h1v1h-1z M87,111h1v1h-1z M89,111h1v1h-1z M93,111h1v1h-1z M94,111h1v1h-1z M97,111h1v1h-1z M98,111h1v1h-1z M100,111h1v1h-1z M103,111h1v1h-1z M104,111h1v1h-1z M105,111h1v1h-1z M106,111h1v1h-1z M109,111h1v1h-1z M110,111h1v1h-1z M111,111h1v1h-1z" fill="#000000"/>
</svg>
