<svg height='20px' width='20px'  fill="#FFFFFF" xmlns="http://www.w3.org/2000/svg" xmlns:xlink="http://www.w3.org/1999/xlink" xmlns:serif="http://www.serif.com/" viewBox="0 0 25 25" version="1.1" xml:space="preserve" style="" x="0px" y="0px" fill-rule="evenodd" clip-rule="evenodd" stroke-linejoin="round" stroke-miterlimit="2"><g><path d="M16.5,13c-1.784,0 -2.663,1.419 -3.586,2.781c-1.111,1.639 -2.266,3.219 -4.414,3.219l-6,0c-0.276,0 -0.5,-0.224 -0.5,-0.5c0,-0.276 0.224,-0.5 0.5,-0.5l6,0c1.784,0 2.663,-1.419 3.586,-2.781c0.729,-1.074 1.476,-2.124 2.51,-2.719c-1.034,-0.595 -1.781,-1.645 -2.51,-2.719c-0.923,-1.362 -1.802,-2.781 -3.586,-2.781l-6,0c-0.276,0 -0.5,-0.224 -0.5,-0.5c0,-0.276 0.224,-0.5 0.5,-0.5l6,0c2.148,0 3.303,1.58 4.414,3.219c0.923,1.362 1.802,2.781 3.586,2.781l4.793,0l-1.147,-1.146c-0.195,-0.196 -0.195,-0.512 0,-0.708c0.196,-0.195 0.512,-0.195 0.708,0l2,2c0.195,0.196 0.195,0.512 0,0.708l-2,2c-0.196,0.195 -0.512,0.195 -0.708,0c-0.195,-0.196 -0.195,-0.512 0,-0.708l1.147,-1.146l-4.793,0Z"></path></g></svg>