<svg height='20px' width='20px'  fill="#FFFFFF" xmlns="http://www.w3.org/2000/svg" xmlns:xlink="http://www.w3.org/1999/xlink" viewBox="0 0 32 32" version="1.1" x="0px" y="0px"><title>Change, refresh, reload</title><desc>Created with Sketch.</desc><g stroke="none" stroke-width="1" fill="none" fill-rule="evenodd"><g transform="translate(4.043004, 5.535819)" fill="#FFFFFF" fill-rule="nonzero"><path d="M4.96532451,10.1197569 C4.95978028,10.234123 4.95699629,10.348953 4.95699629,10.4641811 C4.95699629,14.3295929 8.09972516,17.4641811 11.9777727,17.4641811 C14.7302435,17.4641811 17.1925497,15.8710767 18.339621,13.4294264 L20.1498123,14.2798424 C18.6758863,17.4172339 15.5121196,19.4641811 11.9777727,19.4641811 C7.4596531,19.4641811 3.71656145,16.1499384 3.05934046,11.8243771 L1.71784015,14.074367 L1.42108547e-14,13.0501477 L3.60724957,7 L9.56223475,10.5042543 L8.54791025,12.2279555 L4.96532256,10.1197557 L4.96532451,10.1197569 Z M19.1844878,9.34442423 C19.190032,9.23005809 19.192816,9.11522815 19.192816,9 C19.192816,5.1345882 16.0500871,2 12.1720396,2 C9.41956881,2 6.95726261,3.59310446 5.81019131,6.03475471 L4,5.18433868 C5.47392596,2.04694723 8.63769268,1.0658141e-14 12.1720396,1.0658141e-14 C16.6901592,1.0658141e-14 20.4332508,3.31424275 21.0904718,7.63980399 L22.4319721,5.38981413 L24.1498123,6.41403345 L20.5425627,12.4641811 L14.5875775,8.95992681 L15.601902,7.23622561 L19.1844897,9.34442538 L19.1844878,9.34442423 Z"></path></g></g></svg>