<?xml version="1.0" encoding="UTF-8" standalone="no"?>
<svg
   xmlns:dc="http://purl.org/dc/elements/1.1/"
   xmlns:cc="http://creativecommons.org/ns#"
   xmlns:rdf="http://www.w3.org/1999/02/22-rdf-syntax-ns#"
   xmlns:svg="http://www.w3.org/2000/svg"
   xmlns="http://www.w3.org/2000/svg"
   xmlns:sodipodi="http://sodipodi.sourceforge.net/DTD/sodipodi-0.dtd"
   xmlns:inkscape="http://www.inkscape.org/namespaces/inkscape"
   viewBox="0 0 500 500"
   width="16px"
   height="16px"
   version="1.1"
   id="svg12"
   sodipodi:docname="auto_peak_search.svg"
   inkscape:export-filename="/Users/wcjohns/Downloads/auto_peak_search.png"
   inkscape:export-xdpi="96"
   inkscape:export-ydpi="96"
   inkscape:version="0.92.2 5c3e80d, 2017-08-06">
  <metadata
     id="metadata18">
    <rdf:RDF>
      <cc:Work
         rdf:about="">
        <dc:format>image/svg+xml</dc:format>
        <dc:type
           rdf:resource="http://purl.org/dc/dcmitype/StillImage" />
      </cc:Work>
    </rdf:RDF>
  </metadata>
  <defs
     id="defs16">
    <clipPath
       clipPathUnits="userSpaceOnUse"
       id="clipPath864">
      <ellipse
         style="opacity:0.93199978;fill:#0000e9;fill-opacity:1;stroke:#000000;stroke-width:3.125;stroke-miterlimit:4;stroke-dasharray:none;stroke-opacity:1"
         id="ellipse866"
         cx="190.27036"
         cy="161.45099"
         rx="94.551445"
         ry="51.606277"
         clip-path="none"
         mask="none" />
    </clipPath>
  </defs>
  <sodipodi:namedview
     pagecolor="#ffffff"
     bordercolor="#666666"
     borderopacity="1"
     objecttolerance="10"
     gridtolerance="10"
     guidetolerance="10"
     inkscape:pageopacity="0"
     inkscape:pageshadow="2"
     inkscape:window-width="1512"
     inkscape:window-height="901"
     id="namedview14"
     showgrid="false"
     inkscape:zoom="31.068504"
     inkscape:cx="-1.594976"
     inkscape:cy="8"
     inkscape:window-x="43"
     inkscape:window-y="28"
     inkscape:window-maximized="0"
     inkscape:current-layer="svg12" />
  <g
     transform="matrix(1.6967668,0,0,3.0892739,-107.09135,-291.83332)"
     id="g8"
     style="stroke:#000000;stroke-width:5.45972443;stroke-miterlimit:4;stroke-dasharray:none;stroke-opacity:1"
     clip-path="url(#clipPath864)">
    <g
       transform="matrix(0.69,0,0,0.69,15.5,15.5)"
       style="fill:#000000;stroke:#000000;stroke-width:7.91264439;stroke-miterlimit:4;stroke-dasharray:none;stroke-opacity:1"
       id="g6">
      <svg
         version="1.1"
         x="0px"
         y="0px"
         viewBox="0 0 499 235"
         style="fill:#000000;stroke:#000000;stroke-width:7.89681911;stroke-miterlimit:4;stroke-dasharray:none;stroke-opacity:1"
         id="svg4"
         width="100%"
         height="100%">
        <path
           d="M 487.8,209.6 C 429.2,209.6 384.5,194.4 351.3,163.2 323,136.6 308.2,102.9 296.2,75.9 283.4,46.8 274.1,25.7 255.6,25.7 c -18.7,0 -30.1,22.5 -44.4,50.9 -13.6,27 -30.5,60.5 -60,86.9 -34.6,31 -79.3,46.1 -136.6,46.1 v -6.8 c 125.1,0 162.8,-74.6 190.3,-129.2 15.5,-30.5 27.6,-54.6 50.8,-54.6 23.1,0 33.7,23.9 47,54.3 24.1,54.7 57.1,129.6 185.2,129.6 v 6.7 z"
           id="path2"
           inkscape:connector-curvature="0"
           style="stroke:#000000;stroke-width:7.89681911;stroke-miterlimit:4;stroke-dasharray:none;stroke-opacity:1" />
      </svg>
    </g>
  </g>
  <g
     id="g20"
     transform="matrix(1.4775676,0,0,1.4775676,-20.339798,-18.652298)"
     style="stroke-width:0.67678797">
    <g
       transform="matrix(0.69,0,0,0.69,15.5,15.5)"
       style="fill:#000000;stroke-width:0.67678797"
       id="g18">
      <svg
         viewBox="0 0 25 25"
         version="1.1"
         x="0px"
         y="0px"
         id="svg16"
         width="100%"
         height="100%"
         style="fill:#000000;stroke-width:0.67678797">
        <title
           id="title2">icon-search-disabled@1x</title>
        <desc
           id="desc4">Created with Sketch.</desc>
        <g
           id="g14"
           style="fill:none;fill-rule:evenodd;stroke:none;stroke-width:0.67678797">
          <g
             transform="translate(-20,-14)"
             id="g15"
             style="fill:#000000;stroke-width:0.67678797">
            <g
               id="g10"
               style="stroke-width:0.67678797">
              <g
                 transform="translate(20,14)"
                 id="g12"
                 style="stroke-width:0.67678797">
                <path
                   d="m 3.0640625,3.0640625 c -4.0854167,4.0854167 -4.0854167,10.7083335 0,14.7937505 3.8739583,3.873958 10.0260415,4.066666 14.1354165,0.59375 l 5.688542,5.688541 c 0.344792,0.344792 0.908333,0.344792 1.252083,0 0.344792,-0.34375 0.344792,-0.907291 0,-1.252083 l -5.688541,-5.688542 c 3.472916,-4.109375 3.279166,-10.2614582 -0.59375,-14.1354165 -4.085417,-4.0854167 -10.7093755,-4.0854167 -14.7937505,0 m 1.2520833,1.2520833 c 3.3885417,-3.38854163 8.9010422,-3.38854163 12.2895832,0 3.164583,3.165625 3.382292,8.3218752 0.49375,11.7406252 l -0.477083,0.565625 -0.565625,0.477083 c -3.41875,2.888542 -8.5750002,2.670833 -11.7406252,-0.49375 -3.38854163,-3.388541 -3.38854163,-8.9010415 0,-12.2895832"
                   id="path6"
                   inkscape:connector-curvature="0"
                   style="stroke-width:0.67678797" />
              </g>
            </g>
          </g>
        </g>
      </svg>
    </g>
  </g>
</svg>
