<?xml version="1.0" encoding="UTF-8" standalone="no"?>
<svg
   xmlns:dc="http://purl.org/dc/elements/1.1/"
   xmlns:svg="http://www.w3.org/2000/svg"
   xmlns="http://www.w3.org/2000/svg"
   width="16"
   height="16"
   viewBox="0 0 100 100"
   version="1.1"
   id="svg10">
  <defs
     id="defs14" />
  <g
     id="g8"
     transform="matrix(1.610306,0,0,1.610306,-30.515299,-30.515301)"
     style="stroke-width:0.62099999">
    <g
       transform="matrix(0.69,0,0,0.69,15.5,15.5)"
       style="fill:#000000;stroke-width:0.62099999"
       id="g6">
      <svg
         version="1.1"
         x="0px"
         y="0px"
         viewBox="0 0 100 100"
         enable-background="new 0 0 100 100"
         xml:space="preserve"
         id="svg4"
         width="100%"
         height="100%"
         style="fill:#000000;stroke-width:0.62099999"><path
           d="M 95,49.25 H 84.981 C 84.586,30.518 69.482,15.414 50.75,15.019 V 5 h -1.5 V 15.019 C 30.518,15.414 15.414,30.518 15.019,49.25 H 5 v 1.5 H 15.019 C 15.414,69.482 30.518,84.586 49.25,84.981 V 95 h 1.5 V 84.981 C 69.482,84.586 84.586,69.482 84.981,50.75 H 95 Z m -11.519,0 H 67.462 c 0,0 0,0 0,-10e-4 -0.385,-9.063 -7.648,-16.326 -16.712,-16.712 0,0 0,0 -10e-4,0 V 16.519 C 68.626,16.915 83.085,31.374 83.481,49.25 Z M 34,50 c 0,-8.822 7.178,-16 16,-16 v 16 h 16 c 0,8.822 -7.178,16 -16,16 V 50 Z M 49.25,16.519 V 32.538 C 40.186,32.923 32.923,40.186 32.538,49.25 H 16.519 C 16.915,31.374 31.374,16.915 49.25,16.519 Z M 16.519,50.75 h 16.019 c 0,0 0,0 0,10e-4 0.385,9.063 7.648,16.326 16.712,16.712 0,0 0,0 10e-4,0 V 83.482 C 31.374,83.085 16.915,68.626 16.519,50.75 Z M 50.75,83.481 V 67.462 C 59.814,67.077 67.077,59.814 67.462,50.75 H 83.481 C 83.085,68.626 68.626,83.085 50.75,83.481 Z"
           id="path2"
           style="stroke-width:0.62099999" /></svg>    </g>
  </g>
</svg>
