<svg height='100px' width='100px'  fill="#1A1A1A" xmlns="http://www.w3.org/2000/svg" xmlns:xlink="http://www.w3.org/1999/xlink" version="1.1" x="0px" y="0px" viewBox="0 0 90 90" style="enable-background:new 0 0 90 90;" xml:space="preserve"><g><path d="M44.9998016,66.6232986c0.9462967,0,2.0189972,0,3.1683998-12.2421989   c0.6665001-7.0995979,1.0644989-15.7046013,1.0644989-23.0180988c0-5.8369007-0.2533989-10.7246017-0.732399-14.1352005   c-0.6592026-4.6875-1.7383003-6.7778006-3.5004997-6.7778006c-1.7622032,0-2.841301,2.0903006-3.5,6.7773008   c-0.4794998,3.4102001-0.7329025,8.2978001-0.7329025,14.1343002c0,7.3134975,0.3978996,15.9188976,1.0643997,23.0189991   C42.9807014,66.6232986,44.0535011,66.6232986,44.9998016,66.6232986z"></path><path d="M44.9998016,68.4324036c-3.0650024,0-5.5586014,2.4935989-5.5586014,5.5590973   c0,3.0648956,2.4935989,5.5586014,5.5586014,5.5586014c3.0653992,0,5.5589981-2.4937057,5.5589981-5.5586014   C50.5587997,70.9260025,48.0652008,68.4324036,44.9998016,68.4324036z"></path></g></svg>