<?xml version="1.0" encoding="UTF-8" standalone="no"?>
<svg width="16px" height="16px" version="1.1" viewBox="0 0 1200 1200" xmlns="http://www.w3.org/2000/svg" xmlns:svg="http://www.w3.org/2000/svg">
  <path
     d="m 652.83471,378.80073 c -128.06267,9.00396 -237.97626,46.26518 -326.4144,85.79634 -166.08708,74.29694 -260.284981,189.20625 -261.496686,403.92939 -0.116685,15.66141 9.797085,29.7713 24.891489,35.44644 15.126937,5.71278 32.296177,1.85216 43.234757,-9.6859 62.36814,-65.90024 143.39161,-101.72161 234.37433,-121.46876 84.74491,-18.34557 177.92198,-22.76977 285.41548,-19.14007 -0.0389,0 -0.0389,73.00746 -0.0389,73.00746 0,29.24593 17.48677,55.87609 44.8498,68.39587 27.40123,12.52036 59.8136,8.65972 83.25933,-9.83611 91.37113,-72.24982 256.25139,-202.53333 329.66779,-260.59908 18.1872,-14.3726 28.7358,-35.82137 28.7358,-58.52228 0,-22.69449 -10.5495,-44.14439 -28.7358,-58.51586 C 1037.1613,449.54242 872.28604,319.25089 780.90993,247.0091 757.4642,228.50654 725.05183,224.65258 697.6506,237.173 c -27.36138,12.52042 -44.8498,39.14992 -44.8498,68.39584 z M 731.19905,305.56739 1060.9,566.11843 731.19905,826.68549 V 717.43697 c 0,-20.16043 -16.34595,-36.76643 -37.20444,-37.78678 -131.47369,-6.39476 -243.15506,-2.45911 -343.74347,19.36593 -72.99632,15.81165 -140.18141,41.04647 -198.81982,80.08427 23.20506,-122.26325 95.37144,-195.50138 207.94912,-245.84637 88.86805,-39.72017 201.37602,-77.4381 333.63486,-80.61608 21.24806,-0.52559 38.18375,-17.28838 38.18375,-37.82364 z"
     fill-rule="evenodd" 
     style="stroke-width:1.63059" />
</svg>
