<svg height='100px' width='100px'  fill="#1A1A1A" xmlns:dc="http://purl.org/dc/elements/1.1/" xmlns:cc="http://creativecommons.org/ns#" xmlns:rdf="http://www.w3.org/1999/02/22-rdf-syntax-ns#" xmlns:svg="http://www.w3.org/2000/svg" xmlns="http://www.w3.org/2000/svg" xmlns:sodipodi="http://sodipodi.sourceforge.net/DTD/sodipodi-0.dtd" xmlns:inkscape="http://www.inkscape.org/namespaces/inkscape" version="1.1" x="0px" y="0px" viewBox="0 0 100 100"><g transform="translate(0,-952.36218)"><path style="font-size:medium;font-style:normal;font-variant:normal;font-weight:normal;font-stretch:normal;text-indent:0;text-align:start;text-decoration:none;line-height:normal;letter-spacing:normal;word-spacing:normal;text-transform:none;direction:ltr;block-progression:tb;writing-mode:lr-tb;text-anchor:start;baseline-shift:baseline;opacity:1;color:#000000;fill:#1A1A1A;fill-opacity:1;stroke:none;stroke-width:5.99999952000000030;marker:none;visibility:visible;display:inline;overflow:visible;enable-background:accumulate;font-family:Sans;-inkscape-font-specification:Sans" d="M 17 10 C 13.173891 10 10 13.17389 10 17 L 10 83 C 10 86.8261 13.173891 90 17 90 L 83 90 C 86.826109 90 90 86.8261 90 83 L 90 29 A 3.0002998 3.0002998 0 0 0 89.125 26.875 L 73.125 10.875 A 3.0002998 3.0002998 0 0 0 71 10 L 17 10 z M 17 16 L 25 16 L 25 41 A 3.0002995 3.0002995 0 0 0 28 44 L 68 44 A 3.0002995 3.0002995 0 0 0 71 41 L 71 17.25 L 84 30.25 L 84 83 C 84 83.6059 83.605889 84 83 84 L 17 84 C 16.394111 84 16 83.6059 16 83 L 16 17 C 16 16.39411 16.394111 16 17 16 z M 31 16 L 65 16 L 65 38 L 31 38 L 31 16 z M 50 51 C 42.855832 51 37 56.8558 37 64 C 37 71.1441 42.855832 77 50 77 C 57.144168 77 63 71.1441 63 64 C 63 56.8558 57.144168 51 50 51 z M 50 57 C 53.901527 57 57 60.0985 57 64 C 57 67.9015 53.901527 71 50 71 C 46.098473 71 43 67.9015 43 64 C 43 60.0985 46.098473 57 50 57 z " transform="translate(0,952.36218)"></path></g></svg>