<?xml version="1.0" encoding="UTF-8" standalone="no"?>
<svg
   width="16pt"
   height="16pt"
   version="1.1"
   viewBox="0 0 1200 1200"
   id="svg51"
   sodipodi:docname="download_small.svg"
   inkscape:version="1.1 (c4e8f9e, 2021-05-24)"
   xmlns:inkscape="http://www.inkscape.org/namespaces/inkscape"
   xmlns:sodipodi="http://sodipodi.sourceforge.net/DTD/sodipodi-0.dtd"
   xmlns="http://www.w3.org/2000/svg"
   xmlns:svg="http://www.w3.org/2000/svg">
  <defs
     id="defs55" />
  <sodipodi:namedview
     id="namedview53"
     pagecolor="#ffffff"
     bordercolor="#666666"
     borderopacity="1.0"
     inkscape:pageshadow="2"
     inkscape:pageopacity="0.0"
     inkscape:pagecheckerboard="0"
     inkscape:document-units="pt"
     showgrid="false"
     inkscape:zoom="36.421875"
     inkscape:cx="10.666667"
     inkscape:cy="10.666667"
     inkscape:window-width="1312"
     inkscape:window-height="1003"
     inkscape:window-x="0"
     inkscape:window-y="23"
     inkscape:window-maximized="0"
     inkscape:current-layer="svg51" />
  <path
     d="m 1055.378,888.79343 v 206.24997 c 0,56.25 -46.875,103.12 -103.12001,103.12 h -708.75 c -56.25,0 -103.12,-46.875 -103.12,-103.12 V 888.79343 c 0,-15 13.125,-28.125 28.125,-28.125 15,0 28.125,13.125 28.125,28.125 v 206.24997 c 0,26.25 20.625,46.875 46.875,46.875 h 708.75 c 26.25,0 46.875,-20.625 46.875,-46.875 V 888.79343 c 0,-15 13.12501,-28.125 28.12501,-28.125 15,0 28.125,11.25 28.125,28.125 z m -511.88001,88.125 c 15,15 35.625,22.5 54.375,22.5 18.75,0 39.375,-7.5 54.375,-22.5 l 131.25,-131.25 c 11.25,-11.25 11.25,-28.125 0,-39.375 -11.25,-11.25 -28.125,-11.25 -39.375,0 l -118.12,118.12 v -461.25 c 0,-15 -13.125,-28.125 -28.125,-28.125 -15,0 -28.125,13.125 -28.125,28.125 v 459.38 l -118.12,-118.12 c -11.25,-11.25 -28.125,-11.25 -39.375,0 -11.25,11.25 -11.25,28.125 0,39.375 z"
     fill="#000000"
     id="path49" />
</svg>
