<?xml version="1.0" encoding="UTF-8"?>
<!-- Edit (pencil) icon, used on the nuclide chips in the Nuclide Decay Information tool.
     Royalty-free source artwork, trimmed from its original 1200x1200 canvas down to the path's own
     bounds (it carried about 22% empty margin either side), and left black on transparent so the
     icon filter the color themes set can flip it for dark themes. -->
<svg xmlns="http://www.w3.org/2000/svg" width="15.9" height="25.0"
     viewBox="249.93 50.03 700.12 1099.93">
 <path fill="#000000" fill-rule="evenodd" d="m272.03 1125-12.086-341.82c-0.10938-2.9414 0.63672-5.7109 1.9922-8.0898 115.82-226.6 231.65-453.18 347.48-679.78 16.246-31.777 55.379-44.449 87.168-28.199l206.89 105.76c32.016 12.73 46.789 60.863 28.836 89.09-115.71 226.38-231.43 452.75-347.15 679.13-1.1641 2.3047-2.9414 4.2969-5.0898 5.7227l-284.32 190.54c-10.105 6.7695-23.508-0.49219-23.734-12.348zm236.33-518.86-69.527 136.03c-9.1211 17.855 18.023 31.715 27.145 13.871l69.527-136.03c9.1211-17.855-18.023-31.715-27.145-13.871zm25.957-195.47-154.13 301.52c-9.1211 17.855 18.023 31.715 27.145 13.871l154.13-301.52c9.1211-17.855-18.023-31.715-27.145-13.871zm2.7461-106.86 269.27 137.64 9.3242-18.227-269.27-137.64zm255.39 164.79-269.27-137.64-227.5 445.05 269.27 137.64zm-128.58-326.69 95.652 48.898c17.855 9.1211 31.715-18.023 13.871-27.145l-95.652-48.898c-17.855-9.1211-31.715 18.023-13.871 27.145zm-368.27 786.85 145.26 74.641 100.68-67.477-250.21-127.91 4.2734 120.73zm116.33 94.031-115.09-59.137 4.7031 133.11 110.39-73.969zm148.32-764.35 269.27 137.64 24.277-47.484-269.27-137.64zm38.148-74.617 269.27 137.64 38.148-74.629c8.5547-16.738 1.8242-37.598-14.914-46.152l-208.19-106.41c-16.738-8.5547-37.609-1.8125-46.164 14.93l-38.148 74.629z"/>
</svg>
