<?xml version="1.0" encoding="utf-8"?>
<svg x="0pt" y="0pt" width="16pt" height="85pt" viewBox="0 0 85 85" xmlns="http://www.w3.org/2000/svg" xmlns:xlink="http://www.w3.org/1999/xlink">
  <g id="1">
    <title>Layer 1</title>
    <defs>
      <g id="2">
        <defs>
          <path id="3" d="M0.0117912,0.0117912 C0.0117912,0.0117912,85.0118,0.0117912,85.0118,0.0117912 C85.0118,0.0117912,85.0118,85.0118,85.0118,85.0118 C85.0118,85.0118,0.0117912,85.0118,0.0117912,85.0118 C0.0117912,85.0118,0.0117912,0.0117912,0.0117912,0.0117912 z"/>
        </defs>
        <use style="fill:#ffedec;fill-opacity:1;fill-rule:evenodd;opacity:1;stroke:none;" transform="matrix(1, 0, 0, 1, 0, 0)" xlink:href="#3"/>
      </g>
    </defs>
    <use style="visibility: hidden;" xlink:href="#2"/>
    <clipPath id="5">
      <use transform="matrix(1, 0, 0, 1, 0, 0)" xlink:href="#4"/>
      <path id="4" d="M0.0117912,0.0117912 C0.0117912,0.0117912,85.0118,0.0117912,85.0118,0.0117912 C85.0118,0.0117912,85.0118,85.0118,85.0118,85.0118 C85.0118,85.0118,0.0117912,85.0118,0.0117912,85.0118 C0.0117912,85.0118,0.0117912,0.0117912,0.0117912,0.0117912 z"/>
    </clipPath>
    <g id="6" style="clip-path: url(#5);">
      <title>ClipGroup</title>
      <g id="7" style="">
        <title>Group</title>
        <defs>
          <title>Shape 1</title>
          <g id="8">
            <defs>
              <path id="9" d="M76.4105,3.12251 C72.3301,-0.948725,65.7386,-0.948725,61.6581,3.12251 C61.6581,3.12251,7.98436,56.5705,7.98436,56.5705 C7.77511,56.7792,7.67048,56.8836,7.56585,57.0924 C7.56585,57.0924,7.56585,57.1968,7.46123,57.1968 C7.3566,57.4056,7.25197,57.51,7.25197,57.7188 C7.25197,57.7188,7.25197,57.8231,7.25197,57.8231 C7.25197,57.8231,0.137325,80.9978,0.137325,80.9978 C-0.176557,82.1461,0.137325,83.2944,0.869715,84.1296 C1.49748,84.7559,2.22987,85.0691,3.06689,85.0691 C3.38077,85.0691,3.69465,85.0691,4.00853,84.9647 C11.7161,82.5985,19.4236,80.2323,27.1311,77.8661 C27.1311,77.8661,27.2358,77.8661,27.2358,77.8661 C27.445,77.7617,27.6543,77.7617,27.7589,77.6573 C27.7589,77.6573,27.8635,77.6573,27.8635,77.553 C28.0728,77.4486,28.282,77.3442,28.3867,77.1354 C46.243,59.3194,64.0994,41.5034,81.9558,23.6874 C86.0362,19.6162,86.0362,13.0396,81.9558,8.96838 C81.9558,8.96838,76.4105,3.12251,76.4105,3.12251 z M7.87974,77.1354 C9.17014,72.9946,10.4605,68.8537,11.7509,64.7129 C14.6456,67.6011,17.5403,70.4892,20.435,73.3773 C20.435,73.3773,7.87974,77.1354,7.87974,77.1354 z M26.2941,70.35 C26.2941,70.35,14.6805,58.8671,14.6805,58.8671 C28.2123,45.3659,41.7441,31.8647,55.2758,18.3635 C59.1471,22.226,63.0183,26.0884,66.8895,29.9509 C66.8895,29.9509,26.2941,70.35,26.2941,70.35 z M77.5614,19.0943 C75.4689,21.1821,73.3764,23.2699,71.2838,25.3577 C71.2838,25.3577,59.7748,13.8747,59.7748,13.8747 C61.8674,11.7869,63.9599,9.69911,66.0525,7.6113 C67.7265,5.94105,70.3422,5.94105,72.0162,7.6113 C73.8995,9.49033,75.7828,11.3694,77.6661,13.2484 C79.2355,14.8142,79.2355,17.5284,77.5614,19.0943 z"/>
            </defs>
            <use style="fill:#1a1a1a;fill-opacity:1;fill-rule:evenodd;opacity:1;stroke:none;" transform="matrix(1, 0, 0, 1, 0, 0)" xlink:href="#9"/>
          </g>
        </defs>
        <use transform="matrix(1, 0, 0, 1, 0, 0)" style="" xlink:href="#8"/>
      </g>
    </g>
    <clipPath id="11">
      <use transform="matrix(1, 0, 0, 1, 0, 0)" xlink:href="#10"/>
      <path id="10" d="M0.0117912,0.0117912 C0.0117912,0.0117912,85.0118,0.0117912,85.0118,0.0117912 C85.0118,0.0117912,85.0118,85.0118,85.0118,85.0118 C85.0118,85.0118,0.0117912,85.0118,0.0117912,85.0118 C0.0117912,85.0118,0.0117912,0.0117912,0.0117912,0.0117912 z"/>
    </clipPath>
    <g id="12" style="clip-path: url(#11);"/>
  </g>
</svg>