<svg height='100px' width='100px'  fill="#E67700" xmlns:x="http://ns.adobe.com/Extensibility/1.0/" xmlns:i="http://ns.adobe.com/AdobeIllustrator/10.0/" xmlns:graph="http://ns.adobe.com/Graphs/1.0/" xmlns="http://www.w3.org/2000/svg" xmlns:xlink="http://www.w3.org/1999/xlink" version="1.1" x="0px" y="0px" viewBox="0 0 100 100" enable-background="new 0 0 100 100" xml:space="preserve"><g><g i:extraneous="self"><path d="M46.5,74.015c0-0.484,0.087-0.938,0.267-1.367c0.177-0.428,0.421-0.799,0.73-1.115s0.679-0.567,1.111-0.753    c0.43-0.185,0.889-0.279,1.378-0.279c0.487,0,0.946,0.095,1.376,0.279c0.432,0.186,0.806,0.437,1.125,0.753    s0.566,0.688,0.745,1.115c0.178,0.429,0.268,0.883,0.268,1.367c0,0.501-0.09,0.961-0.268,1.38    c-0.179,0.417-0.426,0.786-0.745,1.102s-0.693,0.562-1.125,0.739c-0.431,0.176-0.89,0.265-1.376,0.265    c-0.489,0-0.948-0.089-1.378-0.265c-0.432-0.178-0.802-0.424-1.111-0.739s-0.553-0.685-0.73-1.102    C46.587,74.976,46.5,74.516,46.5,74.015z M52.589,38.5v17.166c0,0.9-0.014,1.781-0.045,2.642    c-0.028,0.859-0.073,1.726-0.133,2.596s-0.133,1.762-0.221,2.672c-0.089,0.91-0.193,1.886-0.311,2.925h-3.581    c-0.118-1.039-0.222-2.015-0.31-2.925c-0.089-0.91-0.164-1.802-0.222-2.672c-0.06-0.87-0.104-1.736-0.133-2.596    c-0.031-0.86-0.046-1.741-0.046-2.642V38.5H52.589z M50,17l41,66H9L50,17 M50,13c-1.383,0-2.668,0.714-3.398,1.889l-41,66    c-0.766,1.233-0.804,2.785-0.098,4.054C6.21,86.213,7.548,87,9,87h82c1.452,0,2.79-0.787,3.496-2.057    c0.705-1.269,0.668-2.82-0.099-4.054l-41-66C52.668,13.714,51.383,13,50,13L50,13z"></path></g></g></svg>