<?xml version="1.0" encoding="UTF-8"?>
<svg width="16px" height="16px" version="1.1" viewBox="0 0 1200 1200" xmlns="http://www.w3.org/2000/svg">
 <path d="m670.74 308.34c5.0977-0.25391 10.031 1.8398 13.387 5.6836 3.2891 3.6094 5.0469 8.3516 4.9062 13.227-0.14062 4.8789-2.1719 9.5117-5.6641 12.922l-248.21 228.25 248.34 227.37c3.5117 3.5547 5.5469 8.3086 5.6875 13.305 0.14062 4.9922-1.6211 9.8555-4.9297 13.602-3.1719 3.5234-7.6133 5.6484-12.348 5.9062-4.7344 0.26172-9.3789-1.3633-12.918-4.5156l-263.37-243.04c-3.6172-3.5391-5.6602-8.3867-5.6602-13.449s2.043-9.9141 5.6602-13.453l263.12-241.52c3.3945-2.7578 7.625-4.2734 12-4.2969z"/>
</svg>
