<svg xmlns="http://www.w3.org/2000/svg" width="18px" height="18px" viewBox="0 -30 128 128" x="0px" y="0px"><path d="M63.41,59.59a2,2,0,0,0-2.82,0L34,86.17V14a2,2,0,0,0-4,0V86.17L3.41,59.59a2,2,0,0,0-2.82,0,2,2,0,0,0,0,2.82l30,30a1.79,1.79,0,0,0,.31.25.55.55,0,0,0,.15.08l.2.11.2.06.17,0a1.92,1.92,0,0,0,.78,0l.17,0,.2-.06.2-.11a.55.55,0,0,0,.15-.08,1.79,1.79,0,0,0,.31-.25l30-30A2,2,0,0,0,63.41,59.59Z"></path><path d="M62,4H2A2,2,0,0,1,2,0H62a2,2,0,0,1,0,4Z"></path><path d="M126,4H74a2,2,0,0,1,0-4h52a2,2,0,0,1,0,4Z"></path><path d="M110,19H74a2,2,0,0,1,0-4h36a2,2,0,0,1,0,4Z"></path><path d="M126,34H74a2,2,0,0,1,0-4h52a2,2,0,0,1,0,4Z"></path><path d="M110,48H74a2,2,0,0,1,0-4h36a2,2,0,0,1,0,4Z"></path><path d="M110,63H74a2,2,0,0,1,0-4h36a2,2,0,0,1,0,4Z"></path><path d="M110,78H74a2,2,0,0,1,0-4h36a2,2,0,0,1,0,4Z"></path></svg>