<svg height='100px' width='100px'  fill="#000000" xmlns="http://www.w3.org/2000/svg" viewBox="0 0 64 64" x="0px" y="0px"><title>1</title><g data-name="filter"><path d="M32,0A32,32,0,1,0,64,32,32.0364,32.0364,0,0,0,32,0Zm0,62A30,30,0,1,1,62,32,30.0341,30.0341,0,0,1,32,62ZM45,29H32a2.0023,2.0023,0,0,0-2-2H24a2.0023,2.0023,0,0,0-2,2H19a3,3,0,0,0,0,6h3a2.0023,2.0023,0,0,0,2,2h6a2.0023,2.0023,0,0,0,2-2H45a3,3,0,0,0,0-6ZM22,33H19a1,1,0,0,1,0-2h3Zm8,2H24V29h6Zm15-2H32V31H45a1,1,0,0,1,0,2Zm0-16H42a2.0023,2.0023,0,0,0-2-2H34a2.0023,2.0023,0,0,0-2,2H19a3,3,0,0,0,0,6H32a2.0023,2.0023,0,0,0,2,2h6a2.0023,2.0023,0,0,0,2-2h3a3,3,0,0,0,0-6ZM32,21H19a1,1,0,0,1,0-2H32Zm2,2V17h6l.0015,6Zm11-2H42V19h3a1,1,0,0,1,0,2Zm0,20H42a2.0023,2.0023,0,0,0-2-2H34a2.0023,2.0023,0,0,0-2,2H19a3,3,0,0,0,0,6H32a2.0023,2.0023,0,0,0,2,2h6a2.0023,2.0023,0,0,0,2-2h3a3,3,0,0,0,0-6ZM32,45H19a1,1,0,0,1,0-2H32Zm2,2V41h6l.0015,6Zm11-2H42V43h3a1,1,0,0,1,0,2Z"></path></g></svg>