<?xml version="1.0" encoding="UTF-8"?>
<svg width="1200pt" height="1200pt" version="1.1" viewBox="0 0 1200 1200" xmlns="http://www.w3.org/2000/svg">
 <path d="m1130.1 241.13c-8.4375-90-80.062-161.44-169.87-170.06-96.375-9.1875-217.5-13.875-360-13.875s-263.63 4.6875-360 13.875c-90 8.625-161.44 80.062-170.06 170.06-9.1875 96.375-13.875 217.31-13.875 360s4.6875 263.63 13.875 360c8.625 90 80.062 161.44 170.06 169.87 96.375 9.1875 217.5 13.688 359.81 13.688 161.26 0 284.81-8.625 360.19-15.75 90-8.625 161.63-80.25 170.06-170.06 9-96.188 13.688-216.56 13.688-357.94 0-141.37-4.6875-263.44-13.688-359.81zm-55.875 712.5c-5.8125 63-56.062 113.25-119.44 119.25-74.062 7.125-195.74 15.562-354.74 15.562-140.63 0-259.87-4.5-354.56-13.5-63.188-6-113.25-56.25-119.44-119.25-9-94.688-13.688-213.94-13.688-354.74 0-140.81 4.5-260.06 13.5-354.56 6-63.188 56.25-113.25 119.25-119.25 94.5-9 213.74-13.5 354.56-13.5 140.82 0 260.06 4.5 354.74 13.688 63.188 6 113.25 56.25 119.25 119.44 9 94.688 13.5 213.94 13.5 354.56 0 140.63-4.5 258.19-13.312 352.69z"/>
 <path d="m965.63 571.87h-731.26c-15.562 0-28.125 12.562-28.125 28.125s12.562 28.125 28.125 28.125h731.26c15.562 0 28.125-12.562 28.125-28.125s-12.562-28.125-28.125-28.125z"/>
 <path d="m965.63 300h-731.26c-15.562 0-28.125 12.562-28.125 28.125s12.562 28.125 28.125 28.125h731.26c15.562 0 28.125-12.562 28.125-28.125s-12.562-28.125-28.125-28.125z"/>
 <path d="m965.63 843.74h-731.26c-15.562 0-28.125 12.562-28.125 28.125s12.562 28.125 28.125 28.125h731.26c15.562 0 28.125-12.562 28.125-28.125s-12.562-28.125-28.125-28.125z"/>
</svg>
