<?xml version="1.0" encoding="UTF-8"?>
<svg width="50px" height="50px" version="1.1" viewBox="0 0 100 100" xmlns="http://www.w3.org/2000/svg">
 <g fill="rgb(91,91,91)">
  <path d="m83.801 79.102c0.19922-0.19922 0.30078-0.30078 0.5-0.5 0.60156-0.5 0.80078-1.1992 0.80078-1.8008 0-0.60156-0.19922-1.1992-0.80078-1.8008l-0.5-0.5c1.6992 0.89844 1.6992 3.8008 0 4.6016z"/>
  <path d="m38.699 62.801c0 4.8008-7.1992 4.8008-7.1992 0s7.1992-4.8008 7.1992 0"/>
  <path d="m54.801 47.301c0 3.1992-4.8008 3.1992-4.8008 0s4.8008-3.1992 4.8008 0"/>
  <path d="m41.398 47.301c0 5.332-8 5.332-8 0 0-5.3359 8-5.3359 8 0"/>
  <path d="m73.102 47.699c0 5.1992-7.8008 5.1992-7.8008 0s7.8008-5.1992 7.8008 0"/>
  <path d="m58.801 62.102c0 3.5312-2.8672 6.3984-6.4023 6.3984-3.5312 0-6.3984-2.8672-6.3984-6.3984 0-3.5352 2.8672-6.4023 6.3984-6.4023 3.5352 0 6.4023 2.8672 6.4023 6.4023"/>
  <path d="m71.699 62.801c0 3.332-5 3.332-5 0 0-3.3359 5-3.3359 5 0"/>
  <path d="m39.898 32.301c0 4.8008-7.1992 4.8008-7.1992 0s7.1992-4.8008 7.1992 0"/>
  <path d="m58.602 31.602c0 6.6641-10 6.6641-10 0 0-6.668 10-6.668 10 0"/>
  <path d="m72.898 32.301c0 3.332-5 3.332-5 0 0-3.3359 5-3.3359 5 0"/>
  <path d="m23.801 15.398c-0.60156-0.19922-1.1992-0.19922-1.8008 0-0.30078 0.10156-0.5 0.19922-0.69922 0.39844 0.5-0.5 1.1016-0.69922 1.6992-0.69922 0.30078 0.10156 0.60156 0.10156 0.80078 0.30078z"/>
  <path d="m24.602 15.801c-0.19922-0.19922-0.5-0.30078-0.69922-0.39844h-0.10156c-0.60156-0.19922-1.1992-0.19922-1.8008 0 0.30078-0.19922 0.60156-0.19922 0.89844-0.19922 0.60156-0.10156 1.2031 0.097656 1.7031 0.59766z"/>
 </g>
</svg>
