<svg fill="#000000" xmlns="http://www.w3.org/2000/svg" viewBox="0 0 64 64" x="0px" y="0px" width="16px" height="16px">
  <path d="M160,1008a32,32,0,1,1,32,32A32,32,0,0,1,160,1008Zm4,0a28,28,0,1,0,28-28A28.086,28.086,0,0,0,164,1008Zm25.059,18.03v-5.078h5.032v5.078Zm.051-10.01a14.255,14.255,0,0,1,.609-4.907,12.413,12.413,0,0,1,3.076-3.614,53.918,53.918,0,0,0,3.443-4.394,6.542,6.542,0,0,0,1.023-3.712,5.411,5.411,0,0,0-1.379-3.979,5.308,5.308,0,0,0-3.942-1.392,6,6,0,0,0-3.785,1.209c-1.041.806-1.562,3.053-1.562,4.615H182l-.075-.147c-.047-2.62.876-5.783,2.772-7.361a10.938,10.938,0,0,1,7.24-2.369q4.809,0,7.469,2.454a8.842,8.842,0,0,1,2.662,6.848,10.262,10.262,0,0,1-1.721,5.762,32.111,32.111,0,0,1-4.555,5.346,5.729,5.729,0,0,0-1.6,2.369,13.808,13.808,0,0,0-.281,3.271Z" transform="translate(-159.999 -976)"></path>
</svg>