<svg xmlns="http://www.w3.org/2000/svg" xmlns:xlink="http://www.w3.org/1999/xlink" width="16" height="16" viewBox="0 0 100 100"><g><g style="fill:#000000"><svg fill="#000000" xmlns="http://www.w3.org/2000/svg" xmlns:xlink="http://www.w3.org/1999/xlink" xml:space="preserve" version="1.1" style="shape-rendering:geometricPrecision;text-rendering:geometricPrecision;image-rendering:optimizeQuality;" viewBox="0 0 304 296" x="0px" y="0px" fill-rule="evenodd" clip-rule="evenodd"><defs><style type="text/css">
   
    .fil0 {fill:#000000}
   
  </style></defs><g><path class="fil0" d="M302 146l-144 -143c-3,-4 -9,-4 -12,0l-144 143c-8,8 9,25 17,16l13 -13c0,46 0,92 0,138 0,5 4,9 9,9l222 0c5,0 9,-4 9,-9 0,-46 0,-92 0,-138l13 13c9,9 25,-8 17,-16zm-110 37l-80 0c-5,0 -8,4 -8,8l0 83 -48 0 0 -148 96 -96c32,32 64,64 96,96l0 148 -47 0 0 -83c0,-4 -4,-8 -9,-8zm-65 91l0 -68 50 0 0 68 -50 0z"></path></g></svg></g></g></svg>