<?xml version="1.0" encoding="UTF-8" standalone="no"?>
<svg
   xmlns:dc="http://purl.org/dc/elements/1.1/"
   xmlns:cc="http://creativecommons.org/ns#"
   xmlns:rdf="http://www.w3.org/1999/02/22-rdf-syntax-ns#"
   xmlns:svg="http://www.w3.org/2000/svg"
   xmlns="http://www.w3.org/2000/svg"
   xmlns:sodipodi="http://sodipodi.sourceforge.net/DTD/sodipodi-0.dtd"
   xmlns:inkscape="http://www.inkscape.org/namespaces/inkscape"
   width="16"
   height="16"
   viewBox="0 0 100 100"
   version="1.1"
   id="svg12">
  <defs
     id="defs16" />
  <g
     id="g10"
     transform="matrix(1.6847142,0,0,1.6852039,-37.737598,-37.748567)"
     style="stroke-width:0.59348625">
    <g
       transform="matrix(0.69,0,0,0.69,15.5,15.5)"
       style="fill:#000000;stroke-width:0.59348625"
       id="g8">
      <svg
         version="1.1"
         x="0px"
         y="0px"
         viewBox="0 0 100 100"
         style="fill:#000000;stroke-width:0.59348625"
         xml:space="preserve"
         id="svg6"
         width="100%"
         height="100%"><g
           id="g4"
           style="stroke-width:0.59348625"><path
             d="m 45.5,81 c 7.3,0 14,-2.2 19.6,-5.9 L 84,93.9 c 1.4,1.4 3.2,2.1 5,2.1 1.8,0 3.6,-0.7 5,-2.1 2.7,-2.7 2.7,-7.2 0,-9.9 L 75,65.1 C 78.8,59.5 80.9,52.7 80.9,45.5 81,25.9 65.1,10 45.5,10 25.9,10 10,25.9 10,45.5 10,65.1 25.9,81 45.5,81 Z m 0,-57 C 57.3,24 67,33.6 67,45.5 67,57.3 57.3,67 45.5,67 33.6,67 24,57.3 24,45.5 24,33.6 33.6,24 45.5,24 Z"
             id="path2"
             inkscape:connector-curvature="0"
             style="stroke-width:0.59348625" /></g></svg>    </g>
  </g>
</svg>
