<svg xmlns="http://www.w3.org/2000/svg" xmlns:xlink="http://www.w3.org/1999/xlink" version="1.1" x="0px" y="0px" width="24" height="24" viewBox="0 0 100 100" enable-background="new 0 0 100 100" xml:space="preserve"><g><path d="M49.917,80.333c-16.864,0-30.583-13.72-30.583-30.583s13.72-30.583,30.583-30.583S80.5,32.886,80.5,49.75   S66.781,80.333,49.917,80.333z M49.917,21.167c-15.761,0-28.583,12.822-28.583,28.583c0,15.761,12.822,28.583,28.583,28.583   c15.761,0,28.583-12.822,28.583-28.583C78.5,33.989,65.678,21.167,49.917,21.167z"></path></g><g><path d="M50,55.572c-3.072,0-5.572-2.5-5.572-5.572s2.5-5.572,5.572-5.572s5.572,2.5,5.572,5.572S53.072,55.572,50,55.572z    M50,46.428c-1.97,0-3.572,1.602-3.572,3.572S48.03,53.572,50,53.572S53.572,51.97,53.572,50S51.97,46.428,50,46.428z"></path></g><g><path d="M34,55.572c-3.072,0-5.572-2.5-5.572-5.572s2.5-5.572,5.572-5.572s5.572,2.5,5.572,5.572S37.072,55.572,34,55.572z    M34,46.428c-1.97,0-3.572,1.602-3.572,3.572S32.03,53.572,34,53.572S37.572,51.97,37.572,50S35.97,46.428,34,46.428z"></path></g><g><path d="M66,55.572c-3.072,0-5.572-2.5-5.572-5.572s2.5-5.572,5.572-5.572s5.572,2.5,5.572,5.572S69.072,55.572,66,55.572z    M66,46.428c-1.97,0-3.572,1.602-3.572,3.572S64.03,53.572,66,53.572S69.572,51.97,69.572,50S67.97,46.428,66,46.428z"></path></g></svg>