<svg height='18px' width='18px' fill="#FFFFFF" xmlns="http://www.w3.org/2000/svg" xmlns:xlink="http://www.w3.org/1999/xlink" version="1.1" x="0px" y="0px" viewBox="0 0 100 100" enable-background="new 0 0 100 100" xml:space="preserve"><path fill="none" d="M11.118,93.583h39.665c2.592,0,4.7-2.108,4.7-4.7V49.218c0-2.592-2.108-4.7-4.7-4.7H11.118  c-2.592,0-4.7,2.108-4.7,4.7v39.665C6.417,91.474,8.526,93.583,11.118,93.583z"></path><path d="M11.118,96.417h39.665c4.155,0,7.535-3.38,7.535-7.535V49.218c0-4.155-3.38-7.535-7.535-7.535H11.118  c-1.777,0-3.41,0.622-4.7,1.655v-0.924c0-0.783-0.635-1.417-1.417-1.417s-1.417,0.635-1.417,1.417v6.803l0,0l0,0.001v39.665  C3.583,93.037,6.963,96.417,11.118,96.417z M6.417,49.218c0-2.592,2.108-4.7,4.7-4.7h39.665c2.592,0,4.7,2.108,4.7,4.7v39.665  c0,2.592-2.108,4.7-4.7,4.7H11.118c-2.592,0-4.7-2.108-4.7-4.7V49.218z"></path><path d="M72.256,6.417h6.803c0.783,0,1.417-0.635,1.417-1.417s-0.635-1.417-1.417-1.417h-6.803c-0.783,0-1.417,0.635-1.417,1.417  S71.473,6.417,72.256,6.417z"></path><path d="M95,78.705c-0.783,0-1.417,0.635-1.417,1.417v6.803c0,0.783,0.635,1.417,1.417,1.417s1.417-0.635,1.417-1.417v-6.803  C96.417,79.339,95.783,78.705,95,78.705z"></path><path d="M95,65.098c-0.783,0-1.417,0.635-1.417,1.417v6.803c0,0.783,0.635,1.417,1.417,1.417s1.417-0.635,1.417-1.417v-6.803  C96.417,65.733,95.783,65.098,95,65.098z"></path><path d="M92.185,92.227c-0.886,0.874-2.059,1.355-3.303,1.355h-2.036c-0.783,0-1.417,0.635-1.417,1.417s0.635,1.417,1.417,1.417  h2.036c1.995,0,3.875-0.772,5.294-2.173c0.557-0.55,0.563-1.447,0.013-2.004C93.639,91.682,92.741,91.677,92.185,92.227z"></path><path d="M95,51.492c-0.783,0-1.417,0.635-1.417,1.417v6.803c0,0.783,0.635,1.417,1.417,1.417s1.417-0.635,1.417-1.417V52.91  C96.417,52.127,95.783,51.492,95,51.492z"></path><path d="M95,10.673c-0.783,0-1.417,0.635-1.417,1.417v6.803c0,0.783,0.635,1.417,1.417,1.417s1.417-0.635,1.417-1.417v-6.803  C96.417,11.308,95.783,10.673,95,10.673z"></path><path d="M95,37.886c-0.783,0-1.417,0.635-1.417,1.417v6.803c0,0.783,0.635,1.417,1.417,1.417s1.417-0.635,1.417-1.417v-6.803  C96.417,38.521,95.783,37.886,95,37.886z"></path><path d="M85.862,6.417h3.02c0.984,0,1.926,0.3,2.723,0.869c0.25,0.178,0.537,0.263,0.822,0.263c0.442,0,0.878-0.207,1.155-0.595  c0.454-0.637,0.306-1.522-0.332-1.977c-1.28-0.913-2.791-1.395-4.368-1.395h-3.02c-0.783,0-1.417,0.635-1.417,1.417  S85.08,6.417,85.862,6.417z"></path><path d="M95,24.279c-0.783,0-1.417,0.635-1.417,1.417V32.5c0,0.783,0.635,1.417,1.417,1.417s1.417-0.635,1.417-1.417v-6.803  C96.417,24.914,95.783,24.279,95,24.279z"></path><path d="M58.65,6.417h6.803c0.783,0,1.417-0.635,1.417-1.417s-0.635-1.417-1.417-1.417H58.65c-0.783,0-1.417,0.635-1.417,1.417  S57.867,6.417,58.65,6.417z"></path><path d="M31.437,6.417h6.803c0.783,0,1.417-0.635,1.417-1.417s-0.635-1.417-1.417-1.417h-6.803c-0.783,0-1.417,0.635-1.417,1.417  S30.654,6.417,31.437,6.417z"></path><path d="M73.24,93.583c-0.783,0-1.417,0.635-1.417,1.417s0.635,1.417,1.417,1.417h6.803c0.783,0,1.417-0.635,1.417-1.417  s-0.635-1.417-1.417-1.417H73.24z"></path><path d="M17.831,6.417h6.803c0.783,0,1.417-0.635,1.417-1.417s-0.635-1.417-1.417-1.417h-6.803c-0.783,0-1.417,0.635-1.417,1.417  S17.048,6.417,17.831,6.417z"></path><path d="M45.043,6.417h6.803c0.783,0,1.417-0.635,1.417-1.417s-0.635-1.417-1.417-1.417h-6.803c-0.783,0-1.417,0.635-1.417,1.417  S44.261,6.417,45.043,6.417z"></path><path d="M4.982,9.766C5.179,9.86,5.387,9.904,5.592,9.904c0.529,0,1.037-0.298,1.28-0.807c0.776-1.627,2.376-2.653,4.175-2.679  c0.783-0.011,1.408-0.654,1.397-1.437c-0.011-0.776-0.643-1.397-1.417-1.397c-0.007,0-0.014,0-0.021,0  C8.122,3.625,5.557,5.27,4.313,7.876C3.977,8.583,4.276,9.429,4.982,9.766z"></path><path d="M59.634,93.583c-0.783,0-1.417,0.635-1.417,1.417s0.635,1.417,1.417,1.417h6.803c0.783,0,1.417-0.635,1.417-1.417  s-0.635-1.417-1.417-1.417H59.634z"></path><path d="M5,23.422c0.783,0,1.417-0.635,1.417-1.417v-6.803c0-0.783-0.635-1.417-1.417-1.417s-1.417,0.635-1.417,1.417v6.803  C3.583,22.787,4.217,23.422,5,23.422z"></path><path d="M5,37.028c0.783,0,1.417-0.635,1.417-1.417v-6.803c0-0.783-0.635-1.417-1.417-1.417s-1.417,0.635-1.417,1.417v6.803  C3.583,36.393,4.217,37.028,5,37.028z"></path></svg>