<?xml version="1.0" encoding="UTF-8" standalone="no"?>
<svg
   xmlns:dc="http://purl.org/dc/elements/1.1/"
   xmlns:cc="http://creativecommons.org/ns#"
   xmlns:rdf="http://www.w3.org/1999/02/22-rdf-syntax-ns#"
   xmlns:svg="http://www.w3.org/2000/svg"
   xmlns="http://www.w3.org/2000/svg"
   xmlns:xlink="http://www.w3.org/1999/xlink"
   xmlns:sodipodi="http://sodipodi.sourceforge.net/DTD/sodipodi-0.dtd"
   xmlns:inkscape="http://www.inkscape.org/namespaces/inkscape"
   version="1.1"
   width="225.0px"
   height="125.0px"
   id="svg885"
   sodipodi:docname="peak_small.svg"
   inkscape:export-filename="/Users/wcjohns/Downloads/peak_small.png"
   inkscape:export-xdpi="330.35294"
   inkscape:export-ydpi="330.35294"
   inkscape:version="0.92.2 5c3e80d, 2017-08-06">
  <metadata
     id="metadata891">
    <rdf:RDF>
      <cc:Work
         rdf:about="">
        <dc:format>image/svg+xml</dc:format>
        <dc:type
           rdf:resource="http://purl.org/dc/dcmitype/StillImage" />
      </cc:Work>
    </rdf:RDF>
  </metadata>
  <defs
     id="defs889">
    <clipPath
       clipPathUnits="userSpaceOnUse"
       id="clipPath898">
      <use
         x="0"
         y="0"
         xlink:href="#g894"
         id="use900"
         width="100%"
         height="100%" />
    </clipPath>
    <clipPath
       clipPathUnits="userSpaceOnUse"
       id="clipPath912">
      <use
         x="0"
         y="0"
         xlink:href="#g908"
         id="use914"
         width="100%"
         height="100%" />
    </clipPath>
  </defs>
  <sodipodi:namedview
     pagecolor="#ffffff"
     bordercolor="#666666"
     borderopacity="1"
     objecttolerance="10"
     gridtolerance="10"
     guidetolerance="10"
     inkscape:pageopacity="0"
     inkscape:pageshadow="2"
     inkscape:window-width="1529"
     inkscape:window-height="929"
     id="namedview887"
     showgrid="false"
     inkscape:zoom="5.2177778"
     inkscape:cx="22.944783"
     inkscape:cy="102.49798"
     inkscape:window-x="0"
     inkscape:window-y="0"
     inkscape:window-maximized="0"
     inkscape:current-layer="svg885" />
  <g
     id="g875">
    <g
       id="g873" />
  </g>
  <g
     id="g910"
     clip-path="url(#clipPath912)"
     transform="translate(-0.399865,-0.39999998)">
    <g
       inkscape:label="Clip"
       id="g908">
      <g
         clip-path="url(#clipPath898)"
         id="g896">
        <g
           id="g894"
           inkscape:label="Clip">
          <rect
             x="0.46686196"
             y="0.50199735"
             width="65.398003"
             height="65.398003"
             style="fill:#ffffff;fill-opacity:0;fill-rule:evenodd;stroke:#000000"
             id="rect877" />
        </g>
      </g>
      <g
         id="g883"
         transform="translate(-96.772835,-22.30188)">
        <g
           id="g881"
           style="font-size:13.33333302px;font-family:sans-serif;fill:#0033ff;fill-opacity:0.60799997;stroke:#0033ff;stroke-linecap:square;stroke-linejoin:bevel;shape-rendering:optimizeSpeed">
          <path
             inkscape:connector-curvature="0"
             id="path879"
             style="fill-opacity:1"
             d="m 72.4817,83.80864 v 0 l 2.635659,0.04716 2.635659,0.04717 2.635659,0.04717 2.635659,0.04716 2.635659,0.04706 2.635658,0.04662 2.635659,0.04492 2.635659,0.03907 2.635659,0.02085 2.635659,-0.03034 2.635661,-0.159763 2.63566,-0.453211 2.63566,-1.046222 2.63565,-2.10456 2.63566,-3.748383 2.63566,-5.917085 2.63566,-8.238093 2.63566,-10.027164 2.63566,-10.506468 2.63566,-9.155247 2.63566,-5.975357 2.63566,-1.523063 2.63565,3.268213 2.63566,7.367181 2.63566,9.94373 2.63566,10.624172 2.63566,9.606352 2.63566,7.540376 2.63566,5.208431 2.63566,3.199031 2.63566,1.765873 2.63566,0.888854 2.63565,0.418992 2.63566,0.195854 2.63566,0.101178 2.63566,0.0651 2.63566,0.05272 2.63566,0.04888 2.63566,0.04781 2.63566,0.04754 2.63566,0.04749 2.63565,0.04748 2.63566,0.04749 v 0 l -2.63566,-0.04749 -2.63565,-0.04748 -2.63566,-0.04747 -2.63566,-0.04746 -2.63566,-0.04746 -2.63566,-0.04745 -2.63566,-0.04744 -2.63566,-0.04743 -2.63566,-0.04743 -2.63566,-0.04742 -2.63565,-0.04741 -2.63566,-0.0474 -2.63566,-0.04739 -2.63566,-0.04739 -2.63566,-0.04738 -2.63566,-0.04737 -2.63566,-0.04736 -2.63566,-0.04736 -2.63566,-0.04735 -2.63566,-0.04734 -2.63565,-0.04733 -2.63566,-0.04733 -2.63566,-0.04732 -2.63566,-0.04731 -2.63566,-0.0473 -2.63566,-0.04729 -2.63566,-0.04729 -2.63566,-0.04728 -2.63566,-0.04727 -2.63565,-0.04726 -2.63566,-0.04726 -2.63566,-0.04725 -2.635661,-0.04724 -2.635659,-0.04723 -2.635659,-0.04722 -2.635659,-0.04722 -2.635659,-0.04721 -2.635658,-0.0472 -2.635659,-0.04719 -2.635659,-0.04719 -2.635659,-0.04718 -2.635659,-0.04717 -2.635659,-0.04716 v 0" />
        </g>
      </g>
    </g>
  </g>
</svg>
