<?xml version="1.0" encoding="UTF-8" standalone="no"?>
<svg
   xmlns:bx="https://boxy-svg.com"
   xmlns:dc="http://purl.org/dc/elements/1.1/"
   xmlns:cc="http://creativecommons.org/ns#"
   xmlns:rdf="http://www.w3.org/1999/02/22-rdf-syntax-ns#"
   xmlns:svg="http://www.w3.org/2000/svg"
   xmlns="http://www.w3.org/2000/svg"
   xmlns:sodipodi="http://sodipodi.sourceforge.net/DTD/sodipodi-0.dtd"
   xmlns:inkscape="http://www.inkscape.org/namespaces/inkscape"
   viewBox="0 0 500 500"
   width="16px"
   height="16px"
   version="1.1"
   id="svg12"
   sodipodi:docname="peakmanager.svg"
   inkscape:export-filename="/Users/wcjohns/Downloads/peakmanager.png"
   inkscape:export-xdpi="96"
   inkscape:export-ydpi="96"
   inkscape:version="0.92.2 5c3e80d, 2017-08-06">
  <metadata
     id="metadata18">
    <rdf:RDF>
      <cc:Work
         rdf:about="">
        <dc:format>image/svg+xml</dc:format>
        <dc:type
           rdf:resource="http://purl.org/dc/dcmitype/StillImage" />
      </cc:Work>
    </rdf:RDF>
  </metadata>
  <defs
     id="defs16" />
  <sodipodi:namedview
     pagecolor="#ffffff"
     bordercolor="#666666"
     borderopacity="1"
     objecttolerance="10"
     gridtolerance="10"
     guidetolerance="10"
     inkscape:pageopacity="0"
     inkscape:pageshadow="2"
     inkscape:window-width="1512"
     inkscape:window-height="901"
     id="namedview14"
     showgrid="false"
     inkscape:zoom="21.96875"
     inkscape:cx="-0.33001422"
     inkscape:cy="8"
     inkscape:window-x="0"
     inkscape:window-y="0"
     inkscape:window-maximized="0"
     inkscape:current-layer="svg12" />
  <path
     style="display:inline;fill:none;fill-opacity:1;stroke:#000000;stroke-width:4.6875;stroke-miterlimit:4;stroke-dasharray:none;stroke-opacity:1"
     d="m 499.15213,320.85905 -24.43061,57.97521 -93.70312,-25.07902 c -8.43093,10.64623 -18.12805,20.22516 -28.87687,28.5249 l 23.93126,94.0035 L 317.80461,500 269.27846,416.01092 c -13.48953,1.56696 -27.11976,1.4839 -40.58918,-0.24736 l -49.547,83.38865 -57.97519,-24.4306 25.07765,-93.69995 c -10.64623,-8.43093 -20.22516,-18.12806 -28.5249,-28.87688 L 23.717719,376.07284 0,317.80786 83.989156,269.28169 c -1.566965,-13.48953 -1.483899,-27.11977 0.247358,-40.5892 L 0.84788143,179.14551 25.278464,121.1703 118.97841,146.24798 c 8.43092,-10.64624 18.12805,-20.22517 28.87687,-28.52491 L 123.92726,23.720898 182.19349,1.87e-5 230.71835,83.992314 c 13.48954,-1.566871 27.11977,-1.483712 40.58918,0.247637 L 320.85588,0.8481047 378.83107,25.278699 353.75201,118.98184 c 10.64624,8.43092 20.22517,18.12805 28.52491,28.87687 L 476.28046,123.92748 500,182.19695 416.0077,230.72181 c 1.56696,13.48953 1.48388,27.11977 -0.24738,40.5892 z M 279.9903,181.20257 l -0.23826,-1.80792 0.23826,1.80792 v 0 0"
     bx:shape="cog 816.816 202.609 22.316 48.35 74.385 0.38 8 1@231be523"
     id="path10"
     inkscape:connector-curvature="0"
     sodipodi:nodetypes="ccccccccccccccccccccccccccccccccccccsc" />
  <g
     transform="matrix(2.0029525,0,0,3.6467405,-128.96871,-380.43126)"
     id="g8"
     style="stroke-width:0;stroke:#000000;stroke-opacity:1;stroke-miterlimit:4;stroke-dasharray:none">
    <g
       transform="matrix(0.69,0,0,0.69,15.5,15.5)"
       style="fill:#000000;stroke-width:0;stroke:#000000;stroke-opacity:1;stroke-miterlimit:4;stroke-dasharray:none"
       id="g6">
      <svg
         version="1.1"
         x="0px"
         y="0px"
         viewBox="0 0 499 235"
         style="fill:#000000;stroke-width:0;stroke:#000000;stroke-opacity:1;stroke-miterlimit:4;stroke-dasharray:none"
         id="svg4"
         width="100%"
         height="100%">
        <path
           d="M 487.8,209.6 C 429.2,209.6 384.5,194.4 351.3,163.2 323,136.6 308.2,102.9 296.2,75.9 283.4,46.8 274.1,25.7 255.6,25.7 c -18.7,0 -30.1,22.5 -44.4,50.9 -13.6,27 -30.5,60.5 -60,86.9 -34.6,31 -79.3,46.1 -136.6,46.1 v -6.8 c 125.1,0 162.8,-74.6 190.3,-129.2 15.5,-30.5 27.6,-54.6 50.8,-54.6 23.1,0 33.7,23.9 47,54.3 24.1,54.7 57.1,129.6 185.2,129.6 v 6.7 z"
           id="path2"
           inkscape:connector-curvature="0"
           style="stroke-width:0;stroke:#000000;stroke-opacity:1;stroke-miterlimit:4;stroke-dasharray:none" />
      </svg>
    </g>
  </g>
</svg>
