<?xml version="1.0" encoding="UTF-8" standalone="no"?>
<svg
   xmlns:dc="http://purl.org/dc/elements/1.1/"
   xmlns:cc="http://creativecommons.org/ns#"
   xmlns:rdf="http://www.w3.org/1999/02/22-rdf-syntax-ns#"
   xmlns:svg="http://www.w3.org/2000/svg"
   xmlns="http://www.w3.org/2000/svg"
   xmlns:sodipodi="http://sodipodi.sourceforge.net/DTD/sodipodi-0.dtd"
   xmlns:inkscape="http://www.inkscape.org/namespaces/inkscape"
   width="16"
   height="16"
   viewBox="0 0 100 100"
   version="1.1"
   id="svg885"
   sodipodi:docname="noun_Information_486592.svg"
   inkscape:export-filename="/Users/wcjohns/Downloads/phone_tips.png"
   inkscape:export-xdpi="96.169998"
   inkscape:export-ydpi="96.169998"
   inkscape:version="0.92.2 5c3e80d, 2017-08-06">
  <metadata
     id="metadata891">
    <rdf:RDF>
      <cc:Work
         rdf:about="">
        <dc:format>image/svg+xml</dc:format>
        <dc:type
           rdf:resource="http://purl.org/dc/dcmitype/StillImage" />
      </cc:Work>
    </rdf:RDF>
  </metadata>
  <defs
     id="defs889" />
  <sodipodi:namedview
     pagecolor="#ffffff"
     bordercolor="#666666"
     borderopacity="1"
     objecttolerance="10"
     gridtolerance="10"
     guidetolerance="10"
     inkscape:pageopacity="0"
     inkscape:pageshadow="2"
     inkscape:window-width="1473"
     inkscape:window-height="1009"
     id="namedview887"
     showgrid="false"
     inkscape:zoom="49.5"
     inkscape:cx="8"
     inkscape:cy="8"
     inkscape:window-x="0"
     inkscape:window-y="0"
     inkscape:window-maximized="0"
     inkscape:current-layer="svg885" />
  <g
     id="g883"
     transform="matrix(1.610306,0,0,1.610306,-30.515299,-30.515301)"
     style="stroke-width:0.62099999">
    <g
       transform="matrix(0.69,0,0,0.69,15.5,15.5)"
       style="fill:#000000;stroke-width:0.62099999"
       id="g881">
      <svg
         version="1.1"
         x="0px"
         y="0px"
         viewBox="0 0 100 100"
         enable-background="new 0 0 100 100"
         xml:space="preserve"
         id="svg879"
         width="100%"
         height="100%"
         style="fill:#000000;stroke-width:0.62099999"><path
           d="M 50,5 C 25.189,5 5,25.186 5,50 5,74.813 25.189,95 50,95 74.811,95 95,74.812 95,50 95,25.186 74.811,5 50,5 Z m 0,82.8 C 29.156,87.8 12.2,70.844 12.2,50 12.2,29.156 29.156,12.2 50,12.2 70.844,12.2 87.8,29.156 87.8,50 87.8,70.844 70.844,87.8 50,87.8 Z"
           id="path873"
           inkscape:connector-curvature="0"
           style="stroke-width:0.62099999" /><circle
           cx="50.435001"
           cy="30.062"
           r="6.987"
           id="circle875"
           style="stroke-width:0.62099999" /><path
           d="M 58.875,66.859 H 56.372 V 42.377 c 0,-1.094 -0.886,-1.979 -1.979,-1.979 H 43.041 c -1.093,0 -1.979,0.885 -1.979,1.979 v 3.957 c 0,1.094 0.886,1.98 1.979,1.98 h 2.502 v 18.545 h -2.502 c -1.093,0 -1.979,0.887 -1.979,1.979 v 3.957 c 0,1.093 0.886,1.979 1.979,1.979 h 15.833 c 1.092,0 1.978,-0.885 1.978,-1.979 h 0.002 v -3.958 c 0,-1.091 -0.887,-1.978 -1.979,-1.978 z"
           id="path877"
           inkscape:connector-curvature="0"
           style="stroke-width:0.62099999" /></svg>    </g>
  </g>
</svg>
