<svg xmlns="http://www.w3.org/2000/svg" version="1.1" width="16pt" height="16pt" viewBox="0 0 32 32" x="0px" y="0px"><title>qr-code</title><path d="M4.517 1.612c-1.606 0-2.904 1.298-2.904 2.904v2.928c0 1.606 1.298 2.904 2.904 2.904h2.928c1.606 0 2.904-1.298 2.904-2.904v-2.928c0-1.606-1.298-2.904-2.904-2.904zM15.675 1.612v1.119h1.12v-1.119zM24.555 1.612c-1.606 0-2.904 1.298-2.904 2.904v2.928c0 1.606 1.298 2.904 2.904 2.904h2.928c1.606 0 2.904-1.298 2.904-2.904v-2.928c0-1.606-1.298-2.904-2.904-2.904zM4.517 2.732h2.928c0.978 0 1.785 0.806 1.785 1.785v2.928c0 0.978-0.806 1.785-1.785 1.785h-2.928c-0.978 0-1.785-0.806-1.785-1.785v-2.928c0-0.978 0.806-1.785 1.785-1.785zM24.555 2.732h2.928c0.978 0 1.785 0.806 1.785 1.785v2.928c0 0.978-0.806 1.785-1.785 1.785h-2.928c-0.978 0-1.785-0.806-1.785-1.785v-2.928c0-0.978 0.806-1.785 1.785-1.785zM13.331 3.956v3.289h1.12v-3.289zM18.018 6.123v1.12h1.119v-1.12zM15.675 8.467v2.344h-2.344v1.12h3.463v-3.463zM3.956 13.154v1.12h1.119v-1.12zM8.643 13.154v1.12h3.463v-1.12zM18.018 13.154v3.463h1.119v-3.463zM24.991 13.154v1.12h3.053v-1.12zM29.268 15.441v2.342h-4.219v1.119h5.338v-3.461zM6.3 15.498v1.12h1.119v-1.12zM22.706 15.498v1.12h1.119v-1.12zM1.612 15.5v3.463h1.12v-3.463zM13.331 15.5v3.463h1.12v-3.463zM8.585 17.842v1.119h1.12v-1.119zM20.362 17.844v1.119h1.119v-1.119zM15.675 20.129v1.119h1.12v-1.119zM4.517 21.653c-1.606 0-2.904 1.296-2.904 2.903v2.93c0 1.606 1.297 2.903 2.904 2.903h2.928c1.606 0 2.904-1.296 2.904-2.903v-2.93c0-1.606-1.297-2.903-2.904-2.903zM25.050 22.412v1.119h1.119v-1.119zM29.268 22.412v3.463h1.119v-3.463zM18.018 22.414v1.119h3.463v-1.119zM13.331 22.472v3.228h1.12v-3.228zM4.517 22.77h2.928c0.978 0 1.785 0.806 1.785 1.785v2.928c0 0.978-0.806 1.785-1.785 1.785h-2.928c-0.978 0-1.785-0.806-1.785-1.785v-2.928c0-0.978 0.806-1.785 1.785-1.785zM22.706 24.757v1.119h1.119v-1.119zM15.675 26.925v3.463h1.12v-2.344h2.344v-1.119zM25.050 27.101v3.287h1.119v-2.167h1.875v-1.119zM20.303 29.268v1.119h1.119v-1.119z"></path></svg>