<svg height='20px' width='20px'  fill="#000000" xmlns="http://www.w3.org/2000/svg" xmlns:xlink="http://www.w3.org/1999/xlink" version="1.1" x="0px" y="0px" viewBox="0 0 100 100" style="enable-background:new 0 0 100 100;" xml:space="preserve"><path d="M71.1,69.3l0.4-0.5c6-7,9.3-15.8,9.3-25c0-21.1-17.2-38.3-38.3-38.3C21.4,5.5,4.3,22.7,4.3,43.8s17.2,38.3,38.3,38.3  c8.6,0,16.8-2.8,23.6-8.1l0.4-0.3l25.2,20.4l3.9-4.8L71.1,69.3z M42.6,75.9c-17.7,0-32.1-14.4-32.1-32.1c0-17.7,14.4-32.1,32.1-32.1  c17.7,0,32.1,14.4,32.1,32.1C74.7,61.5,60.3,75.9,42.6,75.9z"></path><polygon points="38.3,56.1 26.3,44.2 30.9,39.6 38.3,46.9 53.7,31.5 58.3,36.1 "></polygon></svg>