<?xml version="1.0" encoding="UTF-8"?>
<svg width="18px" height="18px" version="1.1" viewBox="0 0 1200 1200" xmlns="http://www.w3.org/2000/svg">
 <path d="m1162.5 262.5c0 9.9375-3.9375 19.5-10.969 26.531s-16.594 10.969-26.531 10.969h-1050c-20.719 0-37.5-16.781-37.5-37.5s16.781-37.5 37.5-37.5h1050c9.9375 0 19.5 3.9375 26.531 10.969s10.969 16.594 10.969 26.531zm-412.5 300h-675c-20.719 0-37.5 16.781-37.5 37.5s16.781 37.5 37.5 37.5h675c20.719 0 37.5-16.781 37.5-37.5s-16.781-37.5-37.5-37.5zm-375 337.5h-300c-20.719 0-37.5 16.781-37.5 37.5s16.781 37.5 37.5 37.5h300c20.719 0 37.5-16.781 37.5-37.5s-16.781-37.5-37.5-37.5z"/>
</svg>
