<?xml version="1.0" encoding="UTF-8"?>
<svg height='18px' width='18px' version="1.1" viewBox="0 0 1200 1200" xmlns="http://www.w3.org/2000/svg">
 <path d="m206.26 131.25c-4.9844 0-9.7617 1.9844-13.281 5.5078-3.5234 3.5273-5.5 8.3086-5.4922 13.293 0.003907 4.9844 1.9883 9.7617 5.5195 13.281l436.66 436.67-436.66 436.67c-3.5312 3.5195-5.5156 8.2969-5.5195 13.281-0.007812 4.9844 1.9688 9.7656 5.4922 13.289 3.5195 3.5273 8.2969 5.5078 13.281 5.5117h787.48c4.9688-0.007812 9.7344-1.9883 13.246-5.5 3.5156-3.5156 5.4922-8.2812 5.5039-13.25v-75h-37.574v56.18h-723.24l417.84-417.92-0.003906-0.003906c3.5078-3.5195 5.4766-8.2852 5.4766-13.254s-1.9688-9.7383-5.4766-13.258l-417.84-417.92h723.24v56.176h37.574v-74.926h0.003906c0.011719-4.9844-1.9609-9.7656-5.4766-13.297s-8.293-5.5195-13.273-5.5273z" fill="#fff" fill-rule="evenodd"/>
</svg>
