<?xml version="1.0" encoding="UTF-8"?>
<svg width="16" height="16" version="1.1" viewBox="0 0 1200 1200" xmlns="http://www.w3.org/2000/svg">
 <path d="m600 1140c-9.4688 0-18.609-3.7031-25.453-10.547l-504-504c-8.5312-8.5312-12.234-20.766-9.8438-32.531s10.547-21.609 21.703-26.156l233.53-95.391c50.297-111.98 160.13-183.37 284.06-183.37 73.078 0 140.39 25.219 193.55 67.453l285-284.9c14.062-14.062 36.844-14.062 50.859 0 14.062 14.062 14.062 36.844 0 50.859l-284.86 285.05c42.234 53.156 67.453 120.47 67.453 193.55 0 123.94-71.391 233.76-183.24 284.16l-95.391 233.53c-5.4375 13.312-18.984 22.453-33.375 22.312zm-440.29-527.16 427.45 427.45 71.391-174.71-324-324zm226.45-121.55 322.69 322.69c80.391-40.594 131.16-122.29 131.16-213.98 0-132.37-107.62-240-240-240-91.688 0-173.39 50.766-213.84 131.29z"/>
</svg>
