<svg height='16px' width='16px'  fill="#1A1A1A" xmlns="http://www.w3.org/2000/svg" xmlns:xlink="http://www.w3.org/1999/xlink" version="1.1" x="0px" y="0px" viewBox="0 0 50 50" style="enable-background:new 0 0 50 50;" xml:space="preserve"><g><g><path style="" d="M18.9-0.2c-0.3,0-0.6,0.1-0.8,0.3h1.7C19.5-0.1,19.2-0.2,18.9-0.2z" fill="none"></path></g><g><path d="M12.4,17.7c-2.9,0-5.2-2.3-5.2-5.2s2.3-5.2,5.2-5.2s5.2,2.3,5.2,5.2S15.3,17.7,12.4,17.7z M12.4,9.2    c-1.8,0-3.2,1.4-3.2,3.2s1.4,3.2,3.2,3.2s3.2-1.4,3.2-3.2S14.2,9.2,12.4,9.2z"></path></g><g><path d="M21.6,2l25.6,25.6L27.5,47.2L2,21.7L2.1,2H21.6 M22.4,0H0.1L0,22.5L27.5,50L50,27.6L22.4,0L22.4,0z"></path></g></g></svg>