<svg height='100px' width='100px'  fill="#1A1A1A" xmlns:dc="http://purl.org/dc/elements/1.1/" xmlns:cc="http://creativecommons.org/ns#" xmlns:rdf="http://www.w3.org/1999/02/22-rdf-syntax-ns#" xmlns:svg="http://www.w3.org/2000/svg" xmlns="http://www.w3.org/2000/svg" xmlns:sodipodi="http://sodipodi.sourceforge.net/DTD/sodipodi-0.dtd" xmlns:inkscape="http://www.inkscape.org/namespaces/inkscape" version="1.1" x="0px" y="0px" viewBox="0 0 100 100"><g transform="translate(0,-952.36218)"><path style="text-indent:0;text-transform:none;direction:ltr;block-progression:tb;baseline-shift:baseline;color:#000000;enable-background:accumulate;" d="m 50.000001,959.36217 c -23.71262,0 -43,19.2874 -43,43.00003 0,23.7126 19.28738,43 43,43 23.71263,0 42.999998,-19.2874 42.999998,-43 0,-23.71263 -19.287368,-43.00003 -42.999998,-43.00003 z m 0,6 c 20.46995,0 36.999998,16.53002 36.999998,37.00003 0,20.47 -16.530028,37 -36.999998,37 -20.46994,0 -37,-16.53 -37,-37 0,-20.47001 16.53006,-37.00003 37,-37.00003 z m 0,5 c -1.6568,0 -3,1.3432 -3,3 l 0,29.00003 c 0,0.8284 0.3321,1.5821 0.875,2.125 l 19.09375,19.0937 c 1.17154,1.1715 3.0784,1.1716 4.25,0 1.17154,-1.1714 1.17154,-3.0785 0,-4.25 l -18.21875,-18.2187 0,-27.75003 c 0,-1.6568 -1.3431,-3 -3,-3 z" fill="#1A1A1A" fill-opacity="1" stroke="none" marker="none" visibility="visible" display="inline" overflow="visible"></path></g></svg>