<?xml version="1.0" encoding="UTF-8"?>
<svg width="16pt" height="16pt" version="1.1" viewBox="0 0 1200 1200" xmlns="http://www.w3.org/2000/svg">
 <path d="m1063.1 652.5v206.25c0 56.25-46.875 103.12-103.12 103.12h-708.75c-56.25 0-103.12-46.875-103.12-103.12v-206.25c0-15 13.125-28.125 28.125-28.125s28.125 13.125 28.125 28.125v206.25c0 26.25 20.625 46.875 46.875 46.875h708.75c26.25 0 46.875-20.625 46.875-46.875v-206.25c0-15 13.125-28.125 28.125-28.125s28.125 11.25 28.125 28.125zm-403.12-431.25c-15-15-35.625-22.5-54.375-22.5s-39.375 7.5-54.375 22.5l-131.25 131.25c-11.25 11.25-11.25 28.125 0 39.375s28.125 11.25 39.375 0l118.12-118.12v459.38c0 15 13.125 28.125 28.125 28.125s28.125-13.125 28.125-28.125v-457.5l118.12 118.12c11.25 11.25 28.125 11.25 39.375 0s11.25-28.125 0-39.375z" fill="#000000"/>
</svg>
