<?xml version="1.0" encoding="UTF-8" standalone="no"?>
<svg
   width="16pt"
   height="16pt"
   version="1.1"
   viewBox="0 0 1200 1200"
   id="svg167"
   sodipodi:docname="upload_small.svg"
   inkscape:version="1.1 (c4e8f9e, 2021-05-24)"
   xmlns:inkscape="http://www.inkscape.org/namespaces/inkscape"
   xmlns:sodipodi="http://sodipodi.sourceforge.net/DTD/sodipodi-0.dtd"
   xmlns="http://www.w3.org/2000/svg"
   xmlns:svg="http://www.w3.org/2000/svg">
  <defs
     id="defs171" />
  <sodipodi:namedview
     id="namedview169"
     pagecolor="#ffffff"
     bordercolor="#666666"
     borderopacity="1.0"
     inkscape:pageshadow="2"
     inkscape:pageopacity="0.0"
     inkscape:pagecheckerboard="0"
     inkscape:document-units="pt"
     showgrid="false"
     inkscape:zoom="35.296875"
     inkscape:cx="7.3802568"
     inkscape:cy="11.00664"
     inkscape:window-width="1296"
     inkscape:window-height="1003"
     inkscape:window-x="638"
     inkscape:window-y="46"
     inkscape:window-maximized="0"
     inkscape:current-layer="svg167" />
  <path
     d="m 1063.1,888.35657 v 206.25003 c 0,56.25 -46.875,103.12 -103.12,103.12 H 251.23 c -56.25,0 -103.12,-46.875 -103.12,-103.12 V 888.35657 c 0,-15 13.125,-28.125 28.125,-28.125 15,0 28.125,13.125 28.125,28.125 v 206.25003 c 0,26.25 20.625,46.875 46.875,46.875 h 708.75 c 26.25,0 46.875,-20.625 46.875,-46.875 V 888.35657 c 0,-15 13.125,-28.125 28.125,-28.125 15,0 28.125,11.25 28.125,28.125 z m -403.12,-431.25 c -15,-15 -35.625,-22.5 -54.375,-22.5 -18.75,0 -39.375,7.5 -54.375,22.5 l -131.25,131.25 c -11.25,11.25 -11.25,28.125 0,39.375 11.25,11.25 28.125,11.25 39.375,0 l 118.12,-118.12 v 459.38 c 0,15 13.125,28.125 28.125,28.125 15,0 28.125,-13.125 28.125,-28.125 v -457.5 l 118.12,118.12 c 11.25,11.25 28.125,11.25 39.375,0 11.25,-11.25 11.25,-28.125 0,-39.375 z"
     fill="#000000"
     id="path165" />
</svg>
