<?xml version="1.0" encoding="UTF-8" standalone="no"?>
<svg
   xmlns:osb="http://www.openswatchbook.org/uri/2009/osb"
   xmlns:dc="http://purl.org/dc/elements/1.1/"
   xmlns:cc="http://creativecommons.org/ns#"
   xmlns:rdf="http://www.w3.org/1999/02/22-rdf-syntax-ns#"
   xmlns:svg="http://www.w3.org/2000/svg"
   xmlns="http://www.w3.org/2000/svg"
   xmlns:xlink="http://www.w3.org/1999/xlink"
   xmlns:sodipodi="http://sodipodi.sourceforge.net/DTD/sodipodi-0.dtd"
   xmlns:inkscape="http://www.inkscape.org/namespaces/inkscape"
   version="1.1"
   preserveAspectRatio="xMidYMid meet"
   viewBox="0 0 640 640"
   width="640"
   height="640"
   id="svg2220"
   sodipodi:docname="InterSpecLogoPeaks.svg"
   inkscape:version="0.92.2 5c3e80d, 2017-08-06">
  <metadata
     id="metadata2224">
    <rdf:RDF>
      <cc:Work
         rdf:about="">
        <dc:format>image/svg+xml</dc:format>
        <dc:type
           rdf:resource="http://purl.org/dc/dcmitype/StillImage" />
        <dc:title></dc:title>
      </cc:Work>
    </rdf:RDF>
  </metadata>
  <sodipodi:namedview
     pagecolor="#ffffff"
     bordercolor="#666666"
     borderopacity="1"
     objecttolerance="10"
     gridtolerance="10"
     guidetolerance="10"
     inkscape:pageopacity="0"
     inkscape:pageshadow="2"
     inkscape:window-width="1532"
     inkscape:window-height="1005"
     id="namedview2222"
     showgrid="false"
     inkscape:snap-bbox="false"
     inkscape:zoom="1.0429825"
     inkscape:cx="319.04121"
     inkscape:cy="281.64845"
     inkscape:window-x="0"
     inkscape:window-y="0"
     inkscape:window-maximized="0"
     inkscape:current-layer="svg2220" />
  <defs
     id="defs2070">
    <marker
       inkscape:stockid="Arrow1Lstart"
       orient="auto"
       refY="0.0"
       refX="0.0"
       id="Arrow1Lstart"
       style="overflow:visible"
       inkscape:isstock="true">
      <path
         id="path4527"
         d="M 0.0,0.0 L 5.0,-5.0 L -12.5,0.0 L 5.0,5.0 L 0.0,0.0 z "
         style="fill-rule:evenodd;stroke:#000000;stroke-width:1.0pt"
         transform="scale(0.8) translate(12.5,0)" />
    </marker>
    <linearGradient
       id="linearGradient4511"
       osb:paint="solid">
      <stop
         style="stop-color:#000000;stop-opacity:1;"
         offset="0"
         id="stop4509" />
    </linearGradient>
    <path
       d="M615.41 58.13C615.41 58.13 615.41 58.13 615.41 58.13C615.41 395.23 615.41 582.5 615.41 619.96C615.41 619.96 615.41 619.96 615.41 619.96C273.92 619.96 84.2 619.96 46.25 619.96C46.25 619.96 46.25 619.96 46.25 619.96C46.25 282.86 46.25 95.58 46.25 58.13C46.25 58.13 46.25 58.13 46.25 58.13C387.75 58.13 577.47 58.13 615.41 58.13Z"
       id="byHI267cg" />
    <path
       d="M321.87 335.62C321.87 323.78 331.49 314.18 343.34 314.18C355.19 314.18 364.79 323.78 364.79 335.62C364.79 347.47 355.19 357.09 343.34 357.09C331.49 357.09 321.87 347.47 321.87 335.62Z"
       id="cimaQGRFS" />
    <path
       d="M371.91 286.11C379.06 273.73 436.26 174.7 443.41 162.32C413.92 145.27 379.82 135.35 343.33 135.35C306.84 135.35 272.74 145.27 243.26 162.32C250.41 174.7 307.6 273.73 314.75 286.11C323.17 281.23 332.92 278.41 343.34 278.41C353.77 278.41 363.5 281.24 371.91 286.11Z"
       id="f1lY3IeU42" />
    <path
       d="M443.41 508.94C503.26 474.31 543.62 409.74 543.62 335.62C529.31 335.62 414.86 335.62 400.55 335.62C400.55 356.79 389.02 375.24 371.92 385.15C386.22 409.91 436.27 496.56 443.41 508.94Z"
       id="b4gnFE18Pu" />
    <path
       d="M143.05 335.62C143.05 409.75 183.42 474.31 243.28 508.94C250.42 496.56 307.59 397.53 314.74 385.15C297.64 375.24 286.1 356.79 286.1 335.62C257.49 335.62 157.35 335.62 143.05 335.62Z"
       id="cpaUxpMiS" />
    <path
       d="M129.63 293.08L133 293.08L133 288.08L136.37 288.08L136.37 278.67L139.73 278.67L139.73 265.37L143.1 265.37L143.1 248.65L146.47 248.65L146.47 232.22L149.84 232.22L149.84 219.7L153.21 219.7L153.21 212.59L156.58 212.59L156.58 212.37L159.95 212.37L159.95 215.43L163.32 215.43L163.32 219.53L166.69 219.53L166.69 219.77L170.06 219.77L170.06 220.84L173.43 220.84L173.43 223.7L176.8 223.7L176.8 227.78L180.17 227.78L180.17 230.96L183.55 230.96L183.55 233.71L186.91 233.71L186.91 233.81L190.29 233.81L190.29 232.57L193.66 232.57L193.66 229.99L197.03 229.99L197.03 227.15L200.4 227.15L200.4 224.43L203.77 224.43L203.77 223.64L207.14 223.64L207.14 223.31L210.51 223.31L210.51 224.6L213.88 224.6L213.88 226.23L217.25 226.23L217.25 228.12L220.62 228.12L220.62 229.68L223.99 229.68L223.99 229.98L227.37 229.98L227.37 230.8L230.74 230.8L230.74 231.38L234.11 231.38L234.11 232.51L237.48 232.51L237.48 231.95L240.85 231.95L240.85 230.93L244.22 230.93L244.22 228.49L247.59 228.49L247.59 223.71L250.97 223.71L250.97 216.82L254.34 216.82L254.34 210.29L257.71 210.29L257.71 204.28L261.08 204.28L261.08 200.93L264.45 200.93L264.45 201.34L267.83 201.34L267.83 206.94L271.2 206.94L271.2 216.45L274.57 216.45L274.57 230.68L277.94 230.68L277.94 246.2L281.31 246.2L281.31 261.93L284.69 261.93L284.69 275.44L288.06 275.44L288.06 286.14L291.43 286.14L291.43 293.08L294.8 293.08L294.8 297.14L298.17 297.14L298.17 299.48L301.55 299.48L301.55 301.43L304.92 301.43L304.92 302.48L308.29 302.48L308.29 304L311.66 304L311.66 305.52L315.04 305.52L315.04 305.45L318.41 305.45L318.41 305.55L321.78 305.55L321.78 306.7L325.16 306.7L325.16 307.42L328.53 307.42L328.53 309.12L331.9 309.12L331.9 309.96L335.27 309.96L335.27 311.64L338.65 311.64L338.65 313.6L342.02 313.6L342.02 315.62L345.39 315.62L345.39 318L348.77 318L348.77 318.7L352.14 318.7L352.14 320.3L355.51 320.3L355.51 320.24L358.88 320.24L358.88 320.01L362.26 320.01L362.26 318.76L365.63 318.76L365.63 317.6L369 317.6L369 315.84L372.38 315.84L372.38 312.9L375.75 312.9L375.75 309.55L379.12 309.55L379.12 307.69L382.5 307.69L382.5 304.32L385.87 304.32L385.87 301.73L389.24 301.73L389.24 299.58L392.62 299.58L392.62 297.95L395.99 297.95L395.99 297.92L399.37 297.92L399.37 298.82L402.74 298.82L402.74 301.75L406.11 301.75L406.11 306.53L409.49 306.53L409.49 313.46L412.86 313.46L412.86 320.22L416.23 320.22L416.23 326.03L419.61 326.03L419.61 332.38L422.98 332.38L422.98 336.47L426.36 336.47L426.36 339.34L429.73 339.34L429.73 342.07L433.1 342.07L433.1 342.12L436.48 342.12L436.48 341.45L439.85 341.45L439.85 342.54L443.22 342.54L443.22 343.33L446.6 343.33L446.6 345.57L449.97 345.57L449.97 349.08L453.35 349.08L453.35 354.3L456.72 354.3L456.72 360.5L460.09 360.5L460.09 367.6L463.47 367.6L463.47 373.55L466.84 373.55L466.84 379.99L470.22 379.99L470.22 387.22L473.59 387.22L473.59 391.4L476.96 391.4L476.96 396.77L480.34 396.77L480.34 400.3L483.71 400.3L483.71 403.08L487.09 403.08L487.09 407.28L490.46 407.28L490.46 411.06L493.84 411.06L493.84 415.61L497.21 415.61L497.21 419.91L500.58 419.91L500.58 427.3L503.96 427.3L503.96 434.74L507.33 434.74L507.33 441.94L510.71 441.94L510.71 447.05L514.08 447.05L514.08 455.68L517.45 455.68L517.45 464.35L520.83 464.35L520.83 469.86L524.2 469.86L524.2 473.61L527.58 473.61L527.58 477.4L530.95 477.4L530.95 484.65L534.33 484.65L534.33 486.45L537.7 486.45L537.7 491.82"
       id="af2NdBCWJ" />
    <path
       d="M103.36 516.29L103.36 116.32"
       id="gqyAmIkF8" />
    <path
       d="M140.94 557.85L540.94 557.85"
       id="bJs4Lgq7V" />
    <filter
       inkscape:collect="always"
       style="color-interpolation-filters:sRGB"
       id="filter5141"
       x="-0.024113221"
       width="1.0482264"
       y="-0.023887838"
       height="1.0477757">
      <feGaussianBlur
         inkscape:collect="always"
         stdDeviation="1.7251"
         id="feGaussianBlur5143" />
    </filter>
    <filter
       inkscape:collect="always"
       style="color-interpolation-filters:sRGB"
       id="filter5149"
       x="-0.021038821"
       width="1.0420776"
       y="-0.027931282"
       height="1.0558626">
      <feGaussianBlur
         inkscape:collect="always"
         stdDeviation="1.75455"
         id="feGaussianBlur5151" />
    </filter>
    <filter
       inkscape:collect="always"
       style="color-interpolation-filters:sRGB"
       id="filter5165"
       x="-0.023997204"
       width="1.0479944"
       y="-0.024002797"
       height="1.0480056">
      <feGaussianBlur
         inkscape:collect="always"
         stdDeviation="0.42915"
         id="feGaussianBlur5167" />
    </filter>
    <filter
       inkscape:collect="always"
       style="color-interpolation-filters:sRGB"
       id="filter5173"
       x="-0.024113926"
       width="1.0482279"
       y="-0.023887145"
       height="1.0477743">
      <feGaussianBlur
         inkscape:collect="always"
         stdDeviation="1.72505"
         id="feGaussianBlur5175" />
    </filter>
  </defs>
  <g
     id="g2078">
    <use
       xlink:href="#byHI267cg"
       id="use2072"
       style="opacity:1;fill:#efcb93;fill-opacity:1"
       x="0"
       y="0"
       width="100%"
       height="100%" />
    <g
       id="g2076">
      <use
         xlink:href="#byHI267cg"
         id="use2074"
         style="opacity:1;fill-opacity:0;stroke:#000000;stroke-width:1;stroke-opacity:0"
         x="0"
         y="0"
         width="100%"
         height="100%" />
    </g>
  </g>
  <g
     id="g2106"
     style="stroke:#000000;stroke-opacity:1;filter:url(#filter5165);opacity:0.2;stroke-linejoin:round;stroke-width:5;stroke-miterlimit:4;stroke-dasharray:none;stroke-linecap:butt">
    <use
       xlink:href="#cimaQGRFS"
       id="use2080"
       style="opacity:0.38999999;fill:#000000;fill-opacity:0;stroke:#000000;stroke-opacity:1;stroke-linejoin:round;stroke-width:5;stroke-miterlimit:4;stroke-dasharray:none;stroke-linecap:butt"
       x="0"
       y="0"
       width="100%"
       height="100%" />
    <g
       id="g2084"
       style="stroke:#000000;stroke-opacity:1;stroke-linejoin:round;stroke-width:5;stroke-miterlimit:4;stroke-dasharray:none;stroke-linecap:butt">
      <use
         xlink:href="#cimaQGRFS"
         id="use2082"
         style="opacity:0.38999999;fill-opacity:0;stroke:#000000;stroke-width:5;stroke-opacity:1;stroke-linejoin:round;stroke-miterlimit:4;stroke-dasharray:none;stroke-linecap:butt"
         x="0"
         y="0"
         width="100%"
         height="100%" />
    </g>
    <g
       id="g2104"
       style="stroke:#000000;stroke-opacity:1;stroke-linejoin:round;stroke-width:5;stroke-miterlimit:4;stroke-dasharray:none;stroke-linecap:butt">
      <filter
         id="shadow13376980"
         x="287.87"
         y="280.17999"
         width="112.92"
         height="113.91"
         filterUnits="userSpaceOnUse"
         primitiveUnits="userSpaceOnUse">
        <feFlood
           id="feFlood2086" />
        <feComposite
           in2="SourceAlpha"
           operator="out"
           id="feComposite2088" />
        <feGaussianBlur
           stdDeviation="3.32"
           id="feGaussianBlur2090" />
        <feOffset
           dx="2"
           dy="3"
           result="afterOffset"
           id="feOffset2092" />
        <feFlood
           flood-color="#a4720c"
           flood-opacity="1"
           id="feFlood2094" />
        <feComposite
           in2="afterOffset"
           operator="in"
           id="feComposite2096" />
        <feMorphology
           operator="dilate"
           radius="4"
           id="feMorphology2098" />
        <feComposite
           in2="SourceAlpha"
           operator="in"
           id="feComposite2100" />
      </filter>
      <path
         d="m 321.87,335.62 c 0,-11.84 9.62,-21.44 21.47,-21.44 11.85,0 21.45,9.6 21.45,21.44 0,11.85 -9.6,21.47 -21.45,21.47 -11.85,0 -21.47,-9.62 -21.47,-21.47 z"
         id="d13wtb1d"
         inkscape:connector-curvature="0"
         style="fill:#ffffff;fill-opacity:1;filter:url(#shadow13376980);stroke:#000000;stroke-opacity:1;stroke-linejoin:round;stroke-width:5;stroke-miterlimit:4;stroke-dasharray:none;stroke-linecap:butt" />
    </g>
  </g>
  <g
     id="g2134"
     style="stroke-width:5;stroke-miterlimit:4;stroke-dasharray:none;stroke:#000000;stroke-opacity:1;opacity:0.2;stroke-linejoin:round;filter:url(#filter5149)">
    <use
       xlink:href="#f1lY3IeU42"
       id="use2108"
       style="opacity:0.38999999;fill:#000000;fill-opacity:0;stroke-width:5;stroke-miterlimit:4;stroke-dasharray:none;stroke:#000000;stroke-opacity:1;stroke-linejoin:round"
       x="0"
       y="0"
       width="100%"
       height="100%" />
    <g
       id="g2112"
       style="stroke-width:5;stroke-miterlimit:4;stroke-dasharray:none;stroke:#000000;stroke-opacity:1;stroke-linejoin:round">
      <use
         xlink:href="#f1lY3IeU42"
         id="use2110"
         style="opacity:0.38999999;fill-opacity:0;stroke:#000000;stroke-width:5;stroke-opacity:1;stroke-miterlimit:4;stroke-dasharray:none;stroke-linejoin:round"
         x="0"
         y="0"
         width="100%"
         height="100%" />
    </g>
    <g
       id="g2132"
       style="stroke-width:5;stroke-miterlimit:4;stroke-dasharray:none;stroke:#000000;stroke-opacity:1;stroke-linejoin:round">
      <filter
         id="shadow920900"
         x="209.25999"
         y="101.35"
         width="270.14001"
         height="221.77"
         filterUnits="userSpaceOnUse"
         primitiveUnits="userSpaceOnUse">
        <feFlood
           id="feFlood2114" />
        <feComposite
           in2="SourceAlpha"
           operator="out"
           id="feComposite2116" />
        <feGaussianBlur
           stdDeviation="3.32"
           id="feGaussianBlur2118" />
        <feOffset
           dx="2"
           dy="3"
           result="afterOffset"
           id="feOffset2120" />
        <feFlood
           flood-color="#a4720c"
           flood-opacity="1"
           id="feFlood2122" />
        <feComposite
           in2="afterOffset"
           operator="in"
           id="feComposite2124" />
        <feMorphology
           operator="dilate"
           radius="4"
           id="feMorphology2126" />
        <feComposite
           in2="SourceAlpha"
           operator="in"
           id="feComposite2128" />
      </filter>
      <path
         d="m 371.91,286.11 c 7.15,-12.38 64.35,-111.41 71.5,-123.79 -29.49,-17.05 -63.59,-26.97 -100.08,-26.97 -36.49,0 -70.59,9.92 -100.07,26.97 7.15,12.38 64.34,111.41 71.49,123.79 8.42,-4.88 18.17,-7.7 28.59,-7.7 10.43,0 20.16,2.83 28.57,7.7 z"
         id="csaa27IHT"
         inkscape:connector-curvature="0"
         style="fill:#ffffff;fill-opacity:1;filter:url(#shadow920900);stroke-width:5;stroke-miterlimit:4;stroke-dasharray:none;stroke:#000000;stroke-opacity:1;stroke-linejoin:round" />
    </g>
  </g>
  <g
     id="g2162"
     style="stroke:#000000;stroke-opacity:1;stroke-width:5;stroke-miterlimit:4;stroke-dasharray:none;stroke-linejoin:round;opacity:0.2;filter:url(#filter5141)">
    <use
       xlink:href="#b4gnFE18Pu"
       id="use2136"
       style="opacity:0.38999999;fill:#000000;fill-opacity:0;stroke:#000000;stroke-opacity:1;stroke-width:5;stroke-miterlimit:4;stroke-dasharray:none;stroke-linejoin:round"
       x="0"
       y="0"
       width="100%"
       height="100%" />
    <g
       id="g2140"
       style="stroke:#000000;stroke-opacity:1;stroke-width:5;stroke-miterlimit:4;stroke-dasharray:none;stroke-linejoin:round">
      <use
         xlink:href="#b4gnFE18Pu"
         id="use2138"
         style="opacity:0.38999999;fill-opacity:0;stroke:#000000;stroke-width:5;stroke-opacity:1;stroke-miterlimit:4;stroke-dasharray:none;stroke-linejoin:round"
         x="0"
         y="0"
         width="100%"
         height="100%" />
    </g>
    <g
       id="g2160"
       style="stroke:#000000;stroke-opacity:1;stroke-width:5;stroke-miterlimit:4;stroke-dasharray:none;stroke-linejoin:round">
      <filter
         id="shadow11802917"
         x="337.92001"
         y="301.62"
         width="241.7"
         height="244.32001"
         filterUnits="userSpaceOnUse"
         primitiveUnits="userSpaceOnUse">
        <feFlood
           id="feFlood2142" />
        <feComposite
           in2="SourceAlpha"
           operator="out"
           id="feComposite2144" />
        <feGaussianBlur
           stdDeviation="3.32"
           id="feGaussianBlur2146" />
        <feOffset
           dx="2"
           dy="3"
           result="afterOffset"
           id="feOffset2148" />
        <feFlood
           flood-color="#a4720c"
           flood-opacity="1"
           id="feFlood2150" />
        <feComposite
           in2="afterOffset"
           operator="in"
           id="feComposite2152" />
        <feMorphology
           operator="dilate"
           radius="4"
           id="feMorphology2154" />
        <feComposite
           in2="SourceAlpha"
           operator="in"
           id="feComposite2156" />
      </filter>
      <path
         d="m 443.41,508.94 c 59.85,-34.63 100.21,-99.2 100.21,-173.32 -14.31,0 -128.76,0 -143.07,0 0,21.17 -11.53,39.62 -28.63,49.53 14.3,24.76 64.35,111.41 71.49,123.79 z"
         id="bB2SgpeMA"
         inkscape:connector-curvature="0"
         style="fill:#ffffff;fill-opacity:1;filter:url(#shadow11802917);stroke:#000000;stroke-opacity:1;stroke-width:5;stroke-miterlimit:4;stroke-dasharray:none;stroke-linejoin:round" />
    </g>
  </g>
  <g
     id="g2190"
     style="stroke:#000000;stroke-opacity:1;filter:url(#filter5173);opacity:0.2">
    <use
       xlink:href="#cpaUxpMiS"
       id="use2164"
       style="opacity:0.38999999;fill:#000000;fill-opacity:0;stroke:#000000;stroke-opacity:1"
       x="0"
       y="0"
       width="100%"
       height="100%" />
    <g
       id="g2168"
       style="stroke:#000000;stroke-opacity:1">
      <use
         xlink:href="#cpaUxpMiS"
         id="use2166"
         style="opacity:0.38999999;fill-opacity:0;stroke:#000000;stroke-width:8;stroke-opacity:1"
         x="0"
         y="0"
         width="100%"
         height="100%" />
    </g>
    <g
       id="g2188"
       style="stroke:#000000;stroke-opacity:1">
      <filter
         id="shadow11575472"
         x="109.05"
         y="301.62"
         width="241.69"
         height="244.32001"
         filterUnits="userSpaceOnUse"
         primitiveUnits="userSpaceOnUse">
        <feFlood
           id="feFlood2170" />
        <feComposite
           in2="SourceAlpha"
           operator="out"
           id="feComposite2172" />
        <feGaussianBlur
           stdDeviation="3.32"
           id="feGaussianBlur2174" />
        <feOffset
           dx="2"
           dy="3"
           result="afterOffset"
           id="feOffset2176" />
        <feFlood
           flood-color="#a4720c"
           flood-opacity="1"
           id="feFlood2178" />
        <feComposite
           in2="afterOffset"
           operator="in"
           id="feComposite2180" />
        <feMorphology
           operator="dilate"
           radius="4"
           id="feMorphology2182" />
        <feComposite
           in2="SourceAlpha"
           operator="in"
           id="feComposite2184" />
      </filter>
      <path
         d="m 143.05,335.62 c 0,74.13 40.37,138.69 100.23,173.32 7.14,-12.38 64.31,-111.41 71.46,-123.79 -17.1,-9.91 -28.64,-28.36 -28.64,-49.53 -28.61,0 -128.75,0 -143.05,0 z"
         id="cq8vpBaCq"
         inkscape:connector-curvature="0"
         style="fill:#ffffff;fill-opacity:1;filter:url(#shadow11575472);stroke:#000000;stroke-opacity:1" />
    </g>
  </g>
  <g
     id="g2198">
    <use
       xlink:href="#af2NdBCWJ"
       id="use2192"
       style="opacity:1;fill:#000000;fill-opacity:0"
       x="0"
       y="0"
       width="100%"
       height="100%" />
    <g
       id="g2196">
      <use
         xlink:href="#af2NdBCWJ"
         id="use2194"
         style="opacity:1;fill-opacity:0;stroke:#ae2e20;stroke-width:12;stroke-opacity:1"
         x="0"
         y="0"
         width="100%"
         height="100%" />
    </g>
  </g>
  <g
     id="g2206"
     style="stroke-width:6;stroke-miterlimit:4;stroke-dasharray:none;stroke:#000000;stroke-opacity:1;stroke-linecap:round;opacity:0.51">
    <use
       xlink:href="#gqyAmIkF8"
       id="use2200"
       style="opacity:1;fill:#000000;fill-opacity:1;stroke-width:6;stroke-miterlimit:4;stroke-dasharray:none;stroke:#000000;stroke-opacity:1;stroke-linecap:round"
       x="0"
       y="0"
       width="100%"
       height="100%" />
    <g
       id="g2204"
       style="stroke-width:6;stroke-miterlimit:4;stroke-dasharray:none;stroke:#000000;stroke-opacity:1;stroke-linecap:round">
      <use
         xlink:href="#gqyAmIkF8"
         id="use2202"
         style="opacity:1;fill-opacity:0;stroke:#000000;stroke-width:6;stroke-opacity:1;stroke-miterlimit:4;stroke-dasharray:none;stroke-linecap:round"
         x="0"
         y="0"
         width="100%"
         height="100%" />
    </g>
  </g>
  <use
     height="100%"
     width="100%"
     y="0"
     x="0"
     style="opacity:1;fill:#000000;fill-opacity:1"
     id="use2208"
     xlink:href="#bJs4Lgq7V" />
  <g
     id="g2212"
     style="fill-opacity:1;fill:none;stroke:#000000;stroke-opacity:1;opacity:0.5;stroke-linecap:round;stroke-width:6;stroke-miterlimit:4;stroke-dasharray:none">
    <use
       height="100%"
       width="100%"
       y="0"
       x="0"
       style="opacity:1;fill-opacity:1;stroke:#000000;stroke-width:6;stroke-opacity:1;fill:none;stroke-linecap:round;stroke-miterlimit:4;stroke-dasharray:none"
       id="use2210"
       xlink:href="#bJs4Lgq7V" />
  </g>
</svg>
