<?xml version="1.0" encoding="UTF-8" standalone="no"?>
<svg
   xmlns:osb="http://www.openswatchbook.org/uri/2009/osb"
   xmlns:dc="http://purl.org/dc/elements/1.1/"
   xmlns:cc="http://creativecommons.org/ns#"
   xmlns:rdf="http://www.w3.org/1999/02/22-rdf-syntax-ns#"
   xmlns:svg="http://www.w3.org/2000/svg"
   xmlns="http://www.w3.org/2000/svg"
   xmlns:xlink="http://www.w3.org/1999/xlink"
   xmlns:sodipodi="http://sodipodi.sourceforge.net/DTD/sodipodi-0.dtd"
   xmlns:inkscape="http://www.inkscape.org/namespaces/inkscape"
   width="512"
   height="512"
   viewBox="0 0 512 512"
   version="1.1"
   id="svg6368"
   sodipodi:docname="InterSpec_logo_single_peak.svg"
   inkscape:version="0.92.2 5c3e80d, 2017-08-06">
  <metadata
     id="metadata6374">
    <rdf:RDF>
      <cc:Work
         rdf:about="">
        <dc:format>image/svg+xml</dc:format>
        <dc:type
           rdf:resource="http://purl.org/dc/dcmitype/StillImage" />
        <dc:title></dc:title>
      </cc:Work>
    </rdf:RDF>
  </metadata>
  <defs
     id="defs6372">
    <linearGradient
       id="linearGradient10990"
       osb:paint="solid">
      <stop
         style="stop-color:#d40000;stop-opacity:1;"
         offset="0"
         id="stop10988" />
    </linearGradient>
    <linearGradient
       inkscape:collect="always"
       id="linearGradient10846">
      <stop
         style="stop-color:#97d4f6;stop-opacity:1;"
         offset="0"
         id="stop10842" />
      <stop
         style="stop-color:#97d4f6;stop-opacity:0;"
         offset="1"
         id="stop10844" />
    </linearGradient>
    <clipPath
       id="clipchart1">
      <rect
         id="rect6223"
         height="425.46875"
         width="580.20312"
         y="0"
         x="0" />
    </clipPath>
    <linearGradient
       inkscape:collect="always"
       xlink:href="#linearGradient10846"
       id="linearGradient10848"
       x1="190.63034"
       y1="141.13152"
       x2="670.46027"
       y2="478.20572"
       gradientUnits="userSpaceOnUse"
       gradientTransform="matrix(0.88122619,0,0,1.2018282,-50.559998,-39.003908)" />
  </defs>
  <sodipodi:namedview
     pagecolor="#ffffff"
     bordercolor="#666666"
     borderopacity="1"
     objecttolerance="10"
     gridtolerance="10"
     guidetolerance="10"
     inkscape:pageopacity="0"
     inkscape:pageshadow="2"
     inkscape:window-width="1516"
     inkscape:window-height="953"
     id="namedview6370"
     showgrid="false"
     inkscape:zoom="1.3350176"
     inkscape:cx="339.28206"
     inkscape:cy="231.83862"
     inkscape:window-x="0"
     inkscape:window-y="0"
     inkscape:window-maximized="0"
     inkscape:current-layer="svg6368" />
  <rect
     y="0.074289709"
     x="1.253351"
     style="fill:url(#linearGradient10848);fill-opacity:1;stroke-width:1.02911735"
     id="chartareachart1"
     height="511.34033"
     width="511.29019" />
  <g
     id="g6232"
     style="display:none"
     class="refLineInfo"
     transform="translate(58.796875,44.515625)">
    <g
       id="g6228">
      <text
         id="text6226"
         dy="1em"
         x="0" />
    </g>
    <circle
       id="circle6230"
       style="fill:#ff0000"
       r="2"
       cy="425.46875"
       cx="0" />
  </g>
  <g
     id="g6235"
     clip-path="url(#clipchart1)"
     transform="matrix(0.88122625,0,0,0.94358612,1.2533501,82.651313)"
     style="opacity:0.74299999;fill:none;stroke:#484853;stroke-width:3;stroke-linejoin:round;stroke-miterlimit:4;stroke-dasharray:none;stroke-opacity:1">
    <path
       style="fill:none;stroke:#484853;stroke-width:3;stroke-linejoin:round;stroke-miterlimit:4;stroke-dasharray:none;stroke-opacity:1"
       inkscape:connector-curvature="0"
       d="M -0.17823163,150.33579 H 4.1204646 v 16.06516 h 4.2986886 v 19.6055 h 4.2986808 v 6.54324 h 4.298673 v -16.09113 h 4.298665 v 4.70749 h 4.298658 v 1.10495 h 4.298649 v 9.1057 h 4.298642 v 13.36655 h 4.298634 v -3.33734 h 4.298627 V 186.00645 H 47.107 v 22.14039 h 4.298611 v 9.72403 h 4.298603 v -23.74462 h 4.298596 v 14.45083 h 4.298587 v 2.16755 h 4.29858 v 8.95506 h 4.298572 v 2.31381 h 4.298564 v -5.50156 h 4.298557 v 25.23025 h 4.298549 v -2.59386 h 4.298541 v -0.51409 h 4.298533 v -9.97086 h 4.298525 v 12.55689 h 4.298522 v 5.2921 h 4.29851 v 17.52749 h 4.2985 v -27.44672 h 4.29849 v 8.31438 h 4.29849 v 6.51156 h 4.29848 v -5.44333 h 4.29847 v 9.92595 h 4.29846 v -14.15951 h 4.29846 v 19.34664 h 4.29845 v -22.96715 h 4.29844 v 16.64833 h 4.29843 v -7.17933 h 4.29842 v -10.99754 h 4.29842 v 14.82594 h 4.29841 v -4.90671 h 4.2984 v -10.42573 h 4.29839 v -3.50422 h 4.29839 v 5.53926 h 4.29838 v -6.52745 h 4.29837 v 3.48387 h 4.29836 v -2.49568 h 4.29835 v 10.73513 h 4.29835 v -23.61786 h 4.29834 v -5.42897 h 4.29833 v -18.95245 h 4.29832 v 6.08764 h 4.29832 v 2.49689 h 4.29831 v -11.35311 h 4.2983 v -17.86783 h 4.29829 v -12.27605 h 4.29829 v -14.20365 h 4.29827 v -12.55433 h 4.29827 v -25.33986 h 4.29826 v -0.485 h 4.29826 V 90.167991 h 4.29824 v -1.504904 h 4.29824 v -5.476771 h 4.29823 V 67.354965 h 4.29822 v -9.736816 h 4.29822 V 43.072483 h 4.29821 v 5.501557 h 4.2982 v -2.689475 h 4.29819 v -4.282367 h 4.29818 V 22.24167 h 4.29818 v 13.759688 h 4.29817 V 19.789244 h 4.29816 v 3.034601 h 4.29815 v 7.144804 h 4.29814 v -1.964637 h 4.29814 v 6.274211 h 4.29813 v 19.979778 h 4.29812 v -5.51446 h 4.29812 v 12.666716 h 4.2981 v 3.504758 h 4.2981 v 4.723452 h 4.29809 v 36.353043 h 4.29808 v 16.91026 h 4.29808 v 8.29977 h 4.29807 v 13.10725 h 4.29806 v 8.18752 h 4.29805 v 17.65048 h 4.29804 v 20.8407 h 4.29804 v 6.33607 h 4.29803 v 11.25352 h 4.29802 v 20.0863 h 4.29801 v 3.42423 h 4.29801 v 30.76573 h 4.29799 v 18.06411 h 4.29799 v 2.64794 h 4.29798 v 9.60374 h 4.29798 v -12.25168 h 4.29797 v 15.09739 h 4.29795 v 14.20228 h 4.29795 v 19.80474 h 4.29795 v -15.86318 h 4.29793 v 2.40918 h 4.29793 v 5.75667 h 4.29792 v 26.15065 h 4.29791 v -14.91814 h 4.29791 v -10.39412 h 4.29789 v 1.68918 h 4.29789 v 5.16976 h 4.29788 v -0.87253 h 4.29788 v 2.63101 h 4.29786 v 0 h 4.29786 v 0 h 4.29785 v -7.77491 h 4.29784 v 8.66096 h 4.29784 v -2.64453 h 4.29782 v -6.85894 h 4.29782 v 26.28919 h 4.29781 v -11.37105 h 4.29781 v 1.84358 h 4.29779 v 23.82329 h 4.29779 v -6.27328 h 4.29778 v -4.05819 h 4.29777 v 27.09894 h 4.29777 v -9.1462 h 4.29775 v 10.32456 h 4.29775 v 2.38129 h 4.29774 v -11.5889 h 4.29774 v 17.69099 h 4.29772 V 360.5826 h 4.29772 v 54.99153 h 4.29771 v -32.69386 h 4.2977 v 2.39795 h 4.2977 v -8.25007 h 4.29768 v 22.07407 h 4.29768 v 0 h 4.29767 v -19.75714 h 4.29767 v 19.75714 h 4.29765 v 3.97201 h 4.29765 v 22.39452"
       class="line"
       id="spectrumline0" />
  </g>
  <g
     id="g6308"
     style="display:none"
     transform="translate(639,469.98437)"
     class="mouseInfo">
    <rect
       id="rect6298"
       y="-3.0999999em"
       x="-12.5em"
       height="2.5em"
       width="119.08594"
       class="mouseInfoBox" />
    <g
       id="g6306">
      <text
         id="text6304"
         dy="-2em">
        <tspan
           id="tspan6300"
           dy="-1em"
           x="-12em">counts: 1045, y: 112.3</tspan>
        <tspan
           id="tspan6302"
           dy="-1em"
           x="-12em">1443.1 keV, chan: 474</tspan>
      </text>
    </g>
  </g>
  <g
     id="g6239"
     clip-path="url(#clipchart1)"
     class="peakVis"
     transform="matrix(0.88122625,0,0,0.94358612,1.2533501,82.651313)"
     style="opacity:0.628;fill:#ff6600;fill-opacity:1;stroke:#2927b7;stroke-width:4;stroke-miterlimit:4;stroke-dasharray:none;stroke-opacity:1">
    <path
       inkscape:connector-curvature="0"
       id="path6237"
       style="fill:#ff6600;fill-opacity:1;stroke:#2927b7;stroke-width:4;stroke-miterlimit:4;stroke-dasharray:none;stroke-opacity:1"
       class="roi spectrum-peak-0"
       d="m 128.77928,240.8926 2.14923,0.94624 4.29846,0.9515 4.29845,0.95679 4.29845,0.96216 4.29843,0.96759 4.29843,0.97307 4.29842,0.97862 4.29841,0.98423 4.29841,0.98991 4.2984,0.99566 4.29839,1.00146 4.29838,1.00735 4.29837,1.01329 4.29837,1.01931 4.29836,1.0254 4.29835,1.03156 4.29834,1.0378 4.29834,1.04412 4.29832,1.05051 4.29832,1.05698 4.29831,1.06353 4.29831,1.07017 4.2983,1.07687 4.29828,1.08368 4.29828,1.09057 4.29828,1.09754 4.29826,1.10461 4.29826,1.11177 4.29825,1.11901 4.29824,1.12636 4.29824,1.1338 4.29822,1.14135 4.29822,1.14899 4.29821,1.15673 4.29821,1.16458 4.29819,1.17254 4.29819,1.18061 4.29818,1.18879 4.29817,1.19709 4.29817,1.20549 4.29815,1.21402 4.29815,1.22268 4.29814,1.23145 4.29814,1.24035 4.29812,1.24938 4.29812,1.25855 4.29811,1.26785 4.2981,1.27728 4.2981,1.28687 4.29808,1.29659 4.29808,1.30646 4.29807,1.31649 4.29807,1.32667 4.29805,1.33701 4.29805,1.34751 4.29804,1.35817 4.29803,1.36902 4.29803,1.38002 4.29801,1.39122 4.29801,1.40259 4.298,1.41415 4.298,1.4259 4.29798,1.43786 4.29798,1.45 4.29797,1.46237 4.29796,1.47494 4.29796,1.48773 4.29795,1.50074 4.29794,1.51399 4.29793,1.52747 4.29792,1.54119 4.29792,1.55516 4.2979,1.56939 4.29791,1.58388 4.29789,1.59864 4.29788,1.61368 4.29788,1.629 4.29787,1.64462 4.29786,1.66053 4.29785,1.67677 4.29785,1.69332 v -0.11686 l -4.29785,-1.75362 -4.29785,-1.7654 -4.29786,-1.78934 -4.29787,-1.82969 -4.29788,-1.89189 -4.29788,-1.98275 -4.29789,-2.11065 -4.29791,-2.28554 -4.2979,-2.51894 -4.29792,-2.82355 -4.29792,-3.21267 -4.29793,-3.69922 -4.29794,-4.29421 -4.29795,-5.00496 -4.29796,-5.83284 -4.29796,-6.77133 -4.29797,-7.80414 -4.29798,-8.9047 -4.29798,-10.0368 -4.298,-11.15682 -4.298,-12.21752 -4.29801,-13.17241 -4.29801,-13.98016 -4.29803,-14.60799 -4.29803,-15.03383 -4.29804,-15.24652 -4.29805,-15.24511 -4.29805,-15.03686 -4.29807,-14.6351 -4.29807,-14.05704 -4.29808,-13.321913 -4.29808,-12.449435 -4.2981,-11.458895 -4.2981,-10.36845 -4.29811,-9.194839 -4.29812,-7.953286 -4.29812,-6.657582 -4.29814,-5.320253 -4.29814,-3.952833 -4.29815,-2.56615 -4.29815,-1.170444 -4.29817,0.226761 -4.29817,1.612276 -4.29818,2.977561 -4.29819,4.312301 -4.29819,5.604716 -4.29821,6.842077 -4.29821,8.010426 -4.29822,9.094375 -4.29822,10.077034 -4.29824,10.940091 -4.29824,11.664157 -4.29825,12.229405 -4.29826,12.61662 -4.29826,12.80871 -4.29828,12.79255 -4.29828,12.56133 -4.29828,12.11661 -4.2983,11.4702 -4.29831,10.64508 -4.29831,9.67472 -4.29832,8.60111 -4.29832,7.47111 -4.29834,6.33204 -4.29834,5.2272 -4.29835,4.19236 -4.29836,3.25342 -4.29837,2.42594 -4.29837,1.71582 -4.29838,1.12111 -4.29839,0.63411 -4.2984,0.24351 -4.29841,-0.0637 -4.29841,-0.30093 -4.29842,-0.48083 -4.29843,-0.61484 -4.29843,-0.71286 -4.29845,-0.78315 -4.29845,-0.83243 -4.29846,-0.86608 -2.14923,-0.7765" />
  </g>
</svg>
