/* XPM */
static const char * print_xpm[] = {
"48 48 207 2",
"  	c None",
". 	c #929292",
"+ 	c #A0A0A0",
"@ 	c #9E9E9E",
"# 	c #9D9D9D",
"$ 	c #9C9C9C",
"% 	c #9B9B9B",
"& 	c #9A9A9A",
"* 	c #999999",
"= 	c #DADADA",
"- 	c #FFFFFF",
"; 	c #FCFCFC",
"> 	c #F9F9F9",
", 	c #F7F7F7",
"' 	c #F4F4F4",
") 	c #EBEBEB",
"! 	c #323232",
"~ 	c #D7D7D7",
"{ 	c #F1F1F1",
"] 	c #EFEFEF",
"^ 	c #ECECEC",
"/ 	c #E3E3E3",
"( 	c #313131",
"_ 	c #FEFEFE",
": 	c #F6F6F6",
"< 	c #EEEEEE",
"[ 	c #E9E9E9",
"} 	c #E1E1E1",
"| 	c #333333",
"1 	c #D8D8D8",
"2 	c #F3F3F3",
"3 	c #E6E6E6",
"4 	c #DEDEDE",
"5 	c #E7E7E7",
"6 	c #E4E4E4",
"7 	c #DDDDDD",
"8 	c #343434",
"9 	c #DBDBDB",
"0 	c #363636",
"a 	c #DCDCDC",
"b 	c #373737",
"c 	c #DFDFDF",
"d 	c #393939",
"e 	c #D9D9D9",
"f 	c #D5D5D5",
"g 	c #E0E0E0",
"h 	c #D6D6D6",
"i 	c #D3D3D3",
"j 	c #3B3B3B",
"k 	c #E2E2E2",
"l 	c #D4D4D4",
"m 	c #D1D1D1",
"n 	c #3C3C3C",
"o 	c #D0D0D0",
"p 	c #CECECE",
"q 	c #3E3E3E",
"r 	c #CDCDCD",
"s 	c #797979",
"t 	c #F0F0F0",
"u 	c #EDEDED",
"v 	c #E8E8E8",
"w 	c #E5E5E5",
"x 	c #737373",
"y 	c #6C6C6C",
"z 	c #959595",
"A 	c #C5C5C5",
"B 	c #757575",
"C 	c #8B8B8B",
"D 	c #878787",
"E 	c #858585",
"F 	c #838383",
"G 	c #828282",
"H 	c #808080",
"I 	c #7E7E7E",
"J 	c #7D7D7D",
"K 	c #7B7B7B",
"L 	c #7A7A7A",
"M 	c #777777",
"N 	c #767676",
"O 	c #747474",
"P 	c #717171",
"Q 	c #707070",
"R 	c #6E6E6E",
"S 	c #6D6D6D",
"T 	c #6B6B6B",
"U 	c #606060",
"V 	c #D2D2D2",
"W 	c #5E5E5E",
"X 	c #5A5A5A",
"Y 	c #5B5B5B",
"Z 	c #595959",
"` 	c #585858",
" .	c #565656",
"..	c #555555",
"+.	c #545454",
"@.	c #535353",
"#.	c #515151",
"$.	c #4F4F4F",
"%.	c #4E4E4E",
"&.	c #4D4D4D",
"*.	c #494949",
"=.	c #8F8F8F",
"-.	c #FBFBFB",
";.	c #EAEAEA",
">.	c #B3B3B3",
",.	c #FDFDFD",
"'.	c #FAFAFA",
").	c #CCCCCC",
"!.	c #CACACA",
"~.	c #BDBDBD",
"{.	c #3A3A3A",
"].	c #676767",
"^.	c #F8F8F8",
"/.	c #C4C4C4",
"(.	c #B0B0B0",
"_.	c #A1A1A1",
":.	c #B8B8B8",
"<.	c #F8F6F8",
"[.	c #B5B5B5",
"}.	c #E9F2E9",
"|.	c #ACCEAC",
"1.	c #B9D3B9",
"2.	c #F5F7F5",
"3.	c #7C7C7C",
"4.	c #FDFAFD",
"5.	c #7CC57C",
"6.	c #5BD55B",
"7.	c #39C339",
"8.	c #FFFBFF",
"9.	c #76C776",
"0.	c #05BF05",
"a.	c #07B507",
"b.	c #8CCB8C",
"c.	c #4B4B4B",
"d.	c #F5F6F5",
"e.	c #B2D1B2",
"f.	c #CADFCA",
"g.	c #FCFAFC",
"h.	c #2E2E2E",
"i.	c #F9F8F9",
"j.	c #FFFCFF",
"k.	c #C0C0C0",
"l.	c #A6A6A6",
"m.	c #C2C2C2",
"n.	c #AAAAAA",
"o.	c #C3C3C3",
"p.	c #ABABAB",
"q.	c #A3A3A3",
"r.	c #CFCFCF",
"s.	c #C8C8C8",
"t.	c #C7C7C7",
"u.	c #C9C9C9",
"v.	c #909090",
"w.	c #8D8D8D",
"x.	c #8E8E8E",
"y.	c #626262",
"z.	c #A2A2A2",
"A.	c #BFBFBF",
"B.	c #000000",
"C.	c #464646",
"D.	c #B1B1B1",
"E.	c #BBBBBB",
"F.	c #252525",
"G.	c #3D3D3D",
"H.	c #010101",
"I.	c #727272",
"J.	c #BEBEBE",
"K.	c #292929",
"L.	c #BABABA",
"M.	c #B6B6B6",
"N.	c #030303",
"O.	c #888888",
"P.	c #C1C1C1",
"Q.	c #9F9F9F",
"R.	c #131313",
"S.	c #B7B7B7",
"T.	c #B9B9B9",
"U.	c #8C8C8C",
"V.	c #B4B4B4",
"W.	c #BCBCBC",
"X.	c #111111",
"Y.	c #303030",
"Z.	c #474747",
"`.	c #101010",
" +	c #505050",
".+	c #ACACAC",
"++	c #AEAEAE",
"@+	c #616161",
"#+	c #8A8A8A",
"$+	c #A5A5A5",
"%+	c #F5F5F5",
"&+	c #F2F2F2",
"*+	c #272727",
"=+	c #1B1B1B",
"-+	c #454545",
";+	c #949494",
">+	c #121212",
",+	c #AFAFAF",
"'+	c #979797",
")+	c #404040",
"!+	c #787878",
"~+	c #646464",
"{+	c #5F5F5F",
"]+	c #5D5D5D",
"^+	c #5C5C5C",
"/+	c #575757",
"(+	c #434343",
"                          . + @ @ @ @ @ @ @ @ @ @ @ # $ % & * * * *                             ",
"                          = - - - - - - - - - - - - - - ; > , ' ' ) !                           ",
"                          ~ - - - - - - - - - - - ; > , ' { ] ^ ^ / (                           ",
"                          ~ - - - - - - - - - _ ; > : ' { < ^ [ [ } |                           ",
"                          1 - - - - - - - - _ ; > : 2 { < ) [ 3 3 4 |                           ",
"                          = - - - - - - - - ; > , ' { ] ^ [ 5 6 6 7 8                           ",
"                          9 - - - - - - _ ; > : ' { < ^ [ 3 6 } } 9 0                           ",
"                          a - - - - - _ ; > : 2 { < ) [ 3 / } 4 7 1 b                           ",
"                          4 - - - - - ; > , ' { ] ^ [ 5 6 } c a 9 ~ d                           ",
"                          c - - - _ ; > : ' { < ^ [ 3 6 } 4 a e 1 f d                           ",
"                          g - - _ ; > : 2 { < ) [ 3 / } 4 9 e h f i j                           ",
"                          k - - ; > , ' { ] ^ [ 5 6 } c a e ~ l i m n                           ",
"                          / - ; > : ' { < ^ [ 3 6 } 4 a e h l m o p q                           ",
"                          / - > : 2 { < ) [ 3 / } 4 9 e h i m p r r b                           ",
"                        s ) - - - _ ; > : ' t u ) v w / c a = ~ f m x y                         ",
"                    z A d B C D E F G H I J K L s M N O x P Q R S T | F a U                     ",
"                    V 6 W X X X X X X X Y Y Z ` `  ...+.@.#.#.$.%.&.*.=.c %                     ",
"                    ) - - - - - - - - - - - - _ -., ' { < ;.5 6 g 7 9 i o >.(                   ",
"                  #.2 - - - - - - - - - ,.'.: 2 t u [ 3 / g 7 = h i o ).!.~.{.                  ",
"                ].C ^.- - - - - - - - ; > : 2 t < ;.5 6 } 4 a 1 f V o ).!./.I ..                ",
"          x (.i ] - - - - - - - - - - - _ _ _ _ _ ,.,.,.,.,.,.; ; ; ; -.-.; ,.] m _...          ",
"      Q :.<.- - - - - - - - - - - - - - - - - - - - - - - - - - - - - - - - - - - - ' [.Z       ",
"      1 - }.|.1.2.- - - - - - - - - - - - - - - - - - - - - - - - - - - - - - - - - - - A       ",
"    3.,.4.5.6.7.5.- _ _ _ _ _ _ _ _ _ _ _ _ _ _ _ _ _ _ _ _ _ _ _ _ _ _ _ _ _ _ _ _ _ - u Y     ",
"    (._ 8.9.0.a.b.- ,.; ; ; ; ; ; ; ; ; ; ; ; ; ; ; ; ; ; ; ; ; ; ; ; ; ; ; ; ; ; ; ; ,._ @     ",
"  c.9 '.-.d.e.f.g.'.'.'.'.'.'.'.'.'.'.'.'.'.'.'.'.'.'.'.'.'.'.'.'.'.'.'.'.'.'.'.'.'.'.'.,.9 h.  ",
"  K ] , , i.j.8.^., , , , , , , , , , , , , , , , , , , , , , , , , , , , , , , , , , , ^.] X   ",
"  _.{ { ' ' ' 2 2 2 2 2 2 2 2 2 2 2 2 2 2 2 2 2 2 2 2 2 2 2 2 2 2 2 2 2 2 2 2 2 2 ' ' ' 2 u F   ",
"  :.;./ 5 u ] t t t t t t t t t t t t t t t t t t t t t t t t t t t t t t t t t t ] u v 6 5 %   ",
"  k.6 4 7 4 g / w v ;.) ) ) ) ) ) ) ) ) ) ) ) ) ) ) ) ) ) ) ) ) ) ) ) ) ) ;.[ 3 / } c 4 4 6 l.  ",
"  m.4 = = = = e e = 9 c g k k / 6 w w w w w w w w w w w w w w 6 / k k } c a = e e e = = = g n.  ",
"  o.e f f f f f f f f l l f f f f h h ~ ~ 1 1 1 1 1 1 1 ~ h h f f f f l l f f f f f f f f a p.  ",
"  ~.f m m m m m m m m m m m m m m m m m o o o o o o o o m m m m m m m m m m m m m m m m m h l.  ",
"  [.m r r r r r r r r r r r r r r r r r r r r r r r r r r r r r r r r r r r r r r r r r ).m +   ",
"  q.r.s.s.s.t.o h h h h h h h h h h h h h h h h h h h h h h h h h h h h h h h h r t.s.s.u.).v.  ",
"  w.!./././.u.x.y.y.y.y.y.y.y.y.y.y.y.y.y.y.y.y.y.y.y.y.y.y.y.y.y.y.y.y.y.y.y.y.z.u././.A u.O   ",
"  ].m.k.A.A.!.&.B.B.B.B.B.B.B.B.B.B.B.B.B.B.B.B.B.B.B.B.B.B.B.B.B.B.B.B.B.B.B.B.N !.A.A.k.A C.  ",
"  c.D.~.E.E.A @.B.B.B.B.F.G.j j j j j j j j j j j j j j {.{.{.{.{.{.n ( H.B.B.B.I./.E.E.J.p.K.  ",
"    & L.M.M.k.$.B.B.B.N.O.= f l l l l l l l l f l i o p ).!.s.A m.P./.Q.R.B.B.B.].~.S.S.T.U.    ",
"    U ~.M.V.W.Z X.X.X.Y.V 3 k k k k k k k k k k g 7 = e h i m p ).!.s.k.Z.`.X.X.].>.[.S.S. +    ",
"      L n.:.T.W.A.~.:.n.; _ _ _ _ _ _ _ _ _ _ -.> : 2 { < ;.v w k g 7 4 Q..+A.J.++V.:.l.y       ",
"        ! @+#+$+[.E.# J.- - - - - - - - - - ,.'.^.%+&+t ^ [ 5 6 } c a a m.z.L.V.z.E W *+        ",
"              =+-+S U.&+- - - - - - - - - ,.'., %+&+] ^ [ 3 6 } 4 a 1 h m ;+].q >+              ",
"                    ,+- - - - - - - - - ; '., ' &+] ^ [ 3 / } 4 9 1 f V f '+                    ",
"                    [ - - - - - - - - _ '.^.%+&+t u [ 5 6 } c a e h i o m J.)+                  ",
"                  z.- - - - - - - - - - - _ -.^.%+&+] u ;.5 w } 4 a = ~ f 1 !+                  ",
"                  @.~+y.y.y.y.y.y.y.@+{+{+{+{+W ]+^+^+X X X Z Z ` ` /+..../+(+                  ",
"                                                                                                "};
