/* XPM */
static const char * quit_xpm[] = {
"48 48 295 2",
"  	c None",
". 	c #A62212",
"+ 	c #B03B2A",
"@ 	c #B95440",
"# 	c #BF644E",
"$ 	c #BE634D",
"% 	c #BE634C",
"& 	c #BE624C",
"* 	c #BE624B",
"= 	c #BE614A",
"- 	c #BD614A",
"; 	c #BD6049",
"> 	c #BD6048",
", 	c #BD5F48",
"' 	c #BD5F46",
") 	c #BD5E46",
"! 	c #BC5E45",
"~ 	c #BC5D44",
"{ 	c #BC5D43",
"] 	c #BC5C43",
"^ 	c #BB5C42",
"/ 	c #BB5A42",
"( 	c #BB5A41",
"_ 	c #BB5A40",
": 	c #BA5940",
"< 	c #B54B34",
"[ 	c #AE3623",
"} 	c #B95541",
"| 	c #D2997F",
"1 	c #D9A88D",
"2 	c #D8A78B",
"3 	c #D8A68A",
"4 	c #D8A689",
"5 	c #D7A487",
"6 	c #D7A286",
"7 	c #D7A285",
"8 	c #D5A082",
"9 	c #D5A081",
"0 	c #D49E7F",
"a 	c #D49E7E",
"b 	c #D49D7D",
"c 	c #D39B7B",
"d 	c #D39B79",
"e 	c #D39A78",
"f 	c #D29977",
"g 	c #D29775",
"h 	c #D19674",
"i 	c #D19573",
"j 	c #D09471",
"k 	c #CF936F",
"l 	c #CF926E",
"m 	c #CE916D",
"n 	c #CE906C",
"o 	c #CE8F6A",
"p 	c #CD8D69",
"q 	c #C8805D",
"r 	c #B44A31",
"s 	c #A92B1A",
"t 	c #CD8971",
"u 	c #D9A98F",
"v 	c #D09275",
"w 	c #C87E5E",
"x 	c #C97E5E",
"y 	c #C87E5D",
"z 	c #C87F5E",
"A 	c #C97F5D",
"B 	c #C87F5D",
"C 	c #C87F5C",
"D 	c #C9805D",
"E 	c #C8805C",
"F 	c #C9805C",
"G 	c #C8815C",
"H 	c #C9815C",
"I 	c #CA8861",
"J 	c #CC8B65",
"K 	c #CC8A64",
"L 	c #C26F4F",
"M 	c #A82918",
"N 	c #D2997C",
"O 	c #BD5E3B",
"P 	c #BA5531",
"Q 	c #BA5631",
"R 	c #BA5732",
"S 	c #BB5935",
"T 	c #BB5A36",
"U 	c #BB5C37",
"V 	c #BC5E38",
"W 	c #BD5F39",
"X 	c #BD603A",
"Y 	c #BD613B",
"Z 	c #BE633C",
"` 	c #BE643E",
" .	c #BE653F",
"..	c #BE6740",
"+.	c #BF6841",
"@.	c #C06A43",
"#.	c #C06B44",
"$.	c #C26D45",
"%.	c #C26E46",
"&.	c #C26F48",
"*.	c #C27149",
"=.	c #C4724B",
"-.	c #C4744C",
";.	c #C4744D",
">.	c #C4754E",
",.	c #C57750",
"'.	c #C67B54",
").	c #CA8760",
"!.	c #CA8962",
"~.	c #BF6849",
"{.	c #BB5836",
"].	c #C57852",
"^.	c #C57953",
"/.	c #C67D55",
"(.	c #C9855F",
"_.	c #C9865F",
":.	c #B3462E",
"<.	c #C67C54",
"[.	c #C77D56",
"}.	c #C77F58",
"|.	c #C8835D",
"1.	c #C47652",
"2.	c #CF8667",
"3.	c #E5B39E",
"4.	c #FCE1D4",
"5.	c #FFECE2",
"6.	c #FFEDE3",
"7.	c #F8D9C9",
"8.	c #E2AF96",
"9.	c #C77B56",
"0.	c #C77E57",
"a.	c #C8815A",
"b.	c #C88059",
"c.	c #AC3420",
"d.	c #D49073",
"e.	c #FFEBE2",
"f.	c #FFFFFF",
"g.	c #F9DACC",
"h.	c #CF8967",
"i.	c #B2442C",
"j.	c #C36C49",
"k.	c #FBDFD3",
"l.	c #E4B39B",
"m.	c #C8825C",
"n.	c #C77C55",
"o.	c #B54E32",
"p.	c #FFF6EF",
"q.	c #FFEEE4",
"r.	c #FFF9F1",
"s.	c #F9DCCE",
"t.	c #C67B53",
"u.	c #B54D31",
"v.	c #DCA187",
"w.	c #C97E59",
"x.	c #E4B29A",
"y.	c #FADECF",
"z.	c #C9855E",
"A.	c #C57850",
"B.	c #B54C31",
"C.	c #FFEBE1",
"D.	c #DCA086",
"E.	c #CA815D",
"F.	c #E6B9A0",
"G.	c #C87F59",
"H.	c #C5764F",
"I.	c #B54B30",
"J.	c #DFA78F",
"K.	c #D18B6B",
"L.	c #D39374",
"M.	c #E9C0AA",
"N.	c #CE8B67",
"O.	c #B54B2F",
"P.	c #FFFFFC",
"Q.	c #D79678",
"R.	c #EEC7B3",
"S.	c #FADED0",
"T.	c #F0CEBA",
"U.	c #C4734C",
"V.	c #B44A2E",
"W.	c #DA9C82",
"X.	c #F7D7C8",
"Y.	c #EFC8B4",
"Z.	c #CD8964",
"`.	c #C87F58",
" +	c #C3714A",
".+	c #B4492D",
"++	c #F7D4C7",
"@+	c #CC815F",
"#+	c #EFC8B5",
"$+	c #F0CDBA",
"%+	c #E3B49B",
"&+	c #CD8B67",
"*+	c #C77F59",
"=+	c #FFFFFD",
"-+	c #FFF8F0",
";+	c #EFC9B5",
">+	c #D29574",
",+	c #F1D1BD",
"'+	c #B3482C",
")+	c #EDC3AF",
"!+	c #EFCAB6",
"~+	c #FFECDF",
"{+	c #CE906B",
"]+	c #C06C44",
"^+	c #B3462B",
"/+	c #EDC4B0",
"(+	c #F0CAB6",
"_+	c #FFF3EB",
":+	c #FFF6EC",
"<+	c #CF916D",
"[+	c #B3452A",
"}+	c #F0CCB8",
"|+	c #FFF5EB",
"1+	c #FFF6ED",
"2+	c #C87F5A",
"3+	c #B24429",
"4+	c #EDC5B1",
"5+	c #F0CCB9",
"6+	c #B24329",
"7+	c #FFEFE5",
"8+	c #D49C7B",
"9+	c #F3D4C3",
"0+	c #B24227",
"a+	c #FDE3D7",
"b+	c #EDC9B3",
"c+	c #E6BDA5",
"d+	c #BD623C",
"e+	c #B24126",
"f+	c #F3D1C0",
"g+	c #F0CEBB",
"h+	c #D19472",
"i+	c #BD613A",
"j+	c #B14126",
"k+	c #D49676",
"l+	c #F1CFBB",
"m+	c #F7DBCA",
"n+	c #FDE7DA",
"o+	c #D39C7C",
"p+	c #C97F5C",
"q+	c #B14025",
"r+	c #E8BCA6",
"s+	c #D59979",
"t+	c #D9A182",
"u+	c #E9C2AA",
"v+	c #DAA789",
"w+	c #BB5D37",
"x+	c #B13F24",
"y+	c #FFFAF2",
"z+	c #DBA587",
"A+	c #F2D2C0",
"B+	c #F0D0BC",
"C+	c #B03E23",
"D+	c #CA825E",
"E+	c #FADFD1",
"F+	c #D89E7F",
"G+	c #E8C0A8",
"H+	c #FFFDF7",
"I+	c #FDE8DB",
"J+	c #D7A185",
"K+	c #C97F5E",
"L+	c #BA5834",
"M+	c #B03C23",
"N+	c #FBE2D3",
"O+	c #F1D0BD",
"P+	c #D7A486",
"Q+	c #B03B22",
"R+	c #CD8863",
"S+	c #FFF2E8",
"T+	c #F5D8C7",
"U+	c #C97F5F",
"V+	c #B95530",
"W+	c #AF3A21",
"X+	c #E6BAA2",
"Y+	c #DEAF93",
"Z+	c #D9A88C",
"`+	c #C97E5F",
" @	c #B8532F",
".@	c #AC341D",
"+@	c #E3B49A",
"@@	c #F6D9C8",
"#@	c #FFF7EE",
"$@	c #EFCEBA",
"%@	c #DAA687",
"&@	c #C06848",
"*@	c #B8502E",
"=@	c #A92B18",
"-@	c #D5A085",
";@	c #B54A2A",
">@	c #BE6141",
",@	c #B84F2D",
"'@	c #AC321C",
")@	c #BF694A",
"!@	c #B14024",
"~@	c #C26D4D",
"{@	c #A72413",
"                                                                                                ",
"                                                                                                ",
"                                                                                                ",
"                                                                                                ",
"                    . . . . . . . . . . . . . . . . . . . . . . . . . . . .                     ",
"                . . . + @ # # $ % & * = - ; > , ' ) ! ~ { ] ^ / ( _ : < [ . . .                 ",
"              . . } | 1 2 3 4 5 6 7 8 9 0 a b c d e f g h i j k l m n o p q r . .               ",
"            . s t u 1 v w x y y z y A A A B C D E E F F E G G G G G H G I J K L M .             ",
"          . . t u N O P Q R S T U V W X Y Z `  ...+.@.#.$.%.&.*.=.-.;.>.,.'.).!.~.. .           ",
"          . } u N {.P Q R S T U V W X Y Z `  ...+.@.#.$.%.&.*.=.-.;.>.,.].^./.(._.:..           ",
"        . . | 1 O P Q R S T U V W X Y Z `  ...+.@.#.$.%.&.*.=.-.;.>.,.].^.<.[.}.|.1.. .         ",
"        . + 1 v P Q R S T U V W X Y Z 2.3.4.5.6.6.6.7.8.9.=.-.;.>.,.].^.<.[.0.}.a.b.c..         ",
"        . @ 2 w Q R S T U V W X Y d.e.f.f.f.f.f.f.f.f.f.f.g.h.>.,.].^.<.[.0.}.a.b.0.i..         ",
"        . # 3 x R S T U V W X j.k.f.f.f.f.f.f.f.f.f.f.f.f.f.f.l.].^.<.[.0.}.a.m.b.n.o..         ",
"        . # 4 y S T U V W X j.p.f.f.f.f.f.f.q.q.q.r.f.f.f.f.f.f.s.<.[.0.}.a.m.|.b.t.u..         ",
"        . $ 5 y T U V W X j.p.f.f.f.f.6.v.$.%.&.*.=.w.x.f.f.f.f.f.y.0.}.a.m.|.z.b.A.B..         ",
"        . % 6 z U V W X Y C.f.f.f.f.D.#.$.%.&.*.=.-.;.>.E.s.f.f.f.f.F.a.m.|.z.).G.H.I..         ",
"        . & 7 y V W X Y J.f.f.f.f.K.#.$.%.&.8.f.f.L.>.,.].^.M.f.f.f.f.N.|.z.).I }.;.O..         ",
"        . * 8 A W X Y Z P.f.f.f.Q.#.$.%.&.*.f.f.f.R.,.].^.<.[.S.f.f.f.T.z.).I !.}.U.V..         ",
"        . = 9 A X Y Z W.f.f.f.X.#.$.%.&.*.=.f.f.f.Y.].^.<.[.0.Z.f.f.f.f.).I !.K `. +.+.         ",
"        . - 0 A Y Z ` ++f.f.f.@+$.%.&.*.=.-.f.f.f.#+^.<.[.0.}.a.$+f.f.f.%+!.K &+*+&..+.         ",
"        . ; a B Z `  .=+f.f.-+$.%.&.*.=.-.;.f.f.f.;+<.[.0.}.a.m.>+f.f.f.,+K &+p *+%.'+.         ",
"        . > b C `  ...f.f.f.)+%.&.*.=.-.;.>.f.f.f.!+[.0.}.a.m.|.z.f.f.f.~+&+p {+G.]+^+.         ",
"        . , c D  ...+.f.f.f./+&.*.=.-.;.>.,.f.f.f.(+0.}.a.m.|.z.)._+f.f.:+p {+<+G.@.[+.         ",
"        . ' d E ..+.@.f.f.f./+*.=.-.;.>.,.].f.f.f.}+}.a.m.|.z.).I |+f.f.1+{+<+k 2++.3+.         ",
"        . ) e E +.@.#.f.f.f.4+=.-.;.>.,.].^.f.f.f.5+a.m.|.z.).I !.f.f.f.1+<+k i 2+ .6+.         ",
"        . ! f F @.#.$.=+f.f.7+-.;.>.,.].^.<.f.f.f.$+m.|.z.).I !.8+f.f.f.9+k i h 2+` 0+.         ",
"        . ~ g F #.$.%.a+f.f.f.h.>.,.].^.<.[.f.f.f.$+|.z.).I !.K b+f.f.f.c+i h f C d+e+.         ",
"        . { h E $.%.&.8.f.f.f.f+,.].^.<.[.0.f.f.f.g+z.).I !.K h+f.f.f.f.i h f d C i+j+.         ",
"        . ] i G %.&.*.=.f.f.f.f.k+^.<.[.0.}.f.f.f.l+).I !.K &+m+f.f.f.n+h f d o+p+W q+.         ",
"        . ^ j G &.*.=.-.r+f.f.f.f.s+[.0.}.a.$+f.f.t+I !.K &+u+f.f.f.f.v+f d o+a A w+x+.         ",
"        . / k G *.=.-.;.>.y+f.f.f.f.z+}.a.m.|.z.).I !.K &+A+f.f.f.f.B+f d o+a 9 z T C+.         ",
"        . ( l G =.-.;.>.,.D+f.f.f.f.f.E+F+|.z.).I !.K G+H+f.f.f.f.I+f d o+a 9 J+K+L+M+.         ",
"        . _ m G -.;.>.,.].^.s+f.f.f.f.f.f.f.N+O+O+|+f.f.f.f.f.f.I+f d o+a 9 J+P+z R Q+.         ",
"        . : n H ;.>.,.].^.<.[.R+S+f.f.f.f.f.f.f.f.f.f.f.f.f.f.T+f d o+a 9 J+P+4 U+V+W+.         ",
"        . < o G >.,.].^.<.[.0.}.a.X+f.f.f.f.f.f.f.f.f.f.f.7+Y+f d o+a 9 J+P+4 Z+`+ @.@.         ",
"        . [ p I ,.].^.<.[.0.}.a.m.|.z.+@@@|+f.f.f.f.#@$@%@h f d o+a 9 J+P+4 Z+u &@*@=@.         ",
"        . . q J '.^.<.[.0.}.a.m.|.z.).I !.K &+p {+<+k i h f d o+a 9 J+P+4 Z+u -@*@;@. .         ",
"          . r K )./.[.0.}.a.m.|.z.).I !.K &+p {+<+k i h f d o+a 9 J+P+4 Z+u 3 >@,@'@.           ",
"          . . )@!.(.}.}.a.m.|.z.).I !.K &+p {+<+k i h f d o+a 9 J+P+4 Z+u -@>@,@!@. .           ",
"            . M ~@_.|.a.b.b.b.b.G.}.}.`.*+*+G.G.2+2+2+C C p+A z K+z U+`+&@*@,@!@{@.             ",
"              . . :.1.b.0.n.t.A.H.;.U. +&.%.]+@.+. .` d+i+W w+T L+R V+ @*@;@'@. .               ",
"                . . . c.i.o.u.B.I.O.V..+.+'+^+[+3+6+0+e+j+q+x+C+M+Q+W+.@=@. . .                 ",
"                    . . . . . . . . . . . . . . . . . . . . . . . . . . . .                     ",
"                                                                                                ",
"                                                                                                ",
"                                                                                                ",
"                                                                                                "};
