<?xml version="1.0" encoding="UTF-8" standalone="no"?>
<svg
   xmlns:dc="http://purl.org/dc/elements/1.1/"
   xmlns:cc="http://creativecommons.org/ns#"
   xmlns:rdf="http://www.w3.org/1999/02/22-rdf-syntax-ns#"
   xmlns:svg="http://www.w3.org/2000/svg"
   xmlns="http://www.w3.org/2000/svg"
   xmlns:sodipodi="http://sodipodi.sourceforge.net/DTD/sodipodi-0.dtd"
   xmlns:inkscape="http://www.inkscape.org/namespaces/inkscape"
   width="679"
   height="500"
   viewBox="0 0 679 500"
   version="1.1"
   id="svg2169"
   sodipodi:docname="InterSpec_macOS_icon.svg"
   enable-background="new"
   inkscape:version="0.92.2 5c3e80d, 2017-08-06">
  <metadata
     id="metadata2175">
    <rdf:RDF>
      <cc:Work
         rdf:about="">
        <dc:format>image/svg+xml</dc:format>
        <dc:type
           rdf:resource="http://purl.org/dc/dcmitype/StillImage" />
      </cc:Work>
    </rdf:RDF>
  </metadata>
  <defs
     id="defs2173">
    <clipPath
       id="clipchart1">
      <rect
         id="rect1932"
         height="425.5"
         width="610.21875"
         y="0"
         x="0" />
    </clipPath>
  </defs>
  <sodipodi:namedview
     pagecolor="#ffffff"
     bordercolor="#666666"
     borderopacity="1"
     objecttolerance="10"
     gridtolerance="10"
     guidetolerance="10"
     inkscape:pageopacity="0"
     inkscape:pageshadow="2"
     inkscape:window-width="1617"
     inkscape:window-height="1012"
     id="namedview2171"
     showgrid="false"
     inkscape:zoom="1.576"
     inkscape:cx="323.73797"
     inkscape:cy="1199.219"
     inkscape:window-x="14"
     inkscape:window-y="0"
     inkscape:window-maximized="0"
     inkscape:current-layer="svg2169" />
  <rect
     y="-250.00072"
     x="-249.40315"
     style="fill:#cfe6fc;fill-opacity:1;stroke-width:1.96014881"
     id="chartareachart1"
     height="1000.0028"
     width="997.61261"
     inkscape:export-xdpi="346.10541"
     inkscape:export-ydpi="346.10541"
     transform="matrix(1,5.6822289e-8,0.00238736,0.99999715,0,0)" />
  <path
     id="spectrumline0"
     class="line"
     d="m 57.004608,132.35744 h 7.042823 v 1.49147 h 7.042822 v 3.08472 h 7.042822 v 2.70175 h 7.042822 v 1.84518 h 7.042823 v 1.85169 h 7.042822 v 3.00217 h 7.042818 v 1.34611 h 7.04283 v 2.13956 h 7.04282 v 0.93509 h 7.04282 v 1.45788 h 7.04282 v -1.82748 h 7.04283 v -1.84759 h 7.04282 v -3.40378 h 7.04282 v -4.53074 h 7.04282 v -5.10972 h 7.04282 v -4.6257 h 7.04283 v -4.73696 h 7.04282 v -4.43512 h 7.04282 v -2.67206 h 7.04282 v -3.07146 h 7.04283 V 115.01 h 7.04282 v -0.98798 h 7.04282 v -4.37519 h 7.04282 v -4.3372 h 7.04283 v -3.89802 h 7.04282 v -2.733565 h 7.04282 v -1.689017 h 7.04282 v 0.708238 h 7.04282 v 3.144344 h 7.04283 v 4.58112 h 7.04282 v 6.75052 h 7.04282 v 9.32694 h 7.04282 v 10.05936 h 7.04283 v 9.79003 h 7.04282 v 5.62613 h 7.04282 v -0.0758 h 7.04282 v -5.97648 h 7.04283 v -12.76755 h 7.04282 v -14.1105 h 7.04282 V 99.446578 h 7.04282 V 85.662993 h 7.04282 V 74.199965 h 7.04283 v -9.779472 h 7.04282 v -6.947951 h 7.04282 v -4.416289 h 7.04282 v -0.765555 h 7.04283 v 0.954114 h 7.04282 v 4.566837 h 7.04282 v 5.919435 h 7.04282 V 73.3468 h 7.04283 v 11.32662 h 7.04282 v 12.872441 h 7.04282 v 14.798059 h 7.04282 v 15.05447 h 7.04282 v 15.21911 h 7.04283 v 15.85072 h 7.04282 v 13.76707 h 7.04282 v 14.19685 h 7.04282 v 15.09236 h 7.04283 v 15.33336 h 7.04282 v 16.00387 h 7.04282 v 19.21011 h 7.04282 v 18.97333 h 7.04282 v 19.89093 h 7.04283 v 23.62442 h 7.04282 v 29.45261 h 7.04282 v 13.82767 h 7.04282 v 17.10243 h 7.04283 v 22.14563 h 7.04282 v 6.26207 h 7.04282 v 2.08126 h 7.04282 v 5.72944 h 7.04283 v 3.29728 h 7.04282 v 8.19659 h 7.04282 v -0.54225 h 7.04282 v -4.6951 h 7.04282 v -4.39197 h 7.04283 v 18.95012 h 7.04282 v 1.26026 h 7.04282 v -6.08011 h 7.04282 v 8.01536 h 7.04283 v -2.5683 h 7.04282 v 1.27204 h 7.04282 v 4.64925 h 7.04282 v 5.73408 h 7.04283 v 3.84577 h 7.04282 V 458"
     inkscape:connector-curvature="0"
     style="display:inline;opacity:1;stroke:#000000;fill:none;stroke-width:2.66666667;stroke-miterlimit:4;stroke-dasharray:none"
     inkscape:label="spectrumline0" />
  <path
     d="m 92.21872,141.08484 3.521411,2.49964 7.042819,2.53028 7.04282,2.56166 7.04283,2.59379 7.04282,2.62671 7.04282,2.66045 7.04282,2.69503 7.04283,2.73047 7.04282,2.76683 7.04282,2.80411 7.04282,2.84237 7.04283,2.88161 7.04282,2.92191 7.04282,2.96328 7.04282,3.00575 7.04283,3.04938 7.04282,3.0942 7.04282,3.14026 7.04282,3.1876 7.04282,3.23625 7.04283,3.28629 7.04282,3.33773 7.04282,3.39064 7.04282,3.44506 7.04283,3.50105 7.04282,3.55863 7.04282,3.61789 7.04282,3.67884 7.04282,3.74154 7.04283,3.80603 7.04282,3.87235 7.04282,3.94054 7.04282,4.01061 7.04283,4.0826 7.04282,4.15649 7.04282,4.2323 7.04282,4.30999 7.04283,4.38952 7.04282,4.4708 7.04282,4.55375 7.04282,4.63819 7.04282,4.72395 7.04283,4.81074 7.04282,4.89826 7.04282,4.98603 7.04282,5.07357 7.04283,5.16017 7.04282,5.24501 7.04282,5.32707 7.04282,5.40511 7.04283,5.47763 7.04282,5.5428 7.04282,5.59848 7.04282,5.64212 7.04282,5.6707 7.04283,5.68081 7.04282,5.66854 7.04282,5.62953 7.04282,5.55906 7.04283,5.45222 7.04282,5.30407 7.04282,5.11002 7.04282,4.86627 7.04283,4.57029 7.04282,4.22146 7.04282,3.82152 7.04282,3.37513 7.04282,2.88993 7.04283,2.37644 7.04282,1.84751 7.04282,1.3174 7.04282,0.80067 7.04283,0.31101 7.04282,-0.13984 v -0.004 l -7.04282,0.13059 -7.04283,-0.33825 -7.04282,-0.87567 -7.04282,-1.51012 -7.04282,-2.30859 -7.04283,-3.39994 -7.04282,-4.98473 -7.04282,-7.29136 -7.04282,-10.42901 -7.04282,-14.16996 -7.04283,-17.87269 -7.04282,-20.75369 -7.04282,-22.31883 -7.04282,-22.53862 -7.04283,-21.7033 -7.04282,-20.20829 -7.04282,-18.43279 -7.04282,-16.70707 -7.04283,-15.3096 -7.04282,-14.44841 -7.04282,-14.20958 -7.04282,-14.49379 -7.04282,-15.01129 -7.04283,-15.37723 -7.04282,-15.27092 -7.04282,-14.539824 -7.04282,-13.196638 -7.04283,-11.349728 -7.04282,-9.133282 -7.04282,-6.667289 -7.04282,-4.044817 -7.04283,-1.334146 -7.04282,1.415947 -7.04282,4.161982 -7.04282,6.859639 -7.04282,9.442429 -7.04283,11.795706 -7.04282,13.706063 -7.04282,14.783118 -7.04282,14.39012 -7.04283,11.75781 -7.04282,6.5965 -7.04282,-0.003 -7.04282,-5.81319 -7.04283,-9.21624 -7.04282,-10.11495 -7.04282,-9.24564 -7.04282,-7.37321 -7.04282,-5.03629 -7.04283,-2.588085 -7.04282,-0.283883 -7.04282,1.655834 -7.04282,3.034764 -7.04283,3.71339 -7.04282,3.68845 -7.04282,3.15972 -7.04282,2.50024 -7.04282,2.10156 -7.04283,2.19393 -7.04282,2.77315 -7.04282,3.64627 -7.04282,4.52766 -7.04283,5.12248 -7.04282,5.19915 -7.04282,4.65586 -7.04282,3.56662 -7.04282,2.16488 -7.04283,0.74673 -7.04282,-0.45275 -7.04282,-1.32772 -7.04282,-1.88855 -7.04283,-2.20655 -7.042819,-2.36381 -3.521411,-2.37952"
     class="roi spectrum-peak-0"
     style="fill:#e64100;fill-opacity:0.71090049;stroke:none;stroke-opacity:0.99052131;stroke-width:2.66666667;stroke-miterlimit:4;stroke-dasharray:none"
     id="path1946"
     inkscape:connector-curvature="0" />
  <path
     d="m 95.740131,143.58448 7.042819,2.53028 7.04282,2.56166 7.04283,2.59379 7.04282,2.62671 7.04282,2.66045 7.04282,2.69503 7.04283,2.73047 7.04282,2.76683 7.04282,2.80411 7.04282,2.84237 7.04283,2.88161 7.04282,2.92191 7.04282,2.96328 7.04282,3.00575 7.04283,3.04938 7.04282,3.0942 7.04282,3.14026 7.04282,3.1876 7.04282,3.23625 7.04283,3.28629 7.04282,3.33773 7.04282,3.39064 7.04282,3.44506 7.04283,3.50105 7.04282,3.55863 7.04282,3.61789 7.04282,3.67884 7.04282,3.74154 7.04283,3.80603 7.04282,3.87235 7.04282,3.94054 7.04282,4.01061 7.04283,4.0826 v -0.002 l -7.04283,-4.08682 -7.04282,-4.02234 -7.04282,-3.971 -7.04282,-3.9465 -7.04283,-3.97478 -7.04282,-4.10016 -7.04282,-4.38845 -7.04282,-4.92003 -7.04282,-5.76255 -7.04283,-6.91979 -7.04282,-8.27562 -7.04282,-9.58042 -7.04282,-10.51798 -7.04283,-10.82538 -7.04282,-10.38338 -7.04282,-9.22612 -7.04282,-7.49187 -7.04282,-5.36586 -7.04283,-3.04511 -7.04282,-0.7251 -7.04282,1.39767 -7.04282,3.12652 -7.04283,4.27492 -7.04282,4.70383 -7.04282,4.37907 -7.04282,3.42077 -7.04283,2.09333 -7.04282,0.71432 -7.04282,-0.46629 -7.04282,-1.33296 -7.04283,-1.89043 -7.04282,-2.20718 -7.042819,-2.36402 v 0.12004"
     class="spectrum-peak-0"
     style="fill:#0000ff;fill-opacity:0;stroke:#4747ff;stroke-width:2.66666667;stroke-miterlimit:4;stroke-dasharray:none;stroke-opacity:0.74509805"
     id="path1948"
     inkscape:connector-curvature="0" />
  <path
     d="m 109.82577,148.67642 7.04283,2.59379 7.04282,2.62671 7.04282,2.66045 7.04282,2.69503 7.04283,2.73047 7.04282,2.76683 7.04282,2.80411 7.04282,2.84237 7.04283,2.88161 7.04282,2.92191 7.04282,2.96328 7.04282,3.00575 7.04283,3.04938 7.04282,3.0942 7.04282,3.14026 7.04282,3.1876 7.04282,3.23625 7.04283,3.28629 7.04282,3.33773 7.04282,3.39064 7.04282,3.44506 7.04283,3.50105 7.04282,3.55863 7.04282,3.61789 7.04282,3.67884 7.04282,3.74154 7.04283,3.80603 7.04282,3.87235 7.04282,3.94054 7.04282,4.01061 7.04283,4.0826 7.04282,4.15649 7.04282,4.2323 7.04282,4.30999 7.04283,4.38952 7.04282,4.4708 7.04282,4.55375 7.04282,4.63819 7.04282,4.72395 7.04283,4.81074 7.04282,4.89826 7.04282,4.98603 v -0.009 l -7.04282,-5.00235 -7.04282,-4.93945 -7.04283,-4.90915 -7.04282,-4.94627 -7.04282,-5.11221 -7.04282,-5.50466 -7.04282,-6.25681 -7.04283,-7.50799 -7.04282,-9.32756 -7.04282,-11.60663 -7.04282,-13.99963 -7.04283,-16.01477 -7.04282,-17.22625 -7.04282,-17.43895 -7.04282,-16.69304 -7.04283,-15.16285 -7.04282,-13.05505 -7.04282,-10.55344 -7.04282,-7.80386 -7.04282,-4.91986 -7.04283,-1.995412 -7.04282,0.883522 -7.04282,3.62157 -7.04282,6.1041 -7.04283,8.18135 -7.04282,9.66582 -7.04282,10.34844 -7.04282,10.05672 -7.04282,8.75991 -7.04283,6.66927 -7.04282,4.22462 -7.04282,1.91972 -7.04282,0.0897 -7.04283,-1.17016 -7.04282,-1.93834 -7.04282,-2.35715 -7.04282,-2.559 -7.04283,-2.63933 -7.04282,-2.65725 -7.04282,-2.64564 -7.04282,-2.62122 -7.04283,-2.59186 v 9.3e-4"
     class="spectrum-peak-0"
     style="fill:#0000ff;fill-opacity:0;stroke:#4747ff;stroke-width:2.66666667;stroke-miterlimit:4;stroke-dasharray:none;stroke-opacity:0.74509805"
     id="path1950"
     inkscape:connector-curvature="0" />
  <path
     d="m 215.46811,191.45257 7.04282,3.1876 7.04282,3.23625 7.04283,3.28629 7.04282,3.33773 7.04282,3.39064 7.04282,3.44506 7.04283,3.50105 7.04282,3.55863 7.04282,3.61789 7.04282,3.67884 7.04282,3.74154 7.04283,3.80603 7.04282,3.87235 7.04282,3.94054 7.04282,4.01061 7.04283,4.0826 7.04282,4.15649 7.04282,4.2323 7.04282,4.30999 7.04283,4.38952 7.04282,4.4708 7.04282,4.55375 7.04282,4.63819 7.04282,4.72395 7.04283,4.81074 7.04282,4.89826 7.04282,4.98603 7.04282,5.07357 7.04283,5.16017 7.04282,5.24501 7.04282,5.32707 7.04282,5.40511 7.04283,5.47763 7.04282,5.5428 7.04282,5.59848 7.04282,5.64212 7.04282,5.6707 7.04283,5.68081 7.04282,5.66854 7.04282,5.62953 7.04282,5.55906 7.04283,5.45222 7.04282,5.30407 7.04282,5.11002 7.04282,4.86627 7.04283,4.57029 7.04282,4.22146 7.04282,3.82152 v -0.0516 l -7.04282,-3.9042 -7.04282,-4.41949 -7.04283,-5.02011 -7.04282,-5.83287 -7.04282,-7.06542 -7.04282,-8.99632 -7.04283,-11.87819 -7.04282,-15.71717 -7.04282,-20.05037 -7.04282,-24.02523 -7.04283,-26.85443 -7.04282,-28.21226 -7.04282,-28.22346 -7.04282,-27.21415 -7.04282,-25.51035 -7.04283,-23.36025 -7.04282,-20.93085 -7.04282,-18.3283 -7.04282,-15.618687 -7.04283,-12.84312 -7.04282,-10.02779 -7.04282,-7.190229 -7.04282,-4.343602 -7.04283,-1.499744 -7.04282,1.330952 -7.04282,4.132508 -7.04282,6.885667 -7.04282,9.558516 -7.04283,12.101501 -7.04282,14.435348 -7.04282,16.43364 -7.04282,17.90158 -7.04283,18.56235 -7.04282,18.08418 -7.04282,16.20409 -7.04282,12.96383 -7.04283,8.89472 -7.04282,4.86024 -7.04282,1.58504 -7.04282,-0.66701 -7.04282,-2.02085 -7.04283,-2.74733 -7.04282,-3.09493 -7.04282,-3.23577 -7.04282,-3.27234 -7.04283,-3.25989 -7.04282,-3.22607 -7.04282,-3.18384 v 0.002"
     class="spectrum-peak-0"
     style="fill:#0000ff;fill-opacity:0;stroke:#4747ff;stroke-width:2.66666667;stroke-miterlimit:4;stroke-dasharray:none;stroke-opacity:0.74509805"
     id="path1952"
     inkscape:connector-curvature="0" />
  <path
     d="m 314.06762,241.05301 7.04282,4.01061 7.04283,4.0826 7.04282,4.15649 7.04282,4.2323 7.04282,4.30999 7.04283,4.38952 7.04282,4.4708 7.04282,4.55375 7.04282,4.63819 7.04282,4.72395 7.04283,4.81074 7.04282,4.89826 7.04282,4.98603 7.04282,5.07357 7.04283,5.16017 7.04282,5.24501 7.04282,5.32707 7.04282,5.40511 7.04283,5.47763 7.04282,5.5428 7.04282,5.59848 7.04282,5.64212 7.04282,5.6707 7.04283,5.68081 7.04282,5.66854 7.04282,5.62953 7.04282,5.55906 7.04283,5.45222 7.04282,5.30407 7.04282,5.11002 7.04282,4.86627 7.04283,4.57029 7.04282,4.22146 7.04282,3.82152 7.04282,3.37513 7.04282,2.88993 7.04283,2.37644 7.04282,1.84751 7.04282,1.3174 7.04282,0.80067 7.04283,0.31101 v -0.0134 l -7.04283,-0.3382 -7.04282,-0.87553 -7.04282,-1.50964 -7.04282,-2.30713 -7.04283,-3.39568 -7.04282,-4.97329 -7.04282,-7.26312 -7.04282,-10.36621 -7.04282,-14.04552 -7.04283,-17.65218 -7.04282,-20.39624 -7.04282,-21.77078 -7.04282,-21.71916 -7.04283,-20.48615 -7.04282,-18.39986 -7.04282,-15.74674 -7.04282,-12.73888 -7.04283,-9.52453 -7.04282,-6.20992 -7.04282,-2.88022 -7.04282,0.38495 -7.04282,3.49166 -7.04283,6.31755 -7.04282,8.68999 -7.04282,10.37576 -7.04282,11.09486 -7.04283,10.59769 -7.04282,8.82659 -7.04282,6.08241 -7.04282,2.99924 -7.04283,0.24681 -7.04282,-1.79038 -7.04282,-3.07857 -7.04282,-3.78557 -7.04282,-4.11756 -7.04283,-4.23713 -7.04282,-4.24813 -7.04282,-4.20864 -7.04282,-4.14796 -7.04283,-4.07969 -7.04282,-4.00969 v 4e-4"
     class="spectrum-peak-0"
     style="fill:#d3d3ff;fill-opacity:0;stroke:#4747ff;stroke-width:2.66666667;stroke-miterlimit:4;stroke-dasharray:none;stroke-opacity:0.74881518"
     id="path1954"
     inkscape:connector-curvature="0" />
</svg>
